<?xml version="1.0" standalone="no"?>
<!DOCTYPE svg PUBLIC "-//W3C//DTD SVG 1.1//EN" "http://www.w3.org/Graphics/SVG/1.1/DTD/svg11.dtd" >
<svg xmlns="http://www.w3.org/2000/svg" xmlns:xlink="http://www.w3.org/1999/xlink" version="1.1">
<metadata>
Created by FontForge 20170731 at Fri Oct 16 16:51:57 2020
 By Aleksey,,,
Copyright (c) 2019 by Morula Type. All rights reserved.
</metadata>
<defs>
<font id="Migra-Regular" horiz-adv-x="1000" >
  <font-face 
    font-family="Migra"
    font-weight="400"
    font-stretch="normal"
    units-per-em="1000"
    panose-1="0 0 5 0 0 0 0 0 0 0"
    ascent="750"
    descent="-250"
    x-height="524"
    cap-height="675"
    bbox="-623 -282 1824 976"
    underline-thickness="20"
    underline-position="-80"
    unicode-range="U+0020-FB02"
  />
<missing-glyph horiz-adv-x="555" 
 />
    <glyph glyph-name="fi" unicode="fi" horiz-adv-x="539" 
d="M538 6v-6h-243v6l82 27v459q-129 6 -202 12v-471l107 -27v-6h-268v6l83 27l-1 468l-82 17v6h82l-2 46q-3 74 32.5 118t82 61.5t78.5 17.5q70 0 114 -22.5t66 -58.5l-62 -94l-6 3q1 38 -19.5 69t-54.5 48.5t-73 17.5q-48 0 -79.5 -27.5t-31.5 -69.5q0 -25 8 -47.5
t15.5 -39t10.5 -22.5l281 -1v-490z" />
    <glyph glyph-name="fl" unicode="fl" horiz-adv-x="552" 
d="M466 33l81 -27v-6h-242v6l81 27v458q-113 5 -211 13v-471l107 -27v-6h-268v6l83 27l-1 468l-82 17v6h82l-2 46q-3 74 32.5 118t82 61.5t78.5 17.5q97 0 145 -48l27 43h6v-729h1zM386 523v112q-12 43 -49.5 69t-84.5 26q-48 0 -79.5 -27.5t-31.5 -69.5q0 -25 8 -47.5
t15.5 -39t10.5 -22.5z" />
    <glyph glyph-name="f_f" unicode="ff" horiz-adv-x="635" 
d="M712 688l-52 -94l-5 2q0 37 -20 67.5t-52 47.5t-65 17q-39 0 -60.5 -23.5t-21.5 -64.5q0 -30 12.5 -59t28.5 -57v-1h152v-34l-152 3l-1 -459l101 -27v-6h-261v6l82 27v462q-137 3 -224 9v-471h1l107 -27v-6h-268v6l82 27h-1l1 468l-82 17v6h82l-3 46q-4 72 24 116.5
t66.5 62.5t65.5 18q106 0 159 -78l-50 -95l-6 2q0 37 -20 67.5t-51.5 47.5t-64.5 17q-39 0 -60.5 -23.5t-21.5 -64.5q0 -47 40 -116l224 -1l-3 47q-4 72 24.5 116t66.5 62.5t65 18.5q107 0 161 -79z" />
    <glyph glyph-name="f_f_i" unicode="ffi" horiz-adv-x="834" 
d="M833 6v-6h-242v6l82 27v457l-47 1l-155 3l-1 -461l108 -27v-6h-268v6l83 27l-1 463q-155 3 -217 8l-1 -471h1l108 -27v-6h-268v6l82 27l-1 468l-82 17v6h82l-2 46q-3 74 32.5 118t82 61.5t78.5 17.5q107 0 153 -60q31 31 72.5 45.5t70.5 14.5q70 0 114 -22.5t65 -58.5
l-62 -94l-5 3q1 38 -19.5 69t-54.5 48.5t-73 17.5q-48 0 -79.5 -27.5t-31.5 -69.5q0 -25 8 -47.5t15.5 -39t10.5 -22.5v-1h281v-490zM172.5 702.5q-31.5 -27.5 -31.5 -69.5q0 -25 8 -47.5t15.5 -39t10.5 -22.5h217l-2 46q0 22 1 32q-2 56 -42 92t-97 36q-48 0 -79.5 -27.5z
" />
    <glyph glyph-name="f_f_l" unicode="ffl" horiz-adv-x="856" 
d="M770 33l82 -27v-6h-242v6l72 24v460q-47 0 -211 4v-461l107 -27v-6h-268v6l83 27l-1 463q-153 3 -217 8l-1 -471h1l108 -27v-6h-268v6l82 27l-1 468l-82 17v6h82l-2 46q-3 74 32.5 118t82 61.5t78.5 17.5q107 0 153 -60q31 31 72.5 45.5t70.5 14.5q96 0 145 -47l26 42h6
v-729h10zM172.5 702.5q-31.5 -27.5 -31.5 -69.5q0 -25 8 -47.5t15.5 -39t10.5 -22.5h217l-2 46q0 22 1 32q-2 56 -42 92t-97 36q-48 0 -79.5 -27.5zM471 523h211v111q-12 43 -49 69.5t-85 26.5t-79.5 -27.5t-31.5 -69.5q0 -25 8 -47.5t15.5 -39t10.5 -22.5v-1z" />
    <glyph glyph-name=".notdef" horiz-adv-x="555" 
 />
    <glyph glyph-name=".null" horiz-adv-x="0" 
 />
    <glyph glyph-name="nonmarkingreturn" horiz-adv-x="333" 
 />
    <glyph glyph-name="space" unicode=" " horiz-adv-x="198" 
 />
    <glyph glyph-name="exclam" unicode="!" horiz-adv-x="271" 
d="M131 145l-6 65q-32 309 -38 469h95q-5 -132 -20 -286.5t-17 -178.5l-7 -69h-7zM96.5 12q-15.5 15 -15.5 38q0 21 15.5 36.5t38.5 15.5q22 0 37.5 -15.5t15.5 -36.5q0 -22 -15 -37.5t-38 -15.5t-38.5 15z" />
    <glyph glyph-name="quotedbl" unicode="&#x22;" horiz-adv-x="364" 
d="M98 402q-2 23 -9 67q-2 17 -10.5 82t-13.5 121v3h72v-3q-6 -74 -20 -176q-11 -79 -11 -94h-8zM260 402q-2 23 -9 67q-2 17 -10.5 82t-13.5 121v3h72v-3q-6 -74 -20 -176q-11 -79 -11 -94h-8z" />
    <glyph glyph-name="numbersign" unicode="#" horiz-adv-x="651" 
d="M637 484v-18h-155l-68 -260h162v-18h-166l-49 -188h-20l49 188h-203l-49 -188h-20l49 188h-152v18h156l68 260h-163v18h167l50 191h20l-50 -191h203l50 191h20l-50 -191h151zM191 206h203l68 260h-203z" />
    <glyph glyph-name="dollar" unicode="$" horiz-adv-x="549" 
d="M479 84q-25 -43 -75 -70t-120 -27v-86h-20v86q-31 1 -57 7t-60 17q-6 2 -30.5 9t-47.5 10l-25 262l7 1q26 -119 84 -179.5t129 -79.5v266l-29 16q-55 27 -87 47.5t-55 55t-23 85.5q0 83 55.5 129.5t138.5 48.5v86h20v-86q44 -2 82 -16.5t64 -37.5l36 53h7v-257h-6
q-30 83 -76 137t-107 73v-245l28 -15q19 -9 23 -11q58 -29 91.5 -50.5t55.5 -54.5t22 -80q0 -51 -25 -94zM127 494q20 -26 51.5 -46t85.5 -48v239q-25 5 -46 5q-50 0 -80.5 -23.5t-30.5 -66.5q0 -34 20 -60zM433 52.5q31 27.5 31 71.5q0 36 -21.5 63.5t-53.5 47t-84 44.5
l-21 11v-260q23 -5 50 -5q68 0 99 27.5z" />
    <glyph glyph-name="percent" unicode="%" horiz-adv-x="689" 
d="M60.5 376q-36.5 48 -36.5 123q0 63 25 103.5t56.5 58.5t49.5 18q68 0 103.5 -48.5t35.5 -125.5q0 -62 -25 -101.5t-56 -57.5t-49 -18q-67 0 -103.5 48zM229 383.5q16 26.5 16 74.5q0 25 -4 49q-11 67 -41 107.5t-72 37.5q-23 -2 -39.5 -28.5t-16.5 -74.5q0 -19 3 -42
q9 -65 39.5 -110t77.5 -42q21 2 37 28.5zM356 348l-7 5l152 322h67v-6zM332 327l7 -5l-150 -322h-69v6zM430.5 42q-36.5 48 -36.5 123q0 63 25 103.5t56.5 58.5t49.5 18q68 0 103.5 -48.5t35.5 -125.5q0 -62 -25 -101.5t-56 -57.5t-49 -18q-67 0 -103.5 48zM599 49.5
q16 26.5 16 74.5q0 25 -4 49q-11 67 -41 107.5t-72 37.5q-23 -2 -39.5 -28.5t-16.5 -74.5q0 -19 3 -42q9 -65 39.5 -110t77.5 -42q21 2 37 28.5z" />
    <glyph glyph-name="ampersand" unicode="&#x26;" horiz-adv-x="681" 
d="M634 6v-6h-197v6l78 35l-62 89q-55 -66 -115.5 -104t-123.5 -38q-72 0 -120 42t-48 123q0 67 33 121t74 88t92 67l-167 240v6h400l3 -3v-199h-6l-11 35q-20 61 -35 89.5t-44 44t-83 15.5h-120l313 -451q25 46 39 95t14 93q0 12 -2 32l81 37l1 -4q-18 -62 -50.5 -132
t-74.5 -132zM366.5 63q44.5 27 82.5 74l-194 278q-7 -5 -47.5 -37t-65.5 -77t-25 -96q0 -53 21.5 -91t57.5 -58t80 -20q46 0 90.5 27z" />
    <glyph glyph-name="quotesingle" unicode="'" horiz-adv-x="202" 
d="M98 402q-2 23 -9 67q-2 17 -10.5 82t-13.5 121v3h72v-3q-6 -74 -20 -176q-11 -79 -11 -94h-8z" />
    <glyph glyph-name="parenleft" unicode="(" horiz-adv-x="259" 
d="M132.5 8q22.5 -104 55 -165.5t65.5 -87.5l-4 -7q-49 38 -94.5 92t-84 158t-38.5 255q0 150 38.5 254.5t84.5 158.5t94 92l4 -7q-33 -26 -65.5 -87.5t-55 -165.5t-22.5 -245t22.5 -245z" />
    <glyph glyph-name="parenright" unicode=")" horiz-adv-x="259" 
d="M10 758q48 -38 94 -92t84.5 -158.5t38.5 -254.5q0 -151 -38.5 -255t-84 -158t-94.5 -92l-4 7q33 26 65.5 87.5t55 165.5t22.5 245t-22.5 245t-55 165.5t-65.5 87.5z" />
    <glyph glyph-name="asterisk" unicode="*" horiz-adv-x="446" 
d="M397 576q-19 11 -45 11q-40 0 -76.5 -27t-45.5 -59q17 4 52 4q49 0 84 -12.5t28 -37.5l-31 -103l-7 2q1 5 1 16q0 32 -20 60.5t-49.5 44.5t-54.5 14q13 -23 23.5 -58.5t10.5 -63.5q0 -46 -28 -47l-108 -2v7q43 6 70 45t27 81q0 18 -6 33q-22 -25 -63.5 -50.5t-68.5 -25.5
q-21 0 -27 17l-35 102l6 3q14 -29 44.5 -44.5t65.5 -15.5q21 0 39.5 6t30.5 16q-35 14 -75 50.5t-40 62.5q0 13 10 20l86 65l4 -5q-31 -28 -31 -77q0 -33 14.5 -62.5t36.5 -43.5q2 25 14.5 60t30 60.5t34.5 25.5q6 0 14 -5l89 -62z" />
    <glyph glyph-name="plus" unicode="+" horiz-adv-x="437" 
d="M225 286h179v-18h-179v-175h-18v175h-174v18h174v178h18v-178z" />
    <glyph glyph-name="comma" unicode="," horiz-adv-x="228" 
d="M157 87.5q15 -14.5 15 -41.5q0 -26 -12.5 -59t-50.5 -122l-20 -45h-7l34 178q-21 2 -36 16.5t-15 35.5t15.5 36.5t38.5 15.5t38 -14.5z" />
    <glyph glyph-name="hyphen" unicode="-" horiz-adv-x="375" 
d="M33 267v18h309v-18h-309z" />
    <glyph glyph-name="period" unicode="." horiz-adv-x="219" 
d="M71.5 12q-15.5 15 -15.5 38q0 21 15.5 36.5t38.5 15.5q22 0 37.5 -15.5t15.5 -36.5q0 -22 -15 -37.5t-38 -15.5t-38.5 15z" />
    <glyph glyph-name="slash" unicode="/" horiz-adv-x="286" 
d="M-13 -250l292 1000h20l-292 -1000h-20z" />
    <glyph glyph-name="zero" unicode="0" horiz-adv-x="533" 
d="M97 82q-61 93 -61 244q0 121 41.5 202t95 119t85.5 38q119 0 179.5 -95t60.5 -250q0 -117 -42 -196t-95.5 -117t-85.5 -38q-117 0 -178 93zM363 63.5q30 24.5 49 77.5t19 133q0 36 -2 55q-7 83 -33.5 153t-70.5 111t-98 41q-32 0 -61 -25t-47.5 -78t-18.5 -134
q0 -14 2 -46q6 -83 32.5 -154.5t69.5 -114.5t95 -43q34 0 64 24.5z" />
    <glyph glyph-name="one" unicode="1" horiz-adv-x="290" 
d="M194 638l-1 -597l81 -35v-6h-246v6l80 35v580l-90 3v6l170 52h6v-44z" />
    <glyph glyph-name="two" unicode="2" horiz-adv-x="483" 
d="M440 190v-185l-5 -5h-416l1 1v5l193 236q58 71 90 133.5t32 127.5q0 58 -28 97t-89 39q-53 0 -77 -43.5t-21 -122.5l-101 -45l-3 2q32 80 75.5 138.5t86.5 89t74 30.5q90 0 130 -44t40 -103q0 -65 -43.5 -136t-136.5 -166l-139 -160v-5h240q28 0 42.5 9.5t24 32
t24.5 74.5h6z" />
    <glyph glyph-name="three" unicode="3" horiz-adv-x="459" 
d="M435 669l-227 -248l2 -4q32 7 64 7q73 0 113.5 -39t40.5 -104q0 -61 -43 -126t-131 -110t-215 -46v91l4 3q69 -28 134 -28q78 0 135.5 34t57.5 119q0 72 -39.5 109t-104.5 37q-45 0 -92 -16l-6 9l217 244h-221q-20 0 -32 -8.5t-21.5 -31t-19.5 -68.5h-6v178l4 4h386v-6z
" />
    <glyph glyph-name="four" unicode="4" horiz-adv-x="468" 
d="M469 176v-18h-140v-117l80 -35v-6h-246v6l81 35v117h-243v6l253 511h102v-6l-325 -493h213l1 176l76 91h8v-267h140z" />
    <glyph glyph-name="five" unicode="5" horiz-adv-x="443" 
d="M403 600h-291l-31 -131l121 -40q78 -27 120.5 -50.5t62.5 -54t20 -77.5q0 -51 -35 -107.5t-119.5 -98t-222.5 -44.5v91l4 4q93 -28 149 -28q86 0 128.5 35t42.5 96q0 35 -14.5 61t-49.5 48t-98 46l-145 50l63 275h188q47 0 68 9.5t35 44.5h7v-126z" />
    <glyph glyph-name="six" unicode="6" horiz-adv-x="473" 
d="M138 21.5q-51 31.5 -81.5 92t-30.5 141.5q0 111 52.5 200.5t126.5 148.5t147 91l5 -7q-53 -27 -100.5 -76t-81.5 -107t-47 -112l3 -3q23 32 61 52t63 20q53 0 98.5 -23.5t73 -72.5t27.5 -123q0 -78 -35 -135.5t-84 -87.5t-87 -30q-59 0 -110 31.5zM349.5 61.5
q32.5 35.5 32.5 121.5q0 65 -21 118t-57 83.5t-80 30.5q-58 0 -85 -41t-27 -111q0 -67 21 -121t57 -85t80 -31q47 0 79.5 35.5z" />
    <glyph glyph-name="seven" unicode="7" horiz-adv-x="430" 
d="M22 675h403v-3l-36 -78l-193 -594h-101v6l274 595h-271q-20 0 -32.5 -8.5t-21.5 -31t-19 -68.5h-6v178z" />
    <glyph glyph-name="eight" unicode="8" horiz-adv-x="490" 
d="M388.5 311q30.5 -20 52 -50.5t21.5 -71.5q0 -58 -40.5 -103.5t-94 -71.5t-87.5 -26q-56 0 -104.5 17.5t-78 52t-29.5 83.5q0 48 24.5 87t59.5 65t66 36q-56 31 -87.5 68.5t-31.5 94.5q0 61 35.5 104.5t83 66t79.5 22.5q81 0 131 -41t50 -108q0 -56 -35.5 -100t-93.5 -80
q49 -25 79.5 -45zM151.5 452.5q33.5 -32.5 99.5 -66.5l38 -20q75 69 75 140q0 62 -36.5 99.5t-96.5 37.5q-50 0 -81.5 -28t-31.5 -77q0 -53 33.5 -85.5zM358.5 63.5q36.5 30.5 36.5 75.5q0 48 -36.5 81t-104.5 68l-42 23l-19 10q-43 -23 -65 -59.5t-22 -81.5q0 -69 44 -108
t112 -39q60 0 96.5 30.5z" />
    <glyph glyph-name="nine" unicode="9" horiz-adv-x="473" 
d="M335.5 652.5q50.5 -31.5 81.5 -92t31 -141.5q0 -111 -52.5 -200.5t-126.5 -148.5t-147 -91l-5 7q52 27 99.5 76t81.5 107t48 112l-4 3q-23 -32 -61 -52t-63 -20q-53 0 -98 23.5t-73 72.5t-28 123q0 78 35.5 135.5t84.5 87.5t87 30q59 0 109.5 -31.5zM123.5 612.5
q-32.5 -35.5 -32.5 -121.5q0 -64 21 -117.5t57.5 -84t80.5 -30.5q58 0 85 41t27 111q0 67 -21 121t-57.5 85t-80.5 31q-47 0 -79.5 -35.5z" />
    <glyph glyph-name="colon" unicode=":" horiz-adv-x="219" 
d="M71.5 12q-15.5 15 -15.5 38q0 21 15.5 36.5t38.5 15.5q22 0 37.5 -15.5t15.5 -36.5q0 -22 -15 -37.5t-38 -15.5t-38.5 15zM71.5 446q-15.5 15 -15.5 38q0 21 15.5 36.5t38.5 15.5q22 0 37.5 -15.5t15.5 -36.5q0 -22 -15 -37.5t-38 -15.5t-38.5 15z" />
    <glyph glyph-name="semicolon" unicode=";" horiz-adv-x="235" 
d="M164 87.5q15 -14.5 15 -41.5q0 -26 -12.5 -59t-50.5 -122l-20 -45h-7l34 178q-21 2 -36 16.5t-15 35.5t15.5 36.5t38.5 15.5t38 -14.5zM80.5 443q-15.5 15 -15.5 38q0 21 15.5 36.5t38.5 15.5q22 0 37.5 -15.5t15.5 -36.5q0 -22 -15 -37.5t-38 -15.5t-38.5 15z" />
    <glyph glyph-name="less" unicode="&#x3c;" horiz-adv-x="490" 
d="M437 108v-21l-410 181v21l410 176v-20l-383 -165v-3z" />
    <glyph glyph-name="equal" unicode="=" horiz-adv-x="437" 
d="M33 347v18h371v-18h-371zM33 167v18h371v-18h-371z" />
    <glyph glyph-name="greater" unicode="&#x3e;" horiz-adv-x="490" 
d="M463 268l-410 -181v21l383 169v3l-383 165v20l410 -176v-21z" />
    <glyph glyph-name="question" unicode="?" horiz-adv-x="410" 
d="M188 145q13 49 46 135q29 73 43 121.5t14 96.5q0 55 -24.5 93.5t-74.5 38.5q-47 0 -65.5 -46t-14.5 -122l-98 -49l-2 3q30 79 70 139.5t77.5 93t60.5 32.5q87 0 122 -47t35 -105q0 -59 -24 -111.5t-74 -128.5q-54 -85 -82 -144h-9zM155.5 12q-15.5 15 -15.5 38
q0 21 15.5 36.5t38.5 15.5q22 0 37.5 -15.5t15.5 -36.5q0 -22 -15 -37.5t-38 -15.5t-38.5 15z" />
    <glyph glyph-name="at" unicode="@" horiz-adv-x="835" 
d="M551.5 -95q41.5 17 73.5 41t95 77l4 -6q-80 -74 -161 -130t-136 -56q-114 1 -200 47.5t-133.5 130.5t-47.5 198q0 136 66.5 245t163 170t179.5 61q94 0 171 -35t122 -101t45 -155q0 -90 -37 -169t-90 -126.5t-98 -47.5q-38 0 -57.5 21.5t-25.5 63.5h-4q-56 -85 -141 -85
q-39 0 -60.5 18t-21.5 47q0 47 43.5 89.5t123.5 96.5q20 12 56 36q0 70 -13.5 98t-54.5 28q-47 -1 -67 -33.5t-17 -98.5l-81 -35l-5 4q25 68 64 113.5t76.5 66.5t58.5 21q64 0 89.5 -35.5t23.5 -86.5l-7 -200q-3 -89 49 -89q35 0 69.5 31.5t57 87.5t22.5 125
q0 87 -43.5 154.5t-118.5 104.5t-165 37q-91 0 -163.5 -46t-113.5 -130.5t-41 -195.5q0 -114 44.5 -197t126 -127.5t189.5 -44.5q49 0 90.5 17zM430.5 106.5q25.5 16.5 49.5 52.5l1 150v6q-76 -48 -110.5 -90t-34.5 -84q0 -23 13 -37t34 -14q22 0 47.5 16.5z" />
    <glyph glyph-name="A" unicode="A" horiz-adv-x="540" 
d="M307 675l220 -669v-6h-181v6l80 37l-65 194h-237q-30 -87 -30 -127q0 -36 19.5 -59t64.5 -45v-6h-168v6l223 603l-21 60v6h95zM244 577l-114 -322h225l-107 322h-4z" />
    <glyph glyph-name="B" unicode="B" horiz-adv-x="600" 
d="M395 353q74 0 124.5 -39t50.5 -116q0 -51 -29 -96t-92.5 -73.5t-161.5 -28.5h-256v6l78 37v589l-78 37v6h297q96 0 150.5 -38t54.5 -107q0 -46 -27 -85t-61.5 -63t-49.5 -25v-4zM193 655v-298l107 1q77 1 110.5 37t33.5 111q0 68 -36.5 108.5t-114.5 40.5h-100zM430 59.5
q46 37.5 46 123.5q0 82 -44 119.5t-149 37.5h-90v-319l91 -1q100 2 146 39.5z" />
    <glyph glyph-name="C" unicode="C" horiz-adv-x="545" 
d="M174 35q-66 45 -104 123t-38 175q0 125 57 204t126.5 114t104.5 35q81 0 134.5 -30t74.5 -74l-70 -126h-6q1 8 1 22q0 79 -50.5 120t-120.5 41q-37 0 -78 -17.5t-73 -70.5t-32 -149q0 -93 33 -172.5t96 -128t147 -48.5q38 0 65.5 10.5t65.5 31.5l4 -9q-50 -34 -110.5 -65
t-79.5 -31q-81 0 -147 45z" />
    <glyph glyph-name="D" unicode="D" horiz-adv-x="623" 
d="M500 591q89 -84 89 -244q0 -88 -35.5 -166.5t-117 -129.5t-211.5 -51h-194v6l78 37v589l-78 37v6h218q162 0 251 -84zM224 18q145 1 210.5 80.5t65.5 239.5q0 153 -66 236t-206 83h-35v-639h31z" />
    <glyph glyph-name="E" unicode="E" horiz-adv-x="588" 
d="M526 221v-221h-495v6l78 37v589l-78 37v6h482v-221h-6l-23 61q-26 74 -39 100.5t-31 34t-61 7.5h-160v-306h103q27 0 41.5 8.5t23.5 25t25 57.5l13 34h6v-268h-6l-14 35q-15 40 -24.5 56.5t-23.5 25t-41 8.5h-103v-315h173q43 0 61 7.5t31 33.5t39 101l23 61h6z" />
    <glyph glyph-name="F" unicode="F" horiz-adv-x="548" 
d="M516 454h-6q-18 46 -23 61q-26 74 -39 100.5t-31 34t-61 7.5h-159v-317h124q27 0 41 8.5t23.5 25.5t25.5 57l14 36h6v-273h-6q-4 9 -7.5 18.5t-7.5 18.5q-16 40 -25 57t-23.5 25.5t-40.5 8.5h-124v-281l81 -35v-6h-246v6l80 35l1 591l-78 37v6h481v-221z" />
    <glyph glyph-name="G" unicode="G" horiz-adv-x="603" 
d="M241 336h292l6 -5l-4 -345h-6l-47 89h-3q-34 -29 -87 -57t-74 -28q-80 0 -145.5 45t-103 123t-37.5 173q0 127 58.5 206.5t129 114t104.5 34.5q81 0 139 -31t79 -74l-69 -127h-6q2 9 2 26q0 46 -25 82.5t-66.5 57t-88.5 20.5q-37 0 -79 -18t-74.5 -70.5t-32.5 -147.5
t33 -176t92 -129t134 -48q30 0 50.5 5.5t42.5 17.5v225l-214 31v6z" />
    <glyph glyph-name="H" unicode="H" horiz-adv-x="660" 
d="M629 675v-6l-81 -35v-593l81 -35v-6h-246v6l80 35v286h-266v-286l80 -35v-6h-246v6l80 35v593l-80 35v6h246v-6l-80 -35v-289h266v289l-80 35v6h246z" />
    <glyph glyph-name="I" unicode="I" horiz-adv-x="308" 
d="M111 41v593l-80 35v6h246v-6l-80 -35v-593l80 -35v-6h-246v6z" />
    <glyph glyph-name="J" unicode="J" horiz-adv-x="406" 
d="M312 158q0 -21 -27.5 -63.5t-66 -75.5t-70.5 -33q-52 0 -86.5 22.5t-57.5 63.5l74 139l5 -2q-8 -21 -8 -51q0 -34 12 -67t32.5 -53.5t44.5 -20.5q21 0 34.5 11t22 49.5t6.5 115.5v441l-81 35v6h246v-6l-80 -35v-476z" />
    <glyph glyph-name="K" unicode="K" horiz-adv-x="565" 
d="M283 402l267 -396v-6h-202v6l82 37l-207 297l-26 -27v-272l80 -35v-6h-246v6l80 35v593l-80 35v6h246v-6l-80 -35v-293l173 179q45 48 45 82q0 22 -15 38t-43 29v6h187v-6z" />
    <glyph glyph-name="L" unicode="L" horiz-adv-x="535" 
d="M505 229v-229h-470v6l78 37l-1 591l-80 35v6h246v-6l-81 -35v-616h159q39 0 57.5 12t32.5 45t43 123l10 31h6z" />
    <glyph glyph-name="M" unicode="M" horiz-adv-x="697" 
d="M637 675v-6l-29 -37v-632h-162v6l78 37l-1 558h-5l-188 -448h-7l-206 422h-5v-337q0 -81 11.5 -122t39 -63t87.5 -46v-7h-160v620l-29 49v6h99l193 -398h6l165 398h113z" />
    <glyph glyph-name="N" unicode="N" horiz-adv-x="621" 
d="M372 675h163v-683h-36l-380 585h-5v-337q0 -78 12 -119t40.5 -64.5t89.5 -49.5v-7h-164v615l-42 54v6h107l351 -540v1h5v297q0 77 -12 118.5t-41 66.5t-88 50v7z" />
    <glyph glyph-name="O" unicode="O" horiz-adv-x="610" 
d="M162 37.5q-63 48.5 -95.5 128t-32.5 170.5q0 119 49.5 197.5t113 115t102.5 36.5q86 0 149 -48.5t95.5 -128t32.5 -170.5q0 -119 -49.5 -197.5t-113 -115t-102.5 -36.5q-86 0 -149 48.5zM458.5 95.5q44.5 55.5 44.5 170.5q0 14 -2 46q-7 89 -39 162.5t-84 116.5t-116 43
q-68 0 -113 -55.5t-45 -171.5q0 -26 1 -40q7 -90 39 -165t85 -118.5t117 -43.5q68 0 112.5 55.5z" />
    <glyph glyph-name="P" unicode="P" horiz-adv-x="558" 
d="M197 275v-234l81 -35v-6h-246v6l80 35l1 591l-78 37v6h259q115 0 181.5 -45.5t66.5 -137.5q0 -56 -29 -105.5t-91.5 -80.5t-155.5 -31h-69zM197 657v-364h55q103 0 152.5 44.5t49.5 139.5q0 86 -48 133t-140 47h-69z" />
    <glyph glyph-name="Q" unicode="Q" horiz-adv-x="610" 
d="M415 -106q28 0 43 9t22 24t16 47l6 21h6v-156l-4 -4h-379v6l209 148l-1 2l3 2q-13 -4 -25 -4q-86 0 -149 48.5t-95.5 128t-32.5 170.5q0 119 49.5 197.5t113 115t102.5 36.5q86 0 149 -48.5t95.5 -128t32.5 -170.5q0 -112 -44.5 -188t-110.5 -120l8 4l-196 -138v-2h182z
M144 202q32 -75 85 -118.5t117 -43.5q67 0 112 56t45 171q0 13 -2 45q-7 89 -39 162.5t-84 116.5t-116 43q-68 0 -113 -55.5t-45 -171.5q0 -26 1 -40q7 -90 39 -165z" />
    <glyph glyph-name="R" unicode="R" horiz-adv-x="597" 
d="M368 335l208 -328v-7h-199v6l81 37l-177 284h-84v-286l81 -35v-6h-246v6l80 35l1 591l-78 37v6h273q115 0 176 -37.5t61 -112.5q0 -124 -179 -190h2zM197 345h93q78 0 120 43t42 120q0 149 -163 149h-92v-312z" />
    <glyph glyph-name="S" unicode="S" horiz-adv-x="554" 
d="M315 374l24 -12q57 -28 91 -49.5t56 -54.5t22 -80q0 -51 -26 -94.5t-76.5 -70t-122.5 -26.5q-37 0 -66 6t-69 18q-6 2 -30.5 9t-47.5 10l-26 262l8 1q33 -153 116 -210.5t169 -57.5q69 0 99.5 27.5t30.5 71.5q0 36 -22 64t-54 47.5t-87 45.5l-21 10l-46 25
q-56 27 -88.5 47.5t-55.5 55.5t-23 87q0 56 27.5 96t74 60t101.5 20q48 0 90 -15t71 -40l36 54h6v-257h-6q-37 105 -100.5 162.5t-149.5 57.5q-50 0 -81.5 -23.5t-31.5 -66.5q0 -35 21 -61.5t53.5 -46.5t90.5 -49z" />
    <glyph glyph-name="T" unicode="T" horiz-adv-x="534" 
d="M510 454h-6l-19 54q-29 81 -41 107.5t-26 34t-48 7.5h-60v-616l80 -35v-6h-246v6l81 35v616h-60q-35 0 -49 -7.5t-26 -34t-41 -108.5q-9 -27 -18 -53h-6v221h485v-221z" />
    <glyph glyph-name="U" unicode="U" horiz-adv-x="644" 
d="M544 43l78 -37v-6h-162v84q-48 -39 -97.5 -67t-68.5 -28q-94 0 -147 51.5t-53 153.5l1 438l-78 37v6h162v-467q0 -84 40 -122.5t104 -38.5q42 0 71.5 14t65.5 43l1 528l-78 37v6h162z" />
    <glyph glyph-name="V" unicode="V" horiz-adv-x="534" 
d="M348 675h173v-6l-251 -682h-7l-253 682v6h186v-6l-80 -37l181 -499h7l105 303q30 83 30 127q0 39 -21.5 62.5t-69.5 43.5v6z" />
    <glyph glyph-name="W" unicode="W" horiz-adv-x="695" 
d="M512 675h170v-6l-201 -682h-6l-120 390h-3l-124 -390h-6l-212 682v6h177v-6l-80 -37l148 -486h6l63 229q12 39 12 63q0 28 -17.5 44.5t-61.5 35.5v6h223v-6l-77 -37l100 -335h6l92 336q11 41 11 67q0 46 -25 72.5t-75 47.5v6z" />
    <glyph glyph-name="X" unicode="X" horiz-adv-x="546" 
d="M307 366l224 -360v-6h-198v6l81 37l-166 264l-85 -129q-39 -55 -39 -89q0 -26 20.5 -46.5t64.5 -36.5v-6h-188v6l216 319l-216 344v6h201v-6l-81 -37l154 -247l75 113q45 62 45 98q0 23 -17.5 41t-55.5 32v6h172v-7z" />
    <glyph glyph-name="Y" unicode="Y" horiz-adv-x="509" 
d="M504 669l-207 -396v-232l81 -35v-6h-246v6l80 35v233l-208 395v6h192v-6l-81 -37l170 -330l2 -5l78 149q24 47 36 79.5t12 56.5q0 31 -19.5 52t-62.5 35v6h173v-6z" />
    <glyph glyph-name="Z" unicode="Z" horiz-adv-x="536" 
d="M490 221v-221h-451v6l350 651h-172q-44 0 -62 -7.5t-31.5 -33.5t-39.5 -101q-5 -15 -23 -61h-6v221h433v-6l-345 -651h185q43 0 61.5 7.5t31.5 34t39 100.5l24 61h6z" />
    <glyph glyph-name="bracketleft" unicode="[" horiz-adv-x="256" 
d="M83 -250v999h151v-6l-78 -36l-2 -914l77 -37v-6h-148z" />
    <glyph glyph-name="backslash" unicode="\" horiz-adv-x="286" 
d="M-13 750h20l292 -1000h-20z" />
    <glyph glyph-name="bracketright" unicode="]" horiz-adv-x="257" 
d="M173 749v-999h-148v6l77 37l-2 914l-78 36v6h151z" />
    <glyph glyph-name="asciicircum" unicode="^" horiz-adv-x="361" 
d="M52 445h-7l136 309h3l131 -309h-7l-127 191h-3z" />
    <glyph glyph-name="underscore" unicode="_" horiz-adv-x="603" 
d="M51 -25v18h500v-18h-500z" />
    <glyph glyph-name="grave" unicode="`" horiz-adv-x="200" 
d="M0 744v6h90l90 -181h-7z" />
    <glyph glyph-name="a" unicode="a" horiz-adv-x="484" 
d="M496 115l3 -5q-21 -21 -40 -43q-34 -38 -55 -56.5t-38 -18.5q-13 0 -22 7.5t-17.5 33.5t-15.5 77q-43 -65 -81 -93t-90 -28q-49 0 -75 23t-26 62q0 55 52.5 106.5t145.5 112.5l74 45q1 72 -16.5 112.5t-70.5 40.5q-50 0 -78 -34t-28 -94q0 -8 2 -30l-95 -43l-3 2
q33 86 79.5 141.5t90 80t67.5 24.5q79 0 109 -46.5t26 -116.5l-7 -264v-56zM244.5 64q32.5 23 64.5 70l2 181q-97 -61 -141 -110t-44 -97q0 -31 16 -49t42 -18q28 0 60.5 23z" />
    <glyph glyph-name="b" unicode="b" horiz-adv-x="488" 
d="M412.5 465q56.5 -67 56.5 -191q0 -95 -39 -159t-88 -94.5t-78 -30.5q-54 0 -92 22t-56 59l-39 -87h-6l2 727l-92 3v6l166 41h6v-301q36 32 69.5 53t44.5 21q89 -2 145.5 -69zM361.5 69.5q34.5 43.5 34.5 161.5q0 69 -19.5 125t-55 88t-81.5 32q-45 0 -88 -35v-252
q1 -76 35.5 -119.5t92.5 -43.5q47 0 81.5 43.5z" />
    <glyph glyph-name="c" unicode="c" horiz-adv-x="406" 
d="M133 18.5q-52 29.5 -82.5 87.5t-30.5 140q0 101 41.5 166t94 94.5t83.5 29.5q51 0 86.5 -20t53 -48.5t18.5 -53.5l-82 -81l-4 2q3 15 3 31q0 54 -30.5 90.5t-75.5 36.5q-50 0 -87.5 -38.5t-37.5 -136.5q0 -77 26.5 -138t75 -95.5t111.5 -34.5q24 0 43 7.5t35 16.5t21 12
l4 -6q-108 -91 -149 -91q-65 0 -117 29.5z" />
    <glyph glyph-name="d" unicode="d" horiz-adv-x="503" 
d="M514 114l3 -5q-20 -20 -40 -43q-34 -38 -55 -56.5t-38 -18.5t-30 18.5t-22 78.5q-35 -37 -72.5 -66.5t-48.5 -29.5q-85 3 -138 65t-53 175q0 101 40 167.5t90.5 97.5t78.5 31q58 0 98 -14v197l-93 3v6l165 41h6v-707zM283.5 68.5q25.5 16.5 43.5 41.5v342q-40 42 -99 42
q-56 0 -96.5 -45.5t-40.5 -161.5q0 -69 17 -122t48 -83t72 -30q30 0 55.5 16.5z" />
    <glyph glyph-name="e" unicode="e" horiz-adv-x="421" 
d="M399 79q-107 -90 -148 -90q-65 0 -117.5 29.5t-83 87.5t-30.5 140q0 101 42 166t94.5 94.5t83.5 29.5q150 0 152 -168q0 -9 -18 -23.5t-40 -26.5t-31 -12h-219q2 -75 28.5 -133t74 -90.5t109.5 -32.5q27 0 46.5 8.5t52.5 27.5zM123 455.5q-37 -37.5 -39 -131.5h231
q5 82 -26 125.5t-79 43.5q-50 0 -87 -37.5z" />
    <glyph glyph-name="f" unicode="f" horiz-adv-x="333" 
d="M410 688l-52 -94l-5 2q0 37 -20 67.5t-52 48t-65 17.5q-39 0 -60.5 -23.5t-21.5 -64.5q0 -46 41 -117h153v-35q-23 0 -104 9l-49 6v-470l82 -27v-6h-243v6l82 27v468l-82 16v6h82l-2 46q-4 72 24 116.5t66.5 62.5t65.5 18q106 0 160 -79z" />
    <glyph glyph-name="g" unicode="g" horiz-adv-x="497" 
d="M534 491q-36 0 -89.5 6.5t-96.5 15.5l-1 -3q42 -24 62 -60t20 -80q0 -58 -33 -102.5t-76 -69.5t-68 -25q-66 0 -111 27q-25 -24 -37 -39.5t-12 -34.5q0 -26 19.5 -43.5t63.5 -20.5l163 -12q65 -4 107.5 -24.5t42.5 -78.5q0 -31 -19.5 -78t-76.5 -86.5t-159 -39.5
q-90 0 -156.5 33.5t-72.5 90.5q-1 7 17.5 24.5t88.5 78.5q19 15 32 27q-54 7 -88 32.5t-34 66.5q0 6 38 41q53 53 70 72q-62 45 -62 133q0 58 33 102.5t76 69t68 24.5q5 0 45 -4q90 -10 129 -10h117v-33zM344.5 412.5q-18.5 40.5 -51.5 63t-74 22.5q-39 -1 -64.5 -27.5
t-25.5 -82.5q0 -50 18.5 -90.5t50.5 -63t70 -22.5q42 0 68.5 26t26.5 81q0 53 -18.5 93.5zM417 -38.5q-47 17.5 -126 24.5l-131 9q-78 -57 -78 -97q0 -27 28 -50t75.5 -36t104.5 -13q53 0 92.5 14t60.5 37.5t21 50.5q0 43 -47 60.5z" />
    <glyph glyph-name="h" unicode="h" horiz-adv-x="518" 
d="M439 33l82 -27v-6h-243v6l82 27v329q0 56 -28.5 84t-70.5 28q-48 0 -97 -69v-372l82 -27v-6h-242v6l82 27v678l-93 3v6l165 41h6v-327q38 46 73 72.5t51 26.5q68 0 109 -40t41 -129z" />
    <glyph glyph-name="i" unicode="i" horiz-adv-x="257" 
d="M96 33v456l-82 29v6h161v-35l-1 -456l82 -27v-6h-242v6zM93.5 639q-15.5 15 -15.5 38q0 21 15.5 36t38.5 15q22 0 37 -15t15 -36q0 -23 -14.5 -38t-37.5 -15t-38.5 15z" />
    <glyph glyph-name="j" unicode="j" horiz-adv-x="234" 
d="M138.5 -74q-27.5 -45 -62.5 -78t-87 -74l-35 -28l-4 8q55 50 96.5 120.5t41.5 149.5v465l-82 29v6h160v-503q0 -50 -27.5 -95zM83.5 639q-15.5 15 -15.5 38q0 21 15.5 36t38.5 15q22 0 37 -15t15 -36q0 -23 -14.5 -38t-37.5 -15t-38.5 15z" />
    <glyph glyph-name="k" unicode="k" horiz-adv-x="480" 
d="M263 326l215 -320v-6h-187v6l79 25l-166 240l-40 -37v-201l82 -27v-6h-242v6l82 27v678l-93 3v6l165 41h6v-504l149 143q38 35 38 60q0 33 -70 58v6h188v-6z" />
    <glyph glyph-name="l" unicode="l" horiz-adv-x="250" 
d="M164 33l82 -27v-6h-242v6l82 27v678l-93 3v6l165 41h6v-728z" />
    <glyph glyph-name="m" unicode="m" horiz-adv-x="810" 
d="M731 33l82 -27v-6h-243v6l82 27v329q0 56 -28.5 84t-70.5 28q-49 0 -98 -71q2 -24 2 -39v-331l82 -27v-6h-242v6l82 27v329q0 56 -28.5 84t-70.5 28q-47 0 -96 -67v-374l82 -27v-6h-242v6l82 27v439l-109 -60l-3 5q15 14 41 44q32 36 53.5 54.5t38.5 18.5q12 0 21 -6.5
t17 -29t15 -67.5q39 48 74.5 75t52.5 27q54 0 91.5 -25.5t51.5 -80.5q41 49 77.5 77.5t52.5 28.5q68 0 109 -40t41 -129z" />
    <glyph glyph-name="n" unicode="n" horiz-adv-x="536" 
d="M457 33l82 -27v-6h-242v6l82 27v329q0 56 -28.5 84t-70.5 28q-47 0 -96 -67v-374l82 -27v-6h-242v6l82 27v439l-109 -60l-3 5q15 14 41 44q32 36 53.5 54.5t38.5 18.5q12 0 21 -6.5t17 -29t15 -67.5q39 48 74.5 75t52.5 27q68 0 109 -40t41 -129v-331z" />
    <glyph glyph-name="o" unicode="o" horiz-adv-x="453" 
d="M125 18q-48 29 -76.5 85.5t-28.5 136.5q0 103 38 169t86 95.5t78 29.5q58 0 106 -29t76.5 -85.5t28.5 -136.5q0 -104 -38 -170t-86 -95t-78 -29q-58 0 -106 29zM335.5 74q31.5 38 31.5 128q0 22 -1 34q-5 75 -29 132t-62 88t-86 31q-40 0 -72 -39t-32 -130q0 -20 1 -31
q5 -75 29 -132t62.5 -88t86.5 -31q40 0 71.5 38z" />
    <glyph glyph-name="p" unicode="p" horiz-adv-x="501" 
d="M428 468q53 -62 53 -175q0 -101 -40 -167.5t-90.5 -97.5t-78.5 -31q-58 0 -98 14v-228l82 -27v-6h-242v6l82 27v688l-110 -59l-3 5q19 18 43 45q32 36 53 54t38 18q18 0 30 -18.5t21 -79.5q37 38 74.5 67.5t47.5 29.5q85 -3 138 -65zM369 76.5q40 45.5 40 161.5
q0 69 -16.5 122t-47.5 83t-72 30q-31 0 -56 -16.5t-43 -41.5v-342q40 -42 99 -42q56 0 96 45.5z" />
    <glyph glyph-name="q" unicode="q" horiz-adv-x="488" 
d="M415 -217l82 -27v-6h-242v6l82 27v282q-37 -32 -71 -53t-44 -21q-90 2 -146 69t-56 191q0 96 39 160t88 94t78 30q49 0 84.5 -18t55.5 -49h4l48 79h7l-9 -137v-627zM337 86v246q0 78 -35 122.5t-94 44.5q-47 0 -81.5 -43.5t-34.5 -161.5q0 -69 19.5 -125t55.5 -88t82 -32
q47 0 88 37z" />
    <glyph glyph-name="r" unicode="r" horiz-adv-x="415" 
d="M433 485l-14 -19q-17 -26 -32 -41t-30 -15q-11 0 -23 7t-30 21q-19 15 -30 21.5t-23 6.5q-15 0 -33 -21.5t-34 -52.5v-359l82 -27v-6h-242v6l82 27v439l-109 -60l-3 5q15 14 41 44q32 36 53.5 54.5t38.5 18.5q13 0 22 -7t17 -32t15 -75q26 39 58.5 77t40.5 38
q9 0 20.5 -6.5t32.5 -21.5q23 -17 37 -25t26 -8q8 0 16 3.5t12 6.5t6 4z" />
    <glyph glyph-name="s" unicode="s" horiz-adv-x="429" 
d="M256 296q66 -35 101 -70.5t35 -92.5q0 -61 -42.5 -102.5t-125.5 -41.5q-24 0 -44.5 3.5t-37.5 7.5t-23 5q-39 11 -64 13l-27 226h8q20 -85 62.5 -135.5t89.5 -70.5t85 -20q36 0 58.5 19t22.5 53q0 36 -32 64.5t-102 64.5l-44 26q-60 32 -91.5 65t-31.5 84q0 64 46 104
t118 40q33 0 66 -9.5t56 -29.5l26 34h6l-1 -227h-7q-22 90 -71 147t-120 57q-37 0 -57 -19.5t-20 -49.5q0 -37 29 -62t87 -56z" />
    <glyph glyph-name="t" unicode="t" horiz-adv-x="299" 
d="M296 78q-35 -37 -73 -63t-55 -26q-42 0 -65.5 29t-23.5 84l-1 399l-79 17v6h83l71 119h5l-2 -119h133v-35q-18 0 -74 7l-59 7v-393q0 -65 59 -65q18 0 34.5 7.5t42.5 30.5z" />
    <glyph glyph-name="u" unicode="u" horiz-adv-x="530" 
d="M545 113l3 -5q-15 -14 -41 -44q-32 -36 -53.5 -54.5t-38.5 -18.5q-19 0 -31.5 20t-21.5 88q-41 -51 -79 -80.5t-55 -29.5q-67 0 -108 40t-41 129v331l-82 29v6h160v-364q0 -56 28 -83.5t70 -27.5q49 0 102 75v365l-82 29v6h161v-471z" />
    <glyph glyph-name="v" unicode="v" horiz-adv-x="419" 
d="M259 524h159v-6l-208 -544h-5l-204 544v6h173v-6l-82 -29l143 -388h6l71 197q31 87 31 130q0 35 -19.5 54t-64.5 36v6z" />
    <glyph glyph-name="w" unicode="w" horiz-adv-x="669" 
d="M515 524h154v-6l-192 -544h-5l-134 397h-5l-135 -397h-5l-192 544v6h172v-6l-81 -29l130 -375h6l60 186q14 48 20.5 75.5t6.5 49.5q0 35 -19 57t-64 36v6h226v-6l-81 -29l127 -375h6l61 186q15 45 22 73t7 49q0 33 -19.5 54.5t-65.5 41.5v6z" />
    <glyph glyph-name="x" unicode="x" horiz-adv-x="439" 
d="M253 284l180 -277v-7h-192v6l85 29l-128 197l-46 -63q-29 -41 -41.5 -62.5t-12.5 -40.5t17.5 -34t56.5 -26v-6h-165v6l180 243l-175 269v6h192v-6l-85 -29l123 -189l39 53q26 36 38.5 61t12.5 42q0 21 -17 35.5t-53 26.5v6h163v-6z" />
    <glyph glyph-name="y" unicode="y" horiz-adv-x="419" 
d="M259 524h159v-6l-280 -768h-92v6l154 231l-199 531v6h180v-6l-88 -28l142 -389h6l71 197q31 87 31 130q0 35 -19.5 54t-64.5 36v6z" />
    <glyph glyph-name="z" unicode="z" horiz-adv-x="451" 
d="M411 518l-287 -499h107q54 0 80 14.5t39.5 47t35.5 112.5l13 46h6l1 -237l-3 -2h-368l2 1l-6 -1v6l285 500h-101q-53 0 -78.5 -12.5t-38.5 -38t-31 -87.5l-16 -54h-6l-1 207l3 3h364v-6z" />
    <glyph glyph-name="braceleft" unicode="{" horiz-adv-x="327" 
d="M-8 260q60 0 112 22t52 82q0 21 -5 38l-35 135q-11 40 -11 82q0 63 27.5 101t72.5 38q14 0 51 -18t66 -37l-5 -7q-4 2 -15.5 8t-24 10t-24.5 4q-39 0 -58 -27t-19 -72q0 -34 11 -73l33 -119q9 -33 9 -59q0 -62 -43 -87t-112 -28v-6q155 -4 155 -113q0 -25 -9 -58
l-33 -121q-11 -39 -11 -74q0 -43 19 -70t57 -27q15 0 28.5 5t23.5 10t13 7l5 -6q-29 -20 -66 -38.5t-51 -18.5q-45 0 -72.5 38.5t-27.5 101.5q0 41 11 81l35 136q5 18 5 37q0 61 -52 83t-112 22v18z" />
    <glyph glyph-name="bar" unicode="|" horiz-adv-x="232" 
d="M126 -251h-20v1005h20v-1005z" />
    <glyph glyph-name="braceright" unicode="}" horiz-adv-x="328" 
d="M336 242q-60 0 -112.5 -22t-52.5 -84q0 -14 5 -36l36 -136q11 -40 11 -80q0 -64 -28 -102.5t-73 -38.5q-14 0 -51 18.5t-66 38.5l5 6q3 -2 15.5 -8t25 -10t24.5 -4q39 0 57.5 26.5t18.5 70.5q0 35 -11 74l-33 121q-9 33 -9 58q0 109 155 113v6q-69 3 -112 28t-43 88
q0 25 9 58l33 119q11 39 11 73q0 45 -19 72t-58 27q-15 0 -27.5 -5t-22.5 -10l-14 -7l-5 7q29 19 66 37t51 18q45 0 73 -38.5t28 -101.5q0 -41 -11 -81l-36 -135q-5 -17 -5 -37q0 -61 52 -83t113 -22v-18z" />
    <glyph glyph-name="asciitilde" unicode="~" horiz-adv-x="523" 
d="M470 337q-23 -50 -51.5 -81.5t-55.5 -31.5q-20 0 -49.5 10t-70.5 28q-41 17 -65.5 25t-39.5 8q-20 0 -40 -10.5t-42 -45.5l-4 3q55 112 105 112q19 0 46 -9t71 -27q43 -18 67.5 -26t41.5 -8q22 0 41 9.5t42 46.5z" />
    <glyph glyph-name="exclamdown" unicode="&#xa1;" horiz-adv-x="271" 
d="M173.5 513q14.5 -15 14.5 -38q0 -21 -15 -36t-37 -15q-23 0 -38.5 15t-15.5 36q0 23 15.5 38t38.5 15t37.5 -15zM139 380l6 -67q30 -295 37 -467h-95q6 149 35 441l9 93h8z" />
    <glyph glyph-name="cent" unicode="&#xa2;" horiz-adv-x="406" 
d="M399 80q-108 -91 -149 -91h-5v-138h-20v139q-91 9 -148 75t-57 181q0 93 36 155.5t83.5 94t85.5 38.5v145h20v-143q49 -1 83.5 -21.5t51 -48.5t17.5 -52l-82 -81l-4 2q3 15 3 31q0 54 -30.5 90.5t-75.5 36.5q-50 0 -87.5 -38.5t-37.5 -136.5q0 -77 26.5 -138t75 -95.5
t111.5 -34.5q24 0 43 7.5t35 16.5t21 12z" />
    <glyph glyph-name="sterling" unicode="&#xa3;" horiz-adv-x="570" 
d="M396 74q29 0 43.5 9.5t23.5 31.5t24 75h6v-185l-5 -5h-428v7l59 56q36 33 57 60t21 63q0 23 -9 42.5t-29 47.5q-24 34 -32 52h-98v18h90q-13 34 -13 76q0 79 43.5 138t99.5 90.5t89 31.5q54 0 89.5 -20t52 -48.5t18.5 -55.5l-80 -87l-4 2q2 11 2 31q0 61 -36 98t-86 37
q-54 0 -85 -42t-31 -109q0 -70 36 -142h176v-18h-167q12 -21 25.5 -41t17.5 -26q23 -30 23 -38q0 -12 -33 -46t-105 -103h245z" />
    <glyph glyph-name="yen" unicode="&#xa5;" horiz-adv-x="509" 
d="M504 675v-6l-163 -312h146v-18h-155l-35 -66v-25h191v-18h-191v-189l81 -35v-6h-246v6l80 35v189h-191v18h191v26l-34 65h-157v18h147l-164 312v6h192v-6l-81 -37l170 -330l2 -5l78 149q24 47 36 79.5t12 56.5q0 31 -19.5 52t-62.5 35v6h173z" />
    <glyph glyph-name="brokenbar" unicode="&#xa6;" horiz-adv-x="232" 
d="M126 338h-20v416h20v-416zM106 158h20v-409h-20v409z" />
    <glyph glyph-name="section" unicode="&#xa7;" horiz-adv-x="476" 
d="M389 88.5q20 -29.5 20 -71.5q0 -62 -44.5 -103.5t-129.5 -41.5q-30 0 -55.5 4.5t-61.5 12.5q-41 11 -66 13l-20 203h6q25 -112 91.5 -161t142.5 -49q45 0 70.5 22t25.5 56q0 43 -34 69.5t-103 57.5l-47 22q-74 33 -113.5 67.5t-39.5 91.5q0 50 32.5 87t85.5 47
q-42 24 -65 53.5t-23 72.5q0 62 48.5 101.5t121.5 40.5q88 0 133 -39l24 35h5v-225h-7q-23 90 -70.5 146t-119.5 56q-40 0 -65.5 -19.5t-25.5 -54.5q0 -36 30.5 -60t94.5 -53l51 -25q75 -34 116.5 -70.5t41.5 -96.5q0 -45 -27 -82t-80 -53q37 -24 57 -53.5zM243 187
q40 -18 68 -33q40 4 61.5 26t21.5 53q0 44 -39.5 75.5t-111.5 61.5l-38 18l-29 13q-41 2 -68.5 -20.5t-27.5 -58.5q0 -35 31 -62t91 -54z" />
    <glyph glyph-name="dieresis" unicode="&#xa8;" horiz-adv-x="365" 
d="M59 617q-12 12 -12 30t12 30t31 12q18 0 30 -12.5t12 -29.5q0 -18 -12 -30t-30 -12q-19 0 -31 12zM244 617q-12 12 -12 30t12 30t31 12q18 0 30 -12.5t12 -29.5q0 -18 -12 -30t-30 -12q-19 0 -31 12z" />
    <glyph glyph-name="copyright" unicode="&#xa9;" horiz-adv-x="798" 
d="M220 34.5q-80 45.5 -126 125t-46 178.5q0 97 46 176.5t126.5 125.5t178.5 46q99 0 179 -45t126 -124.5t46 -178.5q0 -97 -46 -177t-126.5 -126t-178.5 -46q-99 0 -179 45.5zM567 51q75 43 117.5 118.5t42.5 168.5t-42.5 168t-117.5 118t-168 43t-168 -43t-117.5 -118
t-42.5 -168t42.5 -168.5t117.5 -118.5t168 -43t168 43zM305 145.5q-43 29.5 -67.5 80.5t-24.5 114q0 82 37 134.5t82.5 76t67.5 23.5q53 0 87.5 -19.5t48.5 -48.5l-44 -85l-7 3q2 18 2 24q0 47 -29.5 70t-75.5 23q-43 0 -84 -34t-41 -129q0 -62 20.5 -112.5t59.5 -80.5
t93 -30q25 0 44.5 7t44.5 21l4 -7q-34 -22 -72.5 -41t-50.5 -19q-52 0 -95 29.5z" />
    <glyph glyph-name="ordfeminine" unicode="&#xaa;" horiz-adv-x="436" 
d="M424 348l3 -4q-12 -12 -34 -38q-30 -33 -46.5 -47.5t-31.5 -14.5q-18 0 -29.5 19t-17.5 80q-33 -53 -65.5 -77t-74.5 -24q-40 0 -62.5 19.5t-22.5 51.5q0 48 43 88t118 88l64 38q0 59 -15 92.5t-57 33.5q-37 -1 -58 -27t-21 -73q0 -20 2 -31l-86 -35l-2 2q29 74 69 119.5
t76 64.5t56 19q68 0 91 -39t21 -101l-6 -209v-42zM214.5 308q25.5 18 51.5 54l2 146q-76 -48 -111 -87t-35 -77q0 -25 13 -39.5t33 -14.5q21 0 46.5 18z" />
    <glyph glyph-name="guillemotleft" unicode="&#xab;" horiz-adv-x="435" 
d="M237 12l-6 -1l-199 245v3l199 225l6 -1l-128 -224v-3zM403 12l-6 -1l-199 245v3l199 225l6 -1l-128 -224v-3z" />
    <glyph glyph-name="logicalnot" unicode="&#xac;" horiz-adv-x="496" 
d="M383 297h-350v18h371v-215h-21v197z" />
    <glyph glyph-name="registered" unicode="&#xae;" horiz-adv-x="798" 
d="M578 641q80 -45 126 -124.5t46 -178.5q0 -97 -46 -177t-126.5 -126t-178.5 -46q-99 0 -179 45.5t-126 125t-46 178.5q0 97 46 176.5t126.5 125.5t178.5 46q99 0 179 -45zM567 51q75 43 117.5 118.5t42.5 168.5t-42.5 168t-117.5 118t-168 43t-168 -43t-117.5 -118
t-42.5 -168t42.5 -168.5t117.5 -118.5t168 -43t168 43zM403 337l34 2l131 -204v-5h-110v5l44 18l-118 186h-56v-183l52 -21v-5h-153v5l53 21v377l-54 21v6h174q148 0 148 -96q0 -42 -31 -72.5t-91 -52.5h-23v-2zM328 354h62q50 0 77.5 24.5t27.5 73.5q0 44 -24.5 67.5
t-81.5 23.5h-61v-189z" />
    <glyph glyph-name="macron" unicode="&#xaf;" horiz-adv-x="427" 
d="M58 600v35h311v-35h-311z" />
    <glyph glyph-name="degree" unicode="&#xb0;" horiz-adv-x="361" 
d="M92 470q-34 34 -34 89q0 52 35 87.5t88 35.5q55 0 88.5 -34t33.5 -89q0 -51 -35 -87t-87 -36q-55 0 -89 34zM252 485q27 28 27 74t-27 74t-71 28t-71.5 -28t-27.5 -74t27.5 -74t71.5 -28t71 28z" />
    <glyph glyph-name="plusminus" unicode="&#xb1;" horiz-adv-x="482" 
d="M251 474v-126h176v-18h-176v-127h-19v127h-176v18h176v126h19zM427 150h-371v18h371v-18z" />
    <glyph glyph-name="uni00B2" unicode="&#xb2;" horiz-adv-x="298" 
d="M264 513v-101l-4 -3h-241l1 1v5l102 109q35 38 53.5 71t18.5 67q0 67 -61 67q-23 -1 -34.5 -17.5t-11.5 -44.5q0 -8 2 -24l-69 -28l-2 4q20 45 47 75.5t52 45.5t40 15q51 0 74.5 -21t23.5 -54q0 -34 -27.5 -71t-96.5 -101l-51 -48v-2h126q23 0 32.5 10.5t19.5 44.5h6z
" />
    <glyph glyph-name="uni00B3" unicode="&#xb3;" horiz-adv-x="292" 
d="M269 744l-126 -121l1 -3q17 3 30 3q43 0 68 -20.5t25 -54.5q0 -30 -25 -63.5t-77 -55.5t-129 -19l1 62l3 3q25 -16 50 -23.5t44 -7.5q39 0 67.5 14.5t28.5 50.5q0 35 -27 52.5t-72 17.5q-24 0 -45 -4l-3 6l118 119h-112q-17 0 -26 -10.5t-17 -42.5h-6v100l2 2h227v-5z
" />
    <glyph glyph-name="acute" unicode="&#xb4;" horiz-adv-x="200" 
d="M110 750h89v-6l-172 -175h-8z" />
    <glyph glyph-name="paragraph" unicode="&#xb6;" horiz-adv-x="548" 
d="M497 669l-78 -37v-589l78 -37v-6h-128v657h-111v-657h-127v6l77 37l-1 340h-28q-41 0 -75 19t-53.5 52.5t-19.5 73.5q0 41 19.5 74.5t53.5 53t76 19.5h317v-6z" />
    <glyph glyph-name="periodcentered" unicode="&#xb7;" horiz-adv-x="219" 
d="M71.5 12q-15.5 15 -15.5 38q0 21 15.5 36.5t38.5 15.5q22 0 37.5 -15.5t15.5 -36.5q0 -22 -15 -37.5t-38 -15.5t-38.5 15z" />
    <glyph glyph-name="cedilla" unicode="&#xb8;" horiz-adv-x="188" 
d="M99 9h14l-38 -69q37 -8 62.5 -30.5t25.5 -55.5q0 -36 -33 -67.5t-94 -49.5l-1 5q74 25 74 77q0 27 -22 43.5t-59 18.5l-1 6z" />
    <glyph glyph-name="uni00B9" unicode="&#xb9;" horiz-adv-x="196" 
d="M131 432l42 -17v-6h-143v6l42 17v283l-49 3v6l105 29h3v-321z" />
    <glyph glyph-name="ordmasculine" unicode="&#xba;" horiz-adv-x="424" 
d="M125.5 265.5q-40.5 24.5 -64 71.5t-23.5 112q0 85 32 139t72.5 77.5t65.5 23.5q50 0 90 -24t63.5 -71t23.5 -112q0 -85 -32 -139t-72.5 -78t-64.5 -24q-50 0 -90.5 24.5zM301 314q21 31 21 95q0 12 -2 40q-10 92 -48.5 148t-103.5 54q-23 -3 -45 -34t-22 -96q0 -11 2 -39
q9 -94 49 -149.5t104 -51.5q24 2 45 33z" />
    <glyph glyph-name="guillemotright" unicode="&#xbb;" horiz-adv-x="435" 
d="M237 256l-199 -245l-6 1l128 244v3l-128 224l6 1l199 -225v-3zM403 256l-198 -245l-6 1l127 244v3l-127 224l6 1l198 -225v-3z" />
    <glyph glyph-name="onequarter" unicode="&#xbc;" horiz-adv-x="584" 
d="M131 357l42 -17v-6h-143v6l42 17v283l-49 3v6l105 29h3v-321zM284 348l-7 5l152 322h67v-6zM260 327l7 -5l-150 -322h-69v6zM576 92v-13h-77v-56h1l41 -17v-6h-143v6l42 17v56h-135v5l139 256h73v-6l-195 -242h119v82l52 56h6v-138h77z" />
    <glyph glyph-name="onehalf" unicode="&#xbd;" horiz-adv-x="596" 
d="M131 357l42 -17v-6h-143v6l42 17v283l-49 3v6l105 29h3v-321zM284 348l-7 5l152 322h67v-6zM260 327l7 -5l-150 -322h-69v6zM562 104v-101l-4 -3h-241l1 1v5l102 109q35 38 53.5 71t18.5 67q0 67 -61 67q-23 -1 -34.5 -17.5t-11.5 -44.5q0 -8 2 -24l-69 -28l-2 4
q20 45 47 75.5t52 45.5t40 15q51 0 74.5 -21t23.5 -54q0 -34 -27.5 -71t-96.5 -101l-51 -48v-2h126q23 0 32.5 10.5t19.5 44.5h6z" />
    <glyph glyph-name="threequarters" unicode="&#xbe;" horiz-adv-x="629" 
d="M269 669l-126 -121l1 -3q17 3 30 3q43 0 68 -20.5t25 -54.5q0 -30 -25 -63.5t-77 -55.5t-129 -19l1 62l3 3q25 -16 50 -23.5t44 -7.5q39 0 67.5 14.5t28.5 50.5q0 35 -27 52.5t-72 17.5q-24 0 -45 -4l-3 6l118 119h-112q-17 0 -26 -10.5t-17 -42.5h-6v100l2 2h227v-5z
M329 348l-7 5l152 322h67v-6zM305 327l7 -5l-150 -322h-69v6zM621 92v-13h-77v-56h1l41 -17v-6h-143v6l42 17v56h-135v5l139 256h73v-6l-195 -242h119v82l52 56h6v-138h77z" />
    <glyph glyph-name="questiondown" unicode="&#xbf;" horiz-adv-x="410" 
d="M254.5 507q15.5 -15 15.5 -38q0 -21 -15.5 -36.5t-38.5 -15.5q-22 0 -37 15.5t-15 36.5q0 23 15 38t37 15q23 0 38.5 -15zM222 374q-14 -57 -47 -138q-28 -73 -41.5 -118t-14.5 -90q-1 -57 23.5 -98t75.5 -41q88 0 81 168l97 49l2 -3q-30 -79 -70 -139.5t-77.5 -93
t-60.5 -32.5q-87 0 -122 47t-35 105q0 59 24 111t74 130q55 83 83 143h8z" />
    <glyph glyph-name="Agrave" unicode="&#xc0;" horiz-adv-x="540" 
d="M307 675l220 -669v-6h-181v6l80 37l-65 194h-237q-30 -87 -30 -127q0 -36 19.5 -59t64.5 -45v-6h-168v6l223 603l-21 60v6h95zM244 577l-114 -322h225l-107 322h-4zM106 853v6h102l61 -152h-7z" />
    <glyph glyph-name="Aacute" unicode="&#xc1;" horiz-adv-x="540" 
d="M307 675l220 -669v-6h-181v6l80 37l-65 194h-237q-30 -87 -30 -127q0 -36 19.5 -59t64.5 -45v-6h-168v6l223 603l-21 60v6h95zM244 577l-114 -322h225l-107 322h-4zM319 859h102v-6l-156 -146h-7z" />
    <glyph glyph-name="Acircumflex" unicode="&#xc2;" horiz-adv-x="540" 
d="M307 675l220 -669v-6h-181v6l80 37l-65 194h-237q-30 -87 -30 -127q0 -36 19.5 -59t64.5 -45v-6h-168v6l223 603l-21 60v6h95zM244 577l-114 -322h225l-107 322h-4zM137 713v6l124 143h4l120 -143v-6l-123 70h-3z" />
    <glyph glyph-name="Atilde" unicode="&#xc3;" horiz-adv-x="540" 
d="M307 675l220 -669v-6h-181v6l80 37l-65 194h-237q-30 -87 -30 -127q0 -36 19.5 -59t64.5 -45v-6h-168v6l223 603l-21 60v6h95zM244 577l-114 -322h225l-107 322h-4zM436 850q-10 -49 -37 -81t-63 -32q-19 0 -39.5 6.5t-51.5 18.5q-26 11 -44 17t-34 6q-21 0 -38 -9
t-29 -38h-5q13 44 38.5 74t59.5 30q18 0 37 -6t48 -18t48 -18t36 -6q22 0 38.5 10t29.5 47z" />
    <glyph glyph-name="Adieresis" unicode="&#xc4;" horiz-adv-x="540" 
d="M307 675l220 -669v-6h-181v6l80 37l-65 194h-237q-30 -87 -30 -127q0 -36 19.5 -59t64.5 -45v-6h-168v6l223 603l-21 60v6h95zM244 577l-114 -322h225l-107 322h-4zM138 768q-12 12 -12 30t12 30t31 12q18 0 30 -12.5t12 -29.5q0 -18 -12 -30t-30 -12q-19 0 -31 12z
M323 768q-12 12 -12 30t12 30t31 12q18 0 30 -12.5t12 -29.5q0 -18 -12 -30t-30 -12q-19 0 -31 12z" />
    <glyph glyph-name="Aring" unicode="&#xc5;" horiz-adv-x="540" 
d="M307 675l220 -669v-6h-181v6l80 37l-65 194h-237q-30 -87 -30 -127q0 -36 19.5 -59t64.5 -45v-6h-168v6l223 603l-21 60v6h95zM244 577l-114 -322h225l-107 322h-4zM191.5 729.5q-28.5 28.5 -28.5 69.5t28.5 70t70.5 29q41 0 69.5 -29t28.5 -70q0 -40 -29 -69t-69 -29
q-42 0 -70.5 28.5zM313.5 746q21.5 22 21.5 53t-21.5 53t-51.5 22q-31 0 -52.5 -22t-21.5 -53t21.5 -53t52.5 -22q30 0 51.5 22z" />
    <glyph glyph-name="AE" unicode="&#xc6;" horiz-adv-x="832" 
d="M759 221l71 -221h-484v6l80 37l-65 194h-237q-30 -87 -30 -127q0 -36 19.5 -59t64.5 -45v-6h-168v6l223 603l-21 60v6h387l72 -221h-6q-14 18 -42 61q-50 74 -71.5 100.5t-42 34t-63.5 7.5h-133l101 -306h72q27 0 38.5 8t15 24t5.5 54l3 38h6l86 -267h-6l-25 35
q-27 39 -42 56t-32 25.5t-44 8.5h-72l104 -315h142q43 0 58.5 7.5t20 34t5.5 100.5l4 61h6zM244 577l-114 -322h225l-107 322h-4z" />
    <glyph glyph-name="Ccedilla" unicode="&#xc7;" horiz-adv-x="545" 
d="M304 -9l-28 -51q37 -8 62.5 -30.5t25.5 -55.5q0 -36 -33 -67.5t-94 -49.5l-1 5q74 25 74 77q0 27 -22 43.5t-59 18.5l-1 6l62 105q-74 9 -132.5 55t-92 120.5t-33.5 165.5q0 125 57 204t126.5 114t104.5 35q81 0 134.5 -30t74.5 -74l-70 -126h-6q1 8 1 22q0 79 -50.5 120
t-120.5 41q-37 0 -78 -17.5t-73 -70.5t-32 -149q0 -93 33 -172.5t96 -128t147 -48.5q38 0 65.5 10.5t65.5 31.5l4 -9q-50 -34 -110.5 -65t-79.5 -31q-11 0 -17 1z" />
    <glyph glyph-name="Egrave" unicode="&#xc8;" horiz-adv-x="588" 
d="M526 221v-221h-495v6l78 37v589l-78 37v6h482v-221h-6l-23 61q-26 74 -39 100.5t-31 34t-61 7.5h-160v-306h103q27 0 41.5 8.5t23.5 25t25 57.5l13 34h6v-268h-6l-14 35q-15 40 -24.5 56.5t-23.5 25t-41 8.5h-103v-315h173q43 0 61 7.5t31 33.5t39 101l23 61h6zM139 853
v6h102l61 -152h-7z" />
    <glyph glyph-name="Eacute" unicode="&#xc9;" horiz-adv-x="588" 
d="M526 221v-221h-495v6l78 37v589l-78 37v6h482v-221h-6l-23 61q-26 74 -39 100.5t-31 34t-61 7.5h-160v-306h103q27 0 41.5 8.5t23.5 25t25 57.5l13 34h6v-268h-6l-14 35q-15 40 -24.5 56.5t-23.5 25t-41 8.5h-103v-315h173q43 0 61 7.5t31 33.5t39 101l23 61h6zM352 859
h102v-6l-156 -146h-7z" />
    <glyph glyph-name="Ecircumflex" unicode="&#xca;" horiz-adv-x="588" 
d="M526 221v-221h-495v6l78 37v589l-78 37v6h482v-221h-6l-23 61q-26 74 -39 100.5t-31 34t-61 7.5h-160v-306h103q27 0 41.5 8.5t23.5 25t25 57.5l13 34h6v-268h-6l-14 35q-15 40 -24.5 56.5t-23.5 25t-41 8.5h-103v-315h173q43 0 61 7.5t31 33.5t39 101l23 61h6zM169 713
v6l124 143h4l120 -143v-6l-123 70h-3z" />
    <glyph glyph-name="Edieresis" unicode="&#xcb;" horiz-adv-x="588" 
d="M526 221v-221h-495v6l78 37v589l-78 37v6h482v-221h-6l-23 61q-26 74 -39 100.5t-31 34t-61 7.5h-160v-306h103q27 0 41.5 8.5t23.5 25t25 57.5l13 34h6v-268h-6l-14 35q-15 40 -24.5 56.5t-23.5 25t-41 8.5h-103v-315h173q43 0 61 7.5t31 33.5t39 101l23 61h6zM170 768
q-12 12 -12 30t12 30t31 12q18 0 30 -12.5t12 -29.5q0 -18 -12 -30t-30 -12q-19 0 -31 12zM355 768q-12 12 -12 30t12 30t31 12q18 0 30 -12.5t12 -29.5q0 -18 -12 -30t-30 -12q-19 0 -31 12z" />
    <glyph glyph-name="Igrave" unicode="&#xcc;" horiz-adv-x="308" 
d="M111 41v593l-80 35v6h246v-6l-80 -35v-593l80 -35v-6h-246v6zM-1 853v6h102l61 -152h-7z" />
    <glyph glyph-name="Iacute" unicode="&#xcd;" horiz-adv-x="308" 
d="M111 41v593l-80 35v6h246v-6l-80 -35v-593l80 -35v-6h-246v6zM212 859h102v-6l-156 -146h-7z" />
    <glyph glyph-name="Icircumflex" unicode="&#xce;" horiz-adv-x="308" 
d="M111 41v593l-80 35v6h246v-6l-80 -35v-593l80 -35v-6h-246v6zM30 713v6l124 143h4l120 -143v-6l-123 70h-3z" />
    <glyph glyph-name="Idieresis" unicode="&#xcf;" horiz-adv-x="308" 
d="M111 41v593l-80 35v6h246v-6l-80 -35v-593l80 -35v-6h-246v6zM31 768q-12 12 -12 30t12 30t31 12q18 0 30 -12.5t12 -29.5q0 -18 -12 -30t-30 -12q-19 0 -31 12zM216 768q-12 12 -12 30t12 30t31 12q18 0 30 -12.5t12 -29.5q0 -18 -12 -30t-30 -12q-19 0 -31 12z" />
    <glyph glyph-name="Eth" unicode="&#xd0;" horiz-adv-x="623" 
d="M500 591q89 -84 89 -244q0 -88 -35.5 -166.5t-117 -129.5t-211.5 -51h-194v6l78 37v286h-82v18h82v285l-78 37v6h218q162 0 251 -84zM224 18q145 1 210.5 80.5t65.5 239.5q0 153 -66 236t-206 83h-35v-310h143v-18h-143v-311h31z" />
    <glyph glyph-name="Ntilde" unicode="&#xd1;" horiz-adv-x="621" 
d="M372 675h163v-683h-36l-380 585h-5v-337q0 -78 12 -119t40.5 -64.5t89.5 -49.5v-7h-164v615l-42 54v6h107l351 -540v1h5v297q0 77 -12 118.5t-41 66.5t-88 50v7zM483 850q-10 -49 -37 -81t-63 -32q-19 0 -39.5 6.5t-51.5 18.5q-26 11 -44 17t-34 6q-21 0 -38 -9t-29 -38
h-5q13 44 38.5 74t59.5 30q18 0 37 -6t48 -18t48 -18t36 -6q22 0 38.5 10t29.5 47z" />
    <glyph glyph-name="Ograve" unicode="&#xd2;" horiz-adv-x="610" 
d="M162 37.5q-63 48.5 -95.5 128t-32.5 170.5q0 119 49.5 197.5t113 115t102.5 36.5q86 0 149 -48.5t95.5 -128t32.5 -170.5q0 -119 -49.5 -197.5t-113 -115t-102.5 -36.5q-86 0 -149 48.5zM458.5 95.5q44.5 55.5 44.5 170.5q0 14 -2 46q-7 89 -39 162.5t-84 116.5t-116 43
q-68 0 -113 -55.5t-45 -171.5q0 -26 1 -40q7 -90 39 -165t85 -118.5t117 -43.5q68 0 112.5 55.5zM150 853v6h102l61 -152h-7z" />
    <glyph glyph-name="Oacute" unicode="&#xd3;" horiz-adv-x="610" 
d="M162 37.5q-63 48.5 -95.5 128t-32.5 170.5q0 119 49.5 197.5t113 115t102.5 36.5q86 0 149 -48.5t95.5 -128t32.5 -170.5q0 -119 -49.5 -197.5t-113 -115t-102.5 -36.5q-86 0 -149 48.5zM458.5 95.5q44.5 55.5 44.5 170.5q0 14 -2 46q-7 89 -39 162.5t-84 116.5t-116 43
q-68 0 -113 -55.5t-45 -171.5q0 -26 1 -40q7 -90 39 -165t85 -118.5t117 -43.5q68 0 112.5 55.5zM363 859h102v-6l-156 -146h-7z" />
    <glyph glyph-name="Ocircumflex" unicode="&#xd4;" horiz-adv-x="610" 
d="M162 37.5q-63 48.5 -95.5 128t-32.5 170.5q0 119 49.5 197.5t113 115t102.5 36.5q86 0 149 -48.5t95.5 -128t32.5 -170.5q0 -119 -49.5 -197.5t-113 -115t-102.5 -36.5q-86 0 -149 48.5zM458.5 95.5q44.5 55.5 44.5 170.5q0 14 -2 46q-7 89 -39 162.5t-84 116.5t-116 43
q-68 0 -113 -55.5t-45 -171.5q0 -26 1 -40q7 -90 39 -165t85 -118.5t117 -43.5q68 0 112.5 55.5zM181 713v6l124 143h4l120 -143v-6l-123 70h-3z" />
    <glyph glyph-name="Otilde" unicode="&#xd5;" horiz-adv-x="610" 
d="M162 37.5q-63 48.5 -95.5 128t-32.5 170.5q0 119 49.5 197.5t113 115t102.5 36.5q86 0 149 -48.5t95.5 -128t32.5 -170.5q0 -119 -49.5 -197.5t-113 -115t-102.5 -36.5q-86 0 -149 48.5zM458.5 95.5q44.5 55.5 44.5 170.5q0 14 -2 46q-7 89 -39 162.5t-84 116.5t-116 43
q-68 0 -113 -55.5t-45 -171.5q0 -26 1 -40q7 -90 39 -165t85 -118.5t117 -43.5q68 0 112.5 55.5zM480 850q-10 -49 -37 -81t-63 -32q-19 0 -39.5 6.5t-51.5 18.5q-26 11 -44 17t-34 6q-21 0 -38 -9t-29 -38h-5q13 44 38.5 74t59.5 30q18 0 37 -6t48 -18t48 -18t36 -6
q22 0 38.5 10t29.5 47z" />
    <glyph glyph-name="Odieresis" unicode="&#xd6;" horiz-adv-x="610" 
d="M162 37.5q-63 48.5 -95.5 128t-32.5 170.5q0 119 49.5 197.5t113 115t102.5 36.5q86 0 149 -48.5t95.5 -128t32.5 -170.5q0 -119 -49.5 -197.5t-113 -115t-102.5 -36.5q-86 0 -149 48.5zM458.5 95.5q44.5 55.5 44.5 170.5q0 14 -2 46q-7 89 -39 162.5t-84 116.5t-116 43
q-68 0 -113 -55.5t-45 -171.5q0 -26 1 -40q7 -90 39 -165t85 -118.5t117 -43.5q68 0 112.5 55.5zM182 768q-12 12 -12 30t12 30t31 12q18 0 30 -12.5t12 -29.5q0 -18 -12 -30t-30 -12q-19 0 -31 12zM367 768q-12 12 -12 30t12 30t31 12q18 0 30 -12.5t12 -29.5
q0 -18 -12 -30t-30 -12q-19 0 -31 12z" />
    <glyph glyph-name="multiply" unicode="&#xd7;" horiz-adv-x="390" 
d="M206 273l127 -126l-13 -13l-126 127l-124 -124l-13 13l124 124l-123 122l12 13l123 -123l126 126l13 -13z" />
    <glyph glyph-name="Oslash" unicode="&#xd8;" horiz-adv-x="610" 
d="M457 629q57 -47 88 -125t31 -166q0 -119 -49.5 -197.5t-113 -115t-102.5 -36.5q-80 0 -143 44l-48 -100h-22l54 112q-57 48 -87.5 125.5t-30.5 165.5q0 119 49.5 197.5t113 115t102.5 36.5q81 0 142 -44l49 102h22zM132.5 232q22.5 -63 57.5 -108l214 442q-60 68 -143 68
q-68 0 -112.5 -55.5t-44.5 -171.5q0 -26 1 -40q5 -72 27.5 -135zM458 95.5q45 55.5 45 170.5q0 14 -2 46q-5 70 -26.5 132t-56.5 106l-214 -443q64 -67 141 -67q68 0 113 55.5z" />
    <glyph glyph-name="Ugrave" unicode="&#xd9;" horiz-adv-x="644" 
d="M544 43l78 -37v-6h-162v84q-48 -39 -97.5 -67t-68.5 -28q-94 0 -147 51.5t-53 153.5l1 438l-78 37v6h162v-467q0 -84 40 -122.5t104 -38.5q42 0 71.5 14t65.5 43l1 528l-78 37v6h162zM161 853v6h102l61 -152h-7z" />
    <glyph glyph-name="Uacute" unicode="&#xda;" horiz-adv-x="644" 
d="M544 43l78 -37v-6h-162v84q-48 -39 -97.5 -67t-68.5 -28q-94 0 -147 51.5t-53 153.5l1 438l-78 37v6h162v-467q0 -84 40 -122.5t104 -38.5q42 0 71.5 14t65.5 43l1 528l-78 37v6h162zM374 859h102v-6l-156 -146h-7z" />
    <glyph glyph-name="Ucircumflex" unicode="&#xdb;" horiz-adv-x="644" 
d="M544 43l78 -37v-6h-162v84q-48 -39 -97.5 -67t-68.5 -28q-94 0 -147 51.5t-53 153.5l1 438l-78 37v6h162v-467q0 -84 40 -122.5t104 -38.5q42 0 71.5 14t65.5 43l1 528l-78 37v6h162zM192 713v6l124 143h4l120 -143v-6l-123 70h-3z" />
    <glyph glyph-name="Udieresis" unicode="&#xdc;" horiz-adv-x="644" 
d="M544 43l78 -37v-6h-162v84q-48 -39 -97.5 -67t-68.5 -28q-94 0 -147 51.5t-53 153.5l1 438l-78 37v6h162v-467q0 -84 40 -122.5t104 -38.5q42 0 71.5 14t65.5 43l1 528l-78 37v6h162zM193 768q-12 12 -12 30t12 30t31 12q18 0 30 -12.5t12 -29.5q0 -18 -12 -30t-30 -12
q-19 0 -31 12zM378 768q-12 12 -12 30t12 30t31 12q18 0 30 -12.5t12 -29.5q0 -18 -12 -30t-30 -12q-19 0 -31 12z" />
    <glyph glyph-name="Yacute" unicode="&#xdd;" horiz-adv-x="509" 
d="M504 669l-207 -396v-232l81 -35v-6h-246v6l80 35v233l-208 395v6h192v-6l-81 -37l170 -330l2 -5l78 149q24 47 36 79.5t12 56.5q0 31 -19.5 52t-62.5 35v6h173v-6zM317 859h102v-6l-156 -146h-7z" />
    <glyph glyph-name="Thorn" unicode="&#xde;" horiz-adv-x="554" 
d="M197 144v-103l80 -35v-6h-246v6l80 35v593l-80 35v6h246v-6l-80 -35v-91h89q115 0 183.5 -45.5t68.5 -137.5q0 -61 -30 -110t-92.5 -77.5t-156.5 -28.5h-62zM197 525v-364l47 1q103 0 152.5 44.5t49.5 139.5q0 92 -47 135.5t-141 43.5h-61z" />
    <glyph glyph-name="germandbls" unicode="&#xdf;" horiz-adv-x="569" 
d="M500 289q33 -40 47.5 -72t14.5 -64q0 -45 -22 -82.5t-60 -59.5t-85 -22q-25 0 -46.5 5t-47.5 14q-8 2 -19 5.5t-25 6.5l-18 217h6q15 -80 44.5 -131.5t62.5 -74t62 -22.5q40 0 64 26.5t24 65.5q0 23 -13.5 53.5t-41.5 62.5l-44 53q-33 40 -44 67t-11 50q0 25 10.5 45
t22.5 34.5t16 20.5l6 10q16 21 24 44t8 43q0 43 -23.5 77.5t-63.5 54t-87 19.5q-52 0 -84.5 -26t-32.5 -73q0 -29 15 -72q9 -31 13.5 -49t3.5 -42v-473h-160v6l82 27h1v468l-92 18v5h92l-2 50q-2 71 35.5 113.5t90 59.5t97.5 17q49 0 90 -17.5t65 -48.5t24 -68
q0 -27 -12.5 -49t-35.5 -49q-23 -29 -28 -40l-7 -11q-16 -30 -16 -46q0 -18 12.5 -37t48.5 -62z" />
    <glyph glyph-name="agrave" unicode="&#xe0;" horiz-adv-x="484" 
d="M496 115l3 -5q-21 -21 -40 -43q-34 -38 -55 -56.5t-38 -18.5q-13 0 -22 7.5t-17.5 33.5t-15.5 77q-43 -65 -81 -93t-90 -28q-49 0 -75 23t-26 62q0 55 52.5 106.5t145.5 112.5l74 45q1 72 -16.5 112.5t-70.5 40.5q-50 0 -78 -34t-28 -94q0 -8 2 -30l-95 -43l-3 2
q33 86 79.5 141.5t90 80t67.5 24.5q79 0 109 -46.5t26 -116.5l-7 -264v-56zM244.5 64q32.5 23 64.5 70l2 181q-97 -61 -141 -110t-44 -97q0 -31 16 -49t42 -18q28 0 60.5 23zM73 744v6h90l90 -181h-7z" />
    <glyph glyph-name="aacute" unicode="&#xe1;" horiz-adv-x="484" 
d="M496 115l3 -5q-21 -21 -40 -43q-34 -38 -55 -56.5t-38 -18.5q-13 0 -22 7.5t-17.5 33.5t-15.5 77q-43 -65 -81 -93t-90 -28q-49 0 -75 23t-26 62q0 55 52.5 106.5t145.5 112.5l74 45q1 72 -16.5 112.5t-70.5 40.5q-50 0 -78 -34t-28 -94q0 -8 2 -30l-95 -43l-3 2
q33 86 79.5 141.5t90 80t67.5 24.5q79 0 109 -46.5t26 -116.5l-7 -264v-56zM244.5 64q32.5 23 64.5 70l2 181q-97 -61 -141 -110t-44 -97q0 -31 16 -49t42 -18q28 0 60.5 23zM320 750h89v-6l-172 -175h-8z" />
    <glyph glyph-name="acircumflex" unicode="&#xe2;" horiz-adv-x="484" 
d="M496 115l3 -5q-21 -21 -40 -43q-34 -38 -55 -56.5t-38 -18.5q-13 0 -22 7.5t-17.5 33.5t-15.5 77q-43 -65 -81 -93t-90 -28q-49 0 -75 23t-26 62q0 55 52.5 106.5t145.5 112.5l74 45q1 72 -16.5 112.5t-70.5 40.5q-50 0 -78 -34t-28 -94q0 -8 2 -30l-95 -43l-3 2
q33 86 79.5 141.5t90 80t67.5 24.5q79 0 109 -46.5t26 -116.5l-7 -264v-56zM244.5 64q32.5 23 64.5 70l2 181q-97 -61 -141 -110t-44 -97q0 -31 16 -49t42 -18q28 0 60.5 23zM133 567l-4 6l115 191h4l111 -191l-3 -6l-111 104h-3z" />
    <glyph glyph-name="atilde" unicode="&#xe3;" horiz-adv-x="484" 
d="M496 115l3 -5q-21 -21 -40 -43q-34 -38 -55 -56.5t-38 -18.5q-13 0 -22 7.5t-17.5 33.5t-15.5 77q-43 -65 -81 -93t-90 -28q-49 0 -75 23t-26 62q0 55 52.5 106.5t145.5 112.5l74 45q1 72 -16.5 112.5t-70.5 40.5q-50 0 -78 -34t-28 -94q0 -8 2 -30l-95 -43l-3 2
q33 86 79.5 141.5t90 80t67.5 24.5q79 0 109 -46.5t26 -116.5l-7 -264v-56zM244.5 64q32.5 23 64.5 70l2 181q-97 -61 -141 -110t-44 -97q0 -31 16 -49t42 -18q28 0 60.5 23zM415 703q-25 -53 -49 -81t-56 -28q-19 0 -36.5 6t-44.5 19q-25 11 -39.5 16.5t-28.5 5.5
q-22 0 -41 -10t-42 -45l-4 3q27 55 49 81.5t54 26.5q18 0 35.5 -6t43.5 -18q24 -11 40 -16.5t31 -5.5q22 0 41.5 9.5t42.5 45.5z" />
    <glyph glyph-name="adieresis" unicode="&#xe4;" horiz-adv-x="484" 
d="M496 115l3 -5q-21 -21 -40 -43q-34 -38 -55 -56.5t-38 -18.5q-13 0 -22 7.5t-17.5 33.5t-15.5 77q-43 -65 -81 -93t-90 -28q-49 0 -75 23t-26 62q0 55 52.5 106.5t145.5 112.5l74 45q1 72 -16.5 112.5t-70.5 40.5q-50 0 -78 -34t-28 -94q0 -8 2 -30l-95 -43l-3 2
q33 86 79.5 141.5t90 80t67.5 24.5q79 0 109 -46.5t26 -116.5l-7 -264v-56zM244.5 64q32.5 23 64.5 70l2 181q-97 -61 -141 -110t-44 -97q0 -31 16 -49t42 -18q28 0 60.5 23zM121 617q-12 12 -12 30t12 30t31 12q18 0 30 -12.5t12 -29.5q0 -18 -12 -30t-30 -12q-19 0 -31 12
zM306 617q-12 12 -12 30t12 30t31 12q18 0 30 -12.5t12 -29.5q0 -18 -12 -30t-30 -12q-19 0 -31 12z" />
    <glyph glyph-name="aring" unicode="&#xe5;" horiz-adv-x="484" 
d="M496 115l3 -5q-21 -21 -40 -43q-34 -38 -55 -56.5t-38 -18.5q-13 0 -22 7.5t-17.5 33.5t-15.5 77q-43 -65 -81 -93t-90 -28q-49 0 -75 23t-26 62q0 55 52.5 106.5t145.5 112.5l74 45q1 72 -16.5 112.5t-70.5 40.5q-50 0 -78 -34t-28 -94q0 -8 2 -30l-95 -43l-3 2
q33 86 79.5 141.5t90 80t67.5 24.5q79 0 109 -46.5t26 -116.5l-7 -264v-56zM244.5 64q32.5 23 64.5 70l2 181q-97 -61 -141 -110t-44 -97q0 -31 16 -49t42 -18q28 0 60.5 23zM174.5 602q-28.5 29 -28.5 70t28.5 69.5t70.5 28.5q40 0 69 -28.5t29 -69.5t-28.5 -70t-69.5 -29
q-42 0 -70.5 29zM296.5 619q21.5 22 21.5 53t-21.5 53t-51.5 22q-31 0 -52.5 -22t-21.5 -53t21.5 -53t52.5 -22q30 0 51.5 22z" />
    <glyph glyph-name="ae" unicode="&#xe6;" horiz-adv-x="720" 
d="M698 75q-48 -40 -87.5 -63t-61.5 -23q-85 0 -140 35t-80 103h-3q-73 -138 -191 -138q-45 0 -70.5 22.5t-25.5 58.5q0 43 31 83t76.5 74t126.5 87l38 25q-2 81 -21.5 117.5t-68.5 36.5q-44 -1 -73.5 -35.5t-29.5 -96.5q0 -8 2 -28l-95 -43l-3 3q35 86 82 141t89 79.5
t66 24.5q55 0 85.5 -26.5t39.5 -67.5q24 30 54.5 51t57 32t41.5 11q150 0 153 -170q0 -9 -20 -23.5t-44.5 -26.5t-33.5 -12h-206v-3q1 -70 25 -128t71 -93t112 -35q28 0 50.5 7.5t50.5 23.5zM418 451.5q-29 -46.5 -32 -129.5h218q2 80 -26.5 128t-81.5 48q-49 0 -78 -46.5z
M253.5 68.5q35.5 27.5 68.5 82.5q-14 48 -12 109l1 48v7q-97 -61 -140 -111t-43 -101q0 -28 16.5 -45t43.5 -17q30 0 65.5 27.5z" />
    <glyph glyph-name="ccedilla" unicode="&#xe7;" horiz-adv-x="406" 
d="M212 -60q37 -8 62.5 -30.5t25.5 -55.5q0 -36 -33 -67.5t-94 -49.5l-1 5q74 25 74 77q0 27 -22 43.5t-59 18.5l-1 6l61 103q-91 9 -148 75t-57 181q0 101 41.5 166t94 94.5t83.5 29.5q51 0 86.5 -20t53 -48.5t18.5 -53.5l-82 -81l-4 2q3 15 3 31q0 54 -30.5 90.5
t-75.5 36.5q-50 0 -87.5 -38.5t-37.5 -136.5q0 -77 26.5 -138t75 -95.5t111.5 -34.5q24 0 43 7.5t35 16.5t21 12l4 -6q-108 -91 -149 -91h-11z" />
    <glyph glyph-name="egrave" unicode="&#xe8;" horiz-adv-x="421" 
d="M399 79q-107 -90 -148 -90q-65 0 -117.5 29.5t-83 87.5t-30.5 140q0 101 42 166t94.5 94.5t83.5 29.5q150 0 152 -168q0 -9 -18 -23.5t-40 -26.5t-31 -12h-219q2 -75 28.5 -133t74 -90.5t109.5 -32.5q27 0 46.5 8.5t52.5 27.5zM123 455.5q-37 -37.5 -39 -131.5h231
q5 82 -26 125.5t-79 43.5q-50 0 -87 -37.5zM64 744v6h90l90 -181h-7z" />
    <glyph glyph-name="eacute" unicode="&#xe9;" horiz-adv-x="421" 
d="M399 79q-107 -90 -148 -90q-65 0 -117.5 29.5t-83 87.5t-30.5 140q0 101 42 166t94.5 94.5t83.5 29.5q150 0 152 -168q0 -9 -18 -23.5t-40 -26.5t-31 -12h-219q2 -75 28.5 -133t74 -90.5t109.5 -32.5q27 0 46.5 8.5t52.5 27.5zM123 455.5q-37 -37.5 -39 -131.5h231
q5 82 -26 125.5t-79 43.5q-50 0 -87 -37.5zM311 750h89v-6l-172 -175h-8z" />
    <glyph glyph-name="ecircumflex" unicode="&#xea;" horiz-adv-x="421" 
d="M399 79q-107 -90 -148 -90q-65 0 -117.5 29.5t-83 87.5t-30.5 140q0 101 42 166t94.5 94.5t83.5 29.5q150 0 152 -168q0 -9 -18 -23.5t-40 -26.5t-31 -12h-219q2 -75 28.5 -133t74 -90.5t109.5 -32.5q27 0 46.5 8.5t52.5 27.5zM123 455.5q-37 -37.5 -39 -131.5h231
q5 82 -26 125.5t-79 43.5q-50 0 -87 -37.5zM124 567l-4 6l115 191h4l111 -191l-3 -6l-111 104h-3z" />
    <glyph glyph-name="edieresis" unicode="&#xeb;" horiz-adv-x="421" 
d="M399 79q-107 -90 -148 -90q-65 0 -117.5 29.5t-83 87.5t-30.5 140q0 101 42 166t94.5 94.5t83.5 29.5q150 0 152 -168q0 -9 -18 -23.5t-40 -26.5t-31 -12h-219q2 -75 28.5 -133t74 -90.5t109.5 -32.5q27 0 46.5 8.5t52.5 27.5zM123 455.5q-37 -37.5 -39 -131.5h231
q5 82 -26 125.5t-79 43.5q-50 0 -87 -37.5zM112 617q-12 12 -12 30t12 30t31 12q18 0 30 -12.5t12 -29.5q0 -18 -12 -30t-30 -12q-19 0 -31 12zM297 617q-12 12 -12 30t12 30t31 12q18 0 30 -12.5t12 -29.5q0 -18 -12 -30t-30 -12q-19 0 -31 12z" />
    <glyph glyph-name="igrave" unicode="&#xec;" horiz-adv-x="257" 
d="M96 33v456l-82 29v6h161v-35l-1 -456l82 -27v-6h-242v6zM-40 744v6h90l90 -181h-7z" />
    <glyph glyph-name="iacute" unicode="&#xed;" horiz-adv-x="257" 
d="M96 33v456l-82 29v6h161v-35l-1 -456l82 -27v-6h-242v6zM207 750h89v-6l-172 -175h-8z" />
    <glyph glyph-name="icircumflex" unicode="&#xee;" horiz-adv-x="257" 
d="M96 33v456l-82 29v6h161v-35l-1 -456l82 -27v-6h-242v6zM20 567l-4 6l115 191h4l111 -191l-3 -6l-111 104h-3z" />
    <glyph glyph-name="idieresis" unicode="&#xef;" horiz-adv-x="257" 
d="M96 33v456l-82 29v6h161v-35l-1 -456l82 -27v-6h-242v6zM8 617q-12 12 -12 30t12 30t31 12q18 0 30 -12.5t12 -29.5q0 -18 -12 -30t-30 -12q-19 0 -31 12zM193 617q-12 12 -12 30t12 30t31 12q18 0 30 -12.5t12 -29.5q0 -18 -12 -30t-30 -12q-19 0 -31 12z" />
    <glyph glyph-name="eth" unicode="&#xf0;" horiz-adv-x="458" 
d="M280 650q74 -73 115.5 -167t41.5 -192q0 -96 -37 -164t-86 -102.5t-81 -34.5q-57 0 -105.5 27.5t-78 86.5t-29.5 150q0 93 27.5 152t68 85t81.5 26q34 0 72 -19.5t63 -64.5l3 2q-36 113 -91 194l-115 -66l-10 16l114 65q-23 31 -46 53.5t-53 47.5l5 6q69 -35 128 -88
l114 65l10 -14zM334.5 74.5q31.5 38.5 31.5 126.5q0 22 -1 34q-4 74 -28 131t-62 88.5t-85 31.5q-39 0 -71 -39t-32 -129q0 -19 1 -30q5 -75 28.5 -132t61.5 -88.5t85 -31.5q40 0 71.5 38.5z" />
    <glyph glyph-name="ntilde" unicode="&#xf1;" horiz-adv-x="536" 
d="M457 33l82 -27v-6h-242v6l82 27v329q0 56 -28.5 84t-70.5 28q-47 0 -96 -67v-374l82 -27v-6h-242v6l82 27v439l-109 -60l-3 5q15 14 41 44q32 36 53.5 54.5t38.5 18.5q12 0 21 -6.5t17 -29t15 -67.5q39 48 74.5 75t52.5 27q68 0 109 -40t41 -129v-331zM438 703
q-25 -53 -49 -81t-56 -28q-19 0 -36.5 6t-44.5 19q-25 11 -39.5 16.5t-28.5 5.5q-22 0 -41 -10t-42 -45l-4 3q27 55 49 81.5t54 26.5q18 0 35.5 -6t43.5 -18q24 -11 40 -16.5t31 -5.5q22 0 41.5 9.5t42.5 45.5z" />
    <glyph glyph-name="ograve" unicode="&#xf2;" horiz-adv-x="453" 
d="M125 18q-48 29 -76.5 85.5t-28.5 136.5q0 103 38 169t86 95.5t78 29.5q58 0 106 -29t76.5 -85.5t28.5 -136.5q0 -104 -38 -170t-86 -95t-78 -29q-58 0 -106 29zM335.5 74q31.5 38 31.5 128q0 22 -1 34q-5 75 -29 132t-62 88t-86 31q-40 0 -72 -39t-32 -130q0 -20 1 -31
q5 -75 29 -132t62.5 -88t86.5 -31q40 0 71.5 38zM55 744v6h90l90 -181h-7z" />
    <glyph glyph-name="oacute" unicode="&#xf3;" horiz-adv-x="453" 
d="M125 18q-48 29 -76.5 85.5t-28.5 136.5q0 103 38 169t86 95.5t78 29.5q58 0 106 -29t76.5 -85.5t28.5 -136.5q0 -104 -38 -170t-86 -95t-78 -29q-58 0 -106 29zM335.5 74q31.5 38 31.5 128q0 22 -1 34q-5 75 -29 132t-62 88t-86 31q-40 0 -72 -39t-32 -130q0 -20 1 -31
q5 -75 29 -132t62.5 -88t86.5 -31q40 0 71.5 38zM302 750h89v-6l-172 -175h-8z" />
    <glyph glyph-name="ocircumflex" unicode="&#xf4;" horiz-adv-x="453" 
d="M125 18q-48 29 -76.5 85.5t-28.5 136.5q0 103 38 169t86 95.5t78 29.5q58 0 106 -29t76.5 -85.5t28.5 -136.5q0 -104 -38 -170t-86 -95t-78 -29q-58 0 -106 29zM335.5 74q31.5 38 31.5 128q0 22 -1 34q-5 75 -29 132t-62 88t-86 31q-40 0 -72 -39t-32 -130q0 -20 1 -31
q5 -75 29 -132t62.5 -88t86.5 -31q40 0 71.5 38zM115 567l-4 6l115 191h4l111 -191l-3 -6l-111 104h-3z" />
    <glyph glyph-name="otilde" unicode="&#xf5;" horiz-adv-x="453" 
d="M125 18q-48 29 -76.5 85.5t-28.5 136.5q0 103 38 169t86 95.5t78 29.5q58 0 106 -29t76.5 -85.5t28.5 -136.5q0 -104 -38 -170t-86 -95t-78 -29q-58 0 -106 29zM335.5 74q31.5 38 31.5 128q0 22 -1 34q-5 75 -29 132t-62 88t-86 31q-40 0 -72 -39t-32 -130q0 -20 1 -31
q5 -75 29 -132t62.5 -88t86.5 -31q40 0 71.5 38zM397 703q-25 -53 -49 -81t-56 -28q-19 0 -36.5 6t-44.5 19q-25 11 -39.5 16.5t-28.5 5.5q-22 0 -41 -10t-42 -45l-4 3q27 55 49 81.5t54 26.5q18 0 35.5 -6t43.5 -18q24 -11 40 -16.5t31 -5.5q22 0 41.5 9.5t42.5 45.5z" />
    <glyph glyph-name="odieresis" unicode="&#xf6;" horiz-adv-x="453" 
d="M125 18q-48 29 -76.5 85.5t-28.5 136.5q0 103 38 169t86 95.5t78 29.5q58 0 106 -29t76.5 -85.5t28.5 -136.5q0 -104 -38 -170t-86 -95t-78 -29q-58 0 -106 29zM335.5 74q31.5 38 31.5 128q0 22 -1 34q-5 75 -29 132t-62 88t-86 31q-40 0 -72 -39t-32 -130q0 -20 1 -31
q5 -75 29 -132t62.5 -88t86.5 -31q40 0 71.5 38zM103 617q-12 12 -12 30t12 30t31 12q18 0 30 -12.5t12 -29.5q0 -18 -12 -30t-30 -12q-19 0 -31 12zM288 617q-12 12 -12 30t12 30t31 12q18 0 30 -12.5t12 -29.5q0 -18 -12 -30t-30 -12q-19 0 -31 12z" />
    <glyph glyph-name="divide" unicode="&#xf7;" horiz-adv-x="437" 
d="M192.5 386q-10.5 11 -10.5 27q0 15 11 25.5t26 10.5q16 0 26.5 -10.5t10.5 -25.5q0 -16 -10.5 -27t-26.5 -11t-26.5 11zM33 267v18h371v-18h-371zM192.5 106.5q-10.5 10.5 -10.5 26.5q0 15 10.5 25.5t26.5 10.5t26.5 -10.5t10.5 -25.5q0 -16 -10.5 -26.5t-26.5 -10.5
t-26.5 10.5z" />
    <glyph glyph-name="oslash" unicode="&#xf8;" horiz-adv-x="453" 
d="M378 462q55 -68 55 -179q0 -104 -38 -170t-86 -95t-78 -29q-42 0 -79.5 15t-65.5 44l-38 -54h-21l48 68q-55 66 -55 178q0 103 38 169t86 95.5t78 29.5q41 0 78 -15t65 -43l37 52h22zM125 134l192 273q-24 38 -56.5 59t-70.5 21q-40 0 -72.5 -39t-32.5 -131q0 -19 1 -30
q6 -88 39 -153zM335 74q32 38 32 128q0 22 -1 34q-6 89 -39 154l-192 -273q24 -39 56.5 -60t71.5 -21q40 0 72 38z" />
    <glyph glyph-name="ugrave" unicode="&#xf9;" horiz-adv-x="530" 
d="M545 113l3 -5q-15 -14 -41 -44q-32 -36 -53.5 -54.5t-38.5 -18.5q-19 0 -31.5 20t-21.5 88q-41 -51 -79 -80.5t-55 -29.5q-67 0 -108 40t-41 129v331l-82 29v6h160v-364q0 -56 28 -83.5t70 -27.5q49 0 102 75v365l-82 29v6h161v-471zM80 744v6h90l90 -181h-7z" />
    <glyph glyph-name="uacute" unicode="&#xfa;" horiz-adv-x="530" 
d="M545 113l3 -5q-15 -14 -41 -44q-32 -36 -53.5 -54.5t-38.5 -18.5q-19 0 -31.5 20t-21.5 88q-41 -51 -79 -80.5t-55 -29.5q-67 0 -108 40t-41 129v331l-82 29v6h160v-364q0 -56 28 -83.5t70 -27.5q49 0 102 75v365l-82 29v6h161v-471zM327 750h89v-6l-172 -175h-8z" />
    <glyph glyph-name="ucircumflex" unicode="&#xfb;" horiz-adv-x="530" 
d="M545 113l3 -5q-15 -14 -41 -44q-32 -36 -53.5 -54.5t-38.5 -18.5q-19 0 -31.5 20t-21.5 88q-41 -51 -79 -80.5t-55 -29.5q-67 0 -108 40t-41 129v331l-82 29v6h160v-364q0 -56 28 -83.5t70 -27.5q49 0 102 75v365l-82 29v6h161v-471zM140 567l-4 6l115 191h4l111 -191
l-3 -6l-111 104h-3z" />
    <glyph glyph-name="udieresis" unicode="&#xfc;" horiz-adv-x="530" 
d="M545 113l3 -5q-15 -14 -41 -44q-32 -36 -53.5 -54.5t-38.5 -18.5q-19 0 -31.5 20t-21.5 88q-41 -51 -79 -80.5t-55 -29.5q-67 0 -108 40t-41 129v331l-82 29v6h160v-364q0 -56 28 -83.5t70 -27.5q49 0 102 75v365l-82 29v6h161v-471zM128 617q-12 12 -12 30t12 30t31 12
q18 0 30 -12.5t12 -29.5q0 -18 -12 -30t-30 -12q-19 0 -31 12zM313 617q-12 12 -12 30t12 30t31 12q18 0 30 -12.5t12 -29.5q0 -18 -12 -30t-30 -12q-19 0 -31 12z" />
    <glyph glyph-name="yacute" unicode="&#xfd;" horiz-adv-x="419" 
d="M259 524h159v-6l-280 -768h-92v6l154 231l-199 531v6h180v-6l-88 -28l142 -389h6l71 197q31 87 31 130q0 35 -19.5 54t-64.5 36v6zM295 750h89v-6l-172 -175h-8z" />
    <glyph glyph-name="thorn" unicode="&#xfe;" horiz-adv-x="490" 
d="M417 468q53 -62 53 -175q0 -101 -40 -167.5t-90 -97.5t-79 -31q-63 0 -106 17l-1 -231l82 -27v-6h-242v6l82 27v928l-91 3v6l166 41h6v-38l-1 -288q36 37 74.5 67.5t48.5 30.5q85 -3 138 -65zM358.5 76.5q40.5 45.5 40.5 161.5q0 69 -17 122t-48 83t-71 30
q-34 0 -61.5 -20t-45.5 -48l-1 -325l1 1q19 -23 46 -36.5t60 -13.5q56 0 96.5 45.5z" />
    <glyph glyph-name="ydieresis" unicode="&#xff;" horiz-adv-x="419" 
d="M259 524h159v-6l-280 -768h-92v6l154 231l-199 531v6h180v-6l-88 -28l142 -389h6l71 197q31 87 31 130q0 35 -19.5 54t-64.5 36v6zM96 617q-12 12 -12 30t12 30t31 12q18 0 30 -12.5t12 -29.5q0 -18 -12 -30t-30 -12q-19 0 -31 12zM281 617q-12 12 -12 30t12 30t31 12
q18 0 30 -12.5t12 -29.5q0 -18 -12 -30t-30 -12q-19 0 -31 12z" />
    <glyph glyph-name="Amacron" unicode="&#x100;" horiz-adv-x="540" 
d="M307 675l220 -669v-6h-181v6l80 37l-65 194h-237q-30 -87 -30 -127q0 -36 19.5 -59t64.5 -45v-6h-168v6l223 603l-21 60v6h95zM244 577l-114 -322h225l-107 322h-4zM106 753v38h310v-38h-310z" />
    <glyph glyph-name="amacron" unicode="&#x101;" horiz-adv-x="484" 
d="M496 115l3 -5q-21 -21 -40 -43q-34 -38 -55 -56.5t-38 -18.5q-13 0 -22 7.5t-17.5 33.5t-15.5 77q-43 -65 -81 -93t-90 -28q-49 0 -75 23t-26 62q0 55 52.5 106.5t145.5 112.5l74 45q1 72 -16.5 112.5t-70.5 40.5q-50 0 -78 -34t-28 -94q0 -8 2 -30l-95 -43l-3 2
q33 86 79.5 141.5t90 80t67.5 24.5q79 0 109 -46.5t26 -116.5l-7 -264v-56zM244.5 64q32.5 23 64.5 70l2 181q-97 -61 -141 -110t-44 -97q0 -31 16 -49t42 -18q28 0 60.5 23zM88 600v35h311v-35h-311z" />
    <glyph glyph-name="Abreve" unicode="&#x102;" horiz-adv-x="540" 
d="M307 675l220 -669v-6h-181v6l80 37l-65 194h-237q-30 -87 -30 -127q0 -36 19.5 -59t64.5 -45v-6h-168v6l223 603l-21 60v6h95zM244 577l-114 -322h225l-107 322h-4zM377 842q0 -54 -33.5 -86.5t-82.5 -32.5q-48 0 -81.5 32.5t-33.5 86.5h7q1 -24 34.5 -38.5t73.5 -14.5
q41 0 74 14.5t35 38.5h7z" />
    <glyph glyph-name="abreve" unicode="&#x103;" horiz-adv-x="484" 
d="M496 115l3 -5q-21 -21 -40 -43q-34 -38 -55 -56.5t-38 -18.5q-13 0 -22 7.5t-17.5 33.5t-15.5 77q-43 -65 -81 -93t-90 -28q-49 0 -75 23t-26 62q0 55 52.5 106.5t145.5 112.5l74 45q1 72 -16.5 112.5t-70.5 40.5q-50 0 -78 -34t-28 -94q0 -8 2 -30l-95 -43l-3 2
q33 86 79.5 141.5t90 80t67.5 24.5q79 0 109 -46.5t26 -116.5l-7 -264v-56zM244.5 64q32.5 23 64.5 70l2 181q-97 -61 -141 -110t-44 -97q0 -31 16 -49t42 -18q28 0 60.5 23zM359 747q0 -52 -15.5 -90.5t-42 -59t-57.5 -20.5t-57.5 20.5t-41.5 59t-15 90.5h7q1 -50 33.5 -79
t73.5 -29t73.5 29.5t33.5 78.5h8z" />
    <glyph glyph-name="Aogonek" unicode="&#x104;" horiz-adv-x="564" 
d="M534 -179q-35 -36 -62.5 -56.5t-39.5 -20.5q-29 0 -57.5 16.5t-28.5 57.5q0 32 17 66.5t54 93.5l19 30l-75 229h-237q-30 -82 -30 -126q0 -36 19.5 -59.5t64.5 -45.5v-6h-168v6l223 603l-21 60v6h95l220 -669v-6h-80q-20 -32 -32 -68t-12 -67q0 -33 15.5 -52.5
t47.5 -19.5q15 0 29.5 8.5t34.5 24.5zM244 577l-114 -322h225l-107 322h-4z" />
    <glyph glyph-name="aogonek" unicode="&#x105;" horiz-adv-x="484" 
d="M499 110q-20 -20 -41 -44q-28 -32 -43 -46q-35 -40 -55 -84.5t-20 -80.5q0 -28 14.5 -45t44.5 -17q26 0 64 32l5 -4q-36 -36 -63.5 -56.5t-39.5 -20.5q-29 0 -57 16.5t-28 57.5q0 33 23.5 73t73.5 103q-8 -2 -11 -2q-13 0 -22 7.5t-17.5 33.5t-15.5 77q-43 -65 -81 -93
t-90 -28q-49 0 -75 23t-26 62q0 55 52.5 106.5t145.5 112.5l74 45q1 72 -16.5 112.5t-70.5 40.5q-50 0 -78 -34t-28 -94q0 -8 2 -30l-95 -43l-3 2q33 86 79.5 141.5t90 80t67.5 24.5q79 0 109 -46.5t26 -116.5l-7 -264v-56l109 60zM244.5 64q32.5 23 64.5 70l2 181
q-97 -61 -141 -110t-44 -97q0 -31 16 -49t42 -18q28 0 60.5 23z" />
    <glyph glyph-name="Cacute" unicode="&#x106;" horiz-adv-x="545" 
d="M174 35q-66 45 -104 123t-38 175q0 125 57 204t126.5 114t104.5 35q81 0 134.5 -30t74.5 -74l-70 -126h-6q1 8 1 22q0 79 -50.5 120t-120.5 41q-37 0 -78 -17.5t-73 -70.5t-32 -149q0 -93 33 -172.5t96 -128t147 -48.5q38 0 65.5 10.5t65.5 31.5l4 -9q-50 -34 -110.5 -65
t-79.5 -31q-81 0 -147 45zM378 859h102v-6l-156 -146h-7z" />
    <glyph glyph-name="cacute" unicode="&#x107;" horiz-adv-x="406" 
d="M133 18.5q-52 29.5 -82.5 87.5t-30.5 140q0 101 41.5 166t94 94.5t83.5 29.5q51 0 86.5 -20t53 -48.5t18.5 -53.5l-82 -81l-4 2q3 15 3 31q0 54 -30.5 90.5t-75.5 36.5q-50 0 -87.5 -38.5t-37.5 -136.5q0 -77 26.5 -138t75 -95.5t111.5 -34.5q24 0 43 7.5t35 16.5t21 12
l4 -6q-108 -91 -149 -91q-65 0 -117 29.5zM309 750h89v-6l-172 -175h-8z" />
    <glyph glyph-name="Ccircumflex" unicode="&#x108;" horiz-adv-x="545" 
d="M174 35q-66 45 -104 123t-38 175q0 125 57 204t126.5 114t104.5 35q81 0 134.5 -30t74.5 -74l-70 -126h-6q1 8 1 22q0 79 -50.5 120t-120.5 41q-37 0 -78 -17.5t-73 -70.5t-32 -149q0 -93 33 -172.5t96 -128t147 -48.5q38 0 65.5 10.5t65.5 31.5l4 -9q-50 -34 -110.5 -65
t-79.5 -31q-81 0 -147 45zM196 713v6l124 143h4l120 -143v-6l-123 70h-3z" />
    <glyph glyph-name="ccircumflex" unicode="&#x109;" horiz-adv-x="406" 
d="M133 18.5q-52 29.5 -82.5 87.5t-30.5 140q0 101 41.5 166t94 94.5t83.5 29.5q51 0 86.5 -20t53 -48.5t18.5 -53.5l-82 -81l-4 2q3 15 3 31q0 54 -30.5 90.5t-75.5 36.5q-50 0 -87.5 -38.5t-37.5 -136.5q0 -77 26.5 -138t75 -95.5t111.5 -34.5q24 0 43 7.5t35 16.5t21 12
l4 -6q-108 -91 -149 -91q-65 0 -117 29.5zM121 567l-4 6l115 191h4l111 -191l-3 -6l-111 104h-3z" />
    <glyph glyph-name="Cdotaccent" unicode="&#x10a;" horiz-adv-x="545" 
d="M174 35q-66 45 -104 123t-38 175q0 125 57 204t126.5 114t104.5 35q81 0 134.5 -30t74.5 -74l-70 -126h-6q1 8 1 22q0 79 -50.5 120t-120.5 41q-37 0 -78 -17.5t-73 -70.5t-32 -149q0 -93 33 -172.5t96 -128t147 -48.5q38 0 65.5 10.5t65.5 31.5l4 -9q-50 -34 -110.5 -65
t-79.5 -31q-81 0 -147 45zM282.5 790q-15.5 15 -15.5 38q0 21 15.5 36t38.5 15q22 0 37 -15t15 -36q0 -23 -14.5 -38t-37.5 -15t-38.5 15z" />
    <glyph glyph-name="cdotaccent" unicode="&#x10b;" horiz-adv-x="406" 
d="M133 18.5q-52 29.5 -82.5 87.5t-30.5 140q0 101 41.5 166t94 94.5t83.5 29.5q51 0 86.5 -20t53 -48.5t18.5 -53.5l-82 -81l-4 2q3 15 3 31q0 54 -30.5 90.5t-75.5 36.5q-50 0 -87.5 -38.5t-37.5 -136.5q0 -77 26.5 -138t75 -95.5t111.5 -34.5q24 0 43 7.5t35 16.5t21 12
l4 -6q-108 -91 -149 -91q-65 0 -117 29.5zM194.5 639q-15.5 15 -15.5 38q0 21 15.5 36t38.5 15q22 0 37 -15t15 -36q0 -23 -14.5 -38t-37.5 -15t-38.5 15z" />
    <glyph glyph-name="Ccaron" unicode="&#x10c;" horiz-adv-x="545" 
d="M174 35q-66 45 -104 123t-38 175q0 125 57 204t126.5 114t104.5 35q81 0 134.5 -30t74.5 -74l-70 -126h-6q1 8 1 22q0 79 -50.5 120t-120.5 41q-37 0 -78 -17.5t-73 -70.5t-32 -149q0 -93 33 -172.5t96 -128t147 -48.5q38 0 65.5 10.5t65.5 31.5l4 -9q-50 -34 -110.5 -65
t-79.5 -31q-81 0 -147 45zM320 710l-124 143v6l122 -70h3l123 70v-6l-120 -143h-4z" />
    <glyph glyph-name="ccaron" unicode="&#x10d;" horiz-adv-x="406" 
d="M133 18.5q-52 29.5 -82.5 87.5t-30.5 140q0 101 41.5 166t94 94.5t83.5 29.5q51 0 86.5 -20t53 -48.5t18.5 -53.5l-82 -81l-4 2q3 15 3 31q0 54 -30.5 90.5t-75.5 36.5q-50 0 -87.5 -38.5t-37.5 -136.5q0 -77 26.5 -138t75 -95.5t111.5 -34.5q24 0 43 7.5t35 16.5t21 12
l4 -6q-108 -91 -149 -91q-65 0 -117 29.5zM232 572l-115 191l4 6l109 -103h3l111 103l3 -6l-111 -191h-4z" />
    <glyph glyph-name="Dcaron" unicode="&#x10e;" horiz-adv-x="623" 
d="M500 591q89 -84 89 -244q0 -88 -35.5 -166.5t-117 -129.5t-211.5 -51h-194v6l78 37v589l-78 37v6h218q162 0 251 -84zM224 18q145 1 210.5 80.5t65.5 239.5q0 153 -66 236t-206 83h-35v-639h31zM291 710l-124 143v6l122 -70h3l123 70v-6l-120 -143h-4z" />
    <glyph glyph-name="dcaron" unicode="&#x10f;" horiz-adv-x="503" 
d="M514 114l3 -5q-20 -20 -40 -43q-34 -38 -55 -56.5t-38 -18.5t-30 18.5t-22 78.5q-35 -37 -72.5 -66.5t-48.5 -29.5q-85 3 -138 65t-53 175q0 101 40 167.5t90.5 97.5t78.5 31q58 0 98 -14v197l-93 3v6l165 41h6v-707zM283.5 68.5q25.5 16.5 43.5 41.5v342q-40 42 -99 42
q-56 0 -96.5 -45.5t-40.5 -161.5q0 -69 17 -122t48 -83t72 -30q30 0 55.5 16.5zM543 746.5q13 -12.5 13 -36.5q0 -22 -11 -52.5t-43 -103.5l-19 -43h-7l30 157q-19 2 -32 15t-13 31q0 19 14 32t34 13q21 0 34 -12.5z" />
    <glyph glyph-name="Dcroat" unicode="&#x110;" horiz-adv-x="623" 
d="M500 591q89 -84 89 -244q0 -88 -35.5 -166.5t-117 -129.5t-211.5 -51h-194v6l78 37v286h-82v18h82v285l-78 37v6h218q162 0 251 -84zM224 18q145 1 210.5 80.5t65.5 239.5q0 153 -66 236t-206 83h-35v-310h143v-18h-143v-311h31z" />
    <glyph glyph-name="dcroat" unicode="&#x111;" horiz-adv-x="503" 
d="M405 54l109 60l3 -5q-20 -20 -40 -43q-34 -38 -55 -56.5t-38 -18.5t-30 18.5t-22 78.5q-35 -37 -72.5 -66.5t-48.5 -29.5q-85 3 -138 65t-53 175q0 101 40 167.5t90.5 97.5t78.5 31q58 0 98 -14v96h-106v18h106v83l-93 3v6l165 41h6v-133h114v-18h-114v-556zM283.5 68.5
q25.5 16.5 43.5 41.5v342q-40 42 -99 42q-56 0 -96.5 -45.5t-40.5 -161.5q0 -69 17 -122t48 -83t72 -30q30 0 55.5 16.5z" />
    <glyph glyph-name="Emacron" unicode="&#x112;" horiz-adv-x="588" 
d="M526 221v-221h-495v6l78 37v589l-78 37v6h482v-221h-6l-23 61q-26 74 -39 100.5t-31 34t-61 7.5h-160v-306h103q27 0 41.5 8.5t23.5 25t25 57.5l13 34h6v-268h-6l-14 35q-15 40 -24.5 56.5t-23.5 25t-41 8.5h-103v-315h173q43 0 61 7.5t31 33.5t39 101l23 61h6zM138 753
v38h310v-38h-310z" />
    <glyph glyph-name="emacron" unicode="&#x113;" horiz-adv-x="421" 
d="M399 79q-107 -90 -148 -90q-65 0 -117.5 29.5t-83 87.5t-30.5 140q0 101 42 166t94.5 94.5t83.5 29.5q150 0 152 -168q0 -9 -18 -23.5t-40 -26.5t-31 -12h-219q2 -75 28.5 -133t74 -90.5t109.5 -32.5q27 0 46.5 8.5t52.5 27.5zM123 455.5q-37 -37.5 -39 -131.5h231
q5 82 -26 125.5t-79 43.5q-50 0 -87 -37.5zM79 600v35h311v-35h-311z" />
    <glyph glyph-name="Ebreve" unicode="&#x114;" horiz-adv-x="588" 
d="M526 221v-221h-495v6l78 37v589l-78 37v6h482v-221h-6l-23 61q-26 74 -39 100.5t-31 34t-61 7.5h-160v-306h103q27 0 41.5 8.5t23.5 25t25 57.5l13 34h6v-268h-6l-14 35q-15 40 -24.5 56.5t-23.5 25t-41 8.5h-103v-315h173q43 0 61 7.5t31 33.5t39 101l23 61h6zM409 842
q0 -54 -33.5 -86.5t-82.5 -32.5q-48 0 -81.5 32.5t-33.5 86.5h7q1 -24 34.5 -38.5t73.5 -14.5q41 0 74 14.5t35 38.5h7z" />
    <glyph glyph-name="ebreve" unicode="&#x115;" horiz-adv-x="421" 
d="M399 79q-107 -90 -148 -90q-65 0 -117.5 29.5t-83 87.5t-30.5 140q0 101 42 166t94.5 94.5t83.5 29.5q150 0 152 -168q0 -9 -18 -23.5t-40 -26.5t-31 -12h-219q2 -75 28.5 -133t74 -90.5t109.5 -32.5q27 0 46.5 8.5t52.5 27.5zM123 455.5q-37 -37.5 -39 -131.5h231
q5 82 -26 125.5t-79 43.5q-50 0 -87 -37.5zM350 747q0 -52 -15.5 -90.5t-42 -59t-57.5 -20.5t-57.5 20.5t-41.5 59t-15 90.5h7q1 -50 33.5 -79t73.5 -29t73.5 29.5t33.5 78.5h8z" />
    <glyph glyph-name="Edotaccent" unicode="&#x116;" horiz-adv-x="588" 
d="M526 221v-221h-495v6l78 37v589l-78 37v6h482v-221h-6l-23 61q-26 74 -39 100.5t-31 34t-61 7.5h-160v-306h103q27 0 41.5 8.5t23.5 25t25 57.5l13 34h6v-268h-6l-14 35q-15 40 -24.5 56.5t-23.5 25t-41 8.5h-103v-315h173q43 0 61 7.5t31 33.5t39 101l23 61h6z
M255.5 790q-15.5 15 -15.5 38q0 21 15.5 36t38.5 15q22 0 37 -15t15 -36q0 -23 -14.5 -38t-37.5 -15t-38.5 15z" />
    <glyph glyph-name="edotaccent" unicode="&#x117;" horiz-adv-x="421" 
d="M399 79q-107 -90 -148 -90q-65 0 -117.5 29.5t-83 87.5t-30.5 140q0 101 42 166t94.5 94.5t83.5 29.5q150 0 152 -168q0 -9 -18 -23.5t-40 -26.5t-31 -12h-219q2 -75 28.5 -133t74 -90.5t109.5 -32.5q27 0 46.5 8.5t52.5 27.5zM123 455.5q-37 -37.5 -39 -131.5h231
q5 82 -26 125.5t-79 43.5q-50 0 -87 -37.5zM197.5 639q-15.5 15 -15.5 38q0 21 15.5 36t38.5 15q22 0 37 -15t15 -36q0 -23 -14.5 -38t-37.5 -15t-38.5 15z" />
    <glyph glyph-name="Eogonek" unicode="&#x118;" horiz-adv-x="588" 
d="M534 -179q-35 -36 -62.5 -56.5t-39.5 -20.5q-29 0 -57.5 16.5t-28.5 57.5q0 31 17 65.5t55 94.5l14 22h-401v6l78 37v589l-78 37v6h482v-221h-6l-23 61q-26 74 -39 100.5t-31 34t-61 7.5h-160v-306h103q27 0 41.5 8.5t23.5 25t25 57.5l13 34h6v-268h-6l-14 35
q-15 40 -24.5 56.5t-23.5 25t-41 8.5h-103v-315h173q43 0 61 7.5t31 33.5t39 101l23 61h6v-221h-79q-20 -33 -32 -69.5t-12 -65.5q0 -33 15.5 -52.5t47.5 -19.5q15 0 30 8.5t34 23.5z" />
    <glyph glyph-name="eogonek" unicode="&#x119;" horiz-adv-x="421" 
d="M370 -175l5 -4q-36 -36 -63.5 -56.5t-39.5 -20.5q-29 0 -57 16.5t-28 57.5q0 34 24.5 75t78.5 108q-24 -12 -39 -12q-65 0 -117.5 29.5t-83 87.5t-30.5 140q0 101 42 166t94.5 94.5t83.5 29.5q150 0 152 -168q0 -9 -18 -23.5t-40 -26.5t-31 -12h-219q2 -75 28.5 -133
t74 -90.5t109.5 -32.5q27 0 46.5 8.5t52.5 27.5l4 -7q-52 -43 -77 -59q-35 -40 -55 -84.5t-20 -80.5q0 -28 14.5 -45t44.5 -17q26 0 64 32zM123 455.5q-37 -37.5 -39 -131.5h231q5 82 -26 125.5t-79 43.5q-50 0 -87 -37.5z" />
    <glyph glyph-name="Ecaron" unicode="&#x11a;" horiz-adv-x="588" 
d="M526 221v-221h-495v6l78 37v589l-78 37v6h482v-221h-6l-23 61q-26 74 -39 100.5t-31 34t-61 7.5h-160v-306h103q27 0 41.5 8.5t23.5 25t25 57.5l13 34h6v-268h-6l-14 35q-15 40 -24.5 56.5t-23.5 25t-41 8.5h-103v-315h173q43 0 61 7.5t31 33.5t39 101l23 61h6zM293 710
l-124 143v6l122 -70h3l123 70v-6l-120 -143h-4z" />
    <glyph glyph-name="ecaron" unicode="&#x11b;" horiz-adv-x="421" 
d="M399 79q-107 -90 -148 -90q-65 0 -117.5 29.5t-83 87.5t-30.5 140q0 101 42 166t94.5 94.5t83.5 29.5q150 0 152 -168q0 -9 -18 -23.5t-40 -26.5t-31 -12h-219q2 -75 28.5 -133t74 -90.5t109.5 -32.5q27 0 46.5 8.5t52.5 27.5zM123 455.5q-37 -37.5 -39 -131.5h231
q5 82 -26 125.5t-79 43.5q-50 0 -87 -37.5zM235 572l-115 191l4 6l109 -103h3l111 103l3 -6l-111 -191h-4z" />
    <glyph glyph-name="Gcircumflex" unicode="&#x11c;" horiz-adv-x="603" 
d="M241 336h292l6 -5l-4 -345h-6l-47 89h-3q-34 -29 -87 -57t-74 -28q-80 0 -145.5 45t-103 123t-37.5 173q0 127 58.5 206.5t129 114t104.5 34.5q81 0 139 -31t79 -74l-69 -127h-6q2 9 2 26q0 46 -25 82.5t-66.5 57t-88.5 20.5q-37 0 -79 -18t-74.5 -70.5t-32.5 -147.5
t33 -176t92 -129t134 -48q30 0 50.5 5.5t42.5 17.5v225l-214 31v6zM200 713v6l124 143h4l120 -143v-6l-123 70h-3z" />
    <glyph glyph-name="gcircumflex" unicode="&#x11d;" horiz-adv-x="497" 
d="M534 491q-36 0 -89.5 6.5t-96.5 15.5l-1 -3q42 -24 62 -60t20 -80q0 -58 -33 -102.5t-76 -69.5t-68 -25q-66 0 -111 27q-25 -24 -37 -39.5t-12 -34.5q0 -26 19.5 -43.5t63.5 -20.5l163 -12q65 -4 107.5 -24.5t42.5 -78.5q0 -31 -19.5 -78t-76.5 -86.5t-159 -39.5
q-90 0 -156.5 33.5t-72.5 90.5q-1 7 17.5 24.5t88.5 78.5q19 15 32 27q-54 7 -88 32.5t-34 66.5q0 6 38 41q53 53 70 72q-62 45 -62 133q0 58 33 102.5t76 69t68 24.5q5 0 45 -4q90 -10 129 -10h117v-33zM344.5 412.5q-18.5 40.5 -51.5 63t-74 22.5q-39 -1 -64.5 -27.5
t-25.5 -82.5q0 -50 18.5 -90.5t50.5 -63t70 -22.5q42 0 68.5 26t26.5 81q0 53 -18.5 93.5zM417 -38.5q-47 17.5 -126 24.5l-131 9q-78 -57 -78 -97q0 -27 28 -50t75.5 -36t104.5 -13q53 0 92.5 14t60.5 37.5t21 50.5q0 43 -47 60.5zM148 569l-4 6l115 191h4l111 -191l-3 -6
l-111 104h-3z" />
    <glyph glyph-name="Gbreve" unicode="&#x11e;" horiz-adv-x="603" 
d="M241 336h292l6 -5l-4 -345h-6l-47 89h-3q-34 -29 -87 -57t-74 -28q-80 0 -145.5 45t-103 123t-37.5 173q0 127 58.5 206.5t129 114t104.5 34.5q81 0 139 -31t79 -74l-69 -127h-6q2 9 2 26q0 46 -25 82.5t-66.5 57t-88.5 20.5q-37 0 -79 -18t-74.5 -70.5t-32.5 -147.5
t33 -176t92 -129t134 -48q30 0 50.5 5.5t42.5 17.5v225l-214 31v6zM440 842q0 -54 -33.5 -86.5t-82.5 -32.5q-48 0 -81.5 32.5t-33.5 86.5h7q1 -24 34.5 -38.5t73.5 -14.5q41 0 74 14.5t35 38.5h7z" />
    <glyph glyph-name="gbreve" unicode="&#x11f;" horiz-adv-x="497" 
d="M534 491q-36 0 -89.5 6.5t-96.5 15.5l-1 -3q42 -24 62 -60t20 -80q0 -58 -33 -102.5t-76 -69.5t-68 -25q-66 0 -111 27q-25 -24 -37 -39.5t-12 -34.5q0 -26 19.5 -43.5t63.5 -20.5l163 -12q65 -4 107.5 -24.5t42.5 -78.5q0 -31 -19.5 -78t-76.5 -86.5t-159 -39.5
q-90 0 -156.5 33.5t-72.5 90.5q-1 7 17.5 24.5t88.5 78.5q19 15 32 27q-54 7 -88 32.5t-34 66.5q0 6 38 41q53 53 70 72q-62 45 -62 133q0 58 33 102.5t76 69t68 24.5q5 0 45 -4q90 -10 129 -10h117v-33zM344.5 412.5q-18.5 40.5 -51.5 63t-74 22.5q-39 -1 -64.5 -27.5
t-25.5 -82.5q0 -50 18.5 -90.5t50.5 -63t70 -22.5q42 0 68.5 26t26.5 81q0 53 -18.5 93.5zM417 -38.5q-47 17.5 -126 24.5l-131 9q-78 -57 -78 -97q0 -27 28 -50t75.5 -36t104.5 -13q53 0 92.5 14t60.5 37.5t21 50.5q0 43 -47 60.5zM375 749q0 -52 -15.5 -90.5t-42 -59
t-57.5 -20.5t-57.5 20.5t-41.5 59t-15 90.5h7q1 -50 33.5 -79t73.5 -29t73.5 29.5t33.5 78.5h8z" />
    <glyph glyph-name="Gdotaccent" unicode="&#x120;" horiz-adv-x="603" 
d="M241 336h292l6 -5l-4 -345h-6l-47 89h-3q-34 -29 -87 -57t-74 -28q-80 0 -145.5 45t-103 123t-37.5 173q0 127 58.5 206.5t129 114t104.5 34.5q81 0 139 -31t79 -74l-69 -127h-6q2 9 2 26q0 46 -25 82.5t-66.5 57t-88.5 20.5q-37 0 -79 -18t-74.5 -70.5t-32.5 -147.5
t33 -176t92 -129t134 -48q30 0 50.5 5.5t42.5 17.5v225l-214 31v6zM286.5 790q-15.5 15 -15.5 38q0 21 15.5 36t38.5 15q22 0 37 -15t15 -36q0 -23 -14.5 -38t-37.5 -15t-38.5 15z" />
    <glyph glyph-name="gdotaccent" unicode="&#x121;" horiz-adv-x="497" 
d="M534 491q-36 0 -89.5 6.5t-96.5 15.5l-1 -3q42 -24 62 -60t20 -80q0 -58 -33 -102.5t-76 -69.5t-68 -25q-66 0 -111 27q-25 -24 -37 -39.5t-12 -34.5q0 -26 19.5 -43.5t63.5 -20.5l163 -12q65 -4 107.5 -24.5t42.5 -78.5q0 -31 -19.5 -78t-76.5 -86.5t-159 -39.5
q-90 0 -156.5 33.5t-72.5 90.5q-1 7 17.5 24.5t88.5 78.5q19 15 32 27q-54 7 -88 32.5t-34 66.5q0 6 38 41q53 53 70 72q-62 45 -62 133q0 58 33 102.5t76 69t68 24.5q5 0 45 -4q90 -10 129 -10h117v-33zM344.5 412.5q-18.5 40.5 -51.5 63t-74 22.5q-39 -1 -64.5 -27.5
t-25.5 -82.5q0 -50 18.5 -90.5t50.5 -63t70 -22.5q42 0 68.5 26t26.5 81q0 53 -18.5 93.5zM417 -38.5q-47 17.5 -126 24.5l-131 9q-78 -57 -78 -97q0 -27 28 -50t75.5 -36t104.5 -13q53 0 92.5 14t60.5 37.5t21 50.5q0 43 -47 60.5zM221.5 641q-15.5 15 -15.5 38
q0 21 15.5 36t38.5 15q22 0 37 -15t15 -36q0 -23 -14.5 -38t-37.5 -15t-38.5 15z" />
    <glyph glyph-name="uni0122" unicode="&#x122;" horiz-adv-x="603" 
d="M241 336h292l6 -5l-4 -345h-6l-47 89h-3q-34 -29 -87 -57t-74 -28q-80 0 -145.5 45t-103 123t-37.5 173q0 127 58.5 206.5t129 114t104.5 34.5q81 0 139 -31t79 -74l-69 -127h-6q2 9 2 26q0 46 -25 82.5t-66.5 57t-88.5 20.5q-37 0 -79 -18t-74.5 -70.5t-32.5 -147.5
t33 -176t92 -129t134 -48q30 0 50.5 5.5t42.5 17.5v225l-214 31v6zM340 -115q15 -14 15 -37q0 -24 -18 -52t-63 -78h-6l34 81q-22 2 -36.5 16t-14.5 33q0 21 15 36t37 15t37 -14z" />
    <glyph glyph-name="uni0123" unicode="&#x123;" horiz-adv-x="497" 
d="M534 491q-36 0 -89.5 6.5t-96.5 15.5l-1 -3q42 -24 62 -60t20 -80q0 -58 -33 -102.5t-76 -69.5t-68 -25q-66 0 -111 27q-25 -24 -37 -39.5t-12 -34.5q0 -26 19.5 -43.5t63.5 -20.5l163 -12q65 -4 107.5 -24.5t42.5 -78.5q0 -31 -19.5 -78t-76.5 -86.5t-159 -39.5
q-90 0 -156.5 33.5t-72.5 90.5q-1 7 17.5 24.5t88.5 78.5q19 15 32 27q-54 7 -88 32.5t-34 66.5q0 6 38 41q53 53 70 72q-62 45 -62 133q0 58 33 102.5t76 69t68 24.5q5 0 45 -4q90 -10 129 -10h117v-33zM344.5 412.5q-18.5 40.5 -51.5 63t-74 22.5q-39 -1 -64.5 -27.5
t-25.5 -82.5q0 -50 18.5 -90.5t50.5 -63t70 -22.5q42 0 68.5 26t26.5 81q0 53 -18.5 93.5zM417 -38.5q-47 17.5 -126 24.5l-131 9q-78 -57 -78 -97q0 -27 28 -50t75.5 -36t104.5 -13q53 0 92.5 14t60.5 37.5t21 50.5q0 43 -47 60.5zM260 727q22 -2 36.5 -16t14.5 -34
t-15.5 -35t-37.5 -15t-36.5 14t-14.5 37t18 52t63 78h6z" />
    <glyph glyph-name="Hcircumflex" unicode="&#x124;" horiz-adv-x="660" 
d="M629 675v-6l-81 -35v-593l81 -35v-6h-246v6l80 35v286h-266v-286l80 -35v-6h-246v6l80 35v593l-80 35v6h246v-6l-80 -35v-289h266v289l-80 35v6h246zM205 713v6l124 143h4l120 -143v-6l-123 70h-3z" />
    <glyph glyph-name="hcircumflex" unicode="&#x125;" horiz-adv-x="518" 
d="M439 33l82 -27v-6h-243v6l82 27v329q0 56 -28.5 84t-70.5 28q-48 0 -97 -69v-372l82 -27v-6h-242v6l82 27v678l-93 3v6l165 41h6v-327q38 46 73 72.5t51 26.5q68 0 109 -40t41 -129zM4 788v6l124 143h4l120 -143v-6l-123 70h-3z" />
    <glyph glyph-name="Hbar" unicode="&#x126;" horiz-adv-x="660" 
d="M629 675v-6l-81 -35v-127h65v-18h-65v-448l81 -35v-6h-246v6l80 35v286h-266v-286l80 -35v-6h-246v6l80 35v448h-65v18h65v127l-80 35v6h246v-6l-80 -35v-127h266v127l-80 35v6h246zM197 345h266v144h-266v-144z" />
    <glyph glyph-name="hbar" unicode="&#x127;" horiz-adv-x="518" 
d="M439 33l82 -27v-6h-243v6l82 27v329q0 56 -28.5 84t-70.5 28q-48 0 -97 -69v-372l82 -27v-6h-242v6l82 27v560h-104v18h104v100l-93 3v6l165 41h6v-150h116v-18h-116v-159q38 46 73 72.5t51 26.5q68 0 109 -40t41 -129z" />
    <glyph glyph-name="Itilde" unicode="&#x128;" horiz-adv-x="308" 
d="M111 41v593l-80 35v6h246v-6l-80 -35v-593l80 -35v-6h-246v6zM328 850q-10 -49 -37 -81t-63 -32q-19 0 -39.5 6.5t-51.5 18.5q-26 11 -44 17t-34 6q-21 0 -38 -9t-29 -38h-5q13 44 38.5 74t59.5 30q18 0 37 -6t48 -18t48 -18t36 -6q22 0 38.5 10t29.5 47z" />
    <glyph glyph-name="itilde" unicode="&#x129;" horiz-adv-x="257" 
d="M96 33v456l-82 29v6h161v-35l-1 -456l82 -27v-6h-242v6zM302 703q-25 -53 -49 -81t-56 -28q-19 0 -36.5 6t-44.5 19q-25 11 -39.5 16.5t-28.5 5.5q-22 0 -41 -10t-42 -45l-4 3q27 55 49 81.5t54 26.5q18 0 35.5 -6t43.5 -18q24 -11 40 -16.5t31 -5.5q22 0 41.5 9.5
t42.5 45.5z" />
    <glyph glyph-name="Imacron" unicode="&#x12a;" horiz-adv-x="308" 
d="M111 41v593l-80 35v6h246v-6l-80 -35v-593l80 -35v-6h-246v6zM-1 753v38h310v-38h-310z" />
    <glyph glyph-name="imacron" unicode="&#x12b;" horiz-adv-x="257" 
d="M96 33v456l-82 29v6h161v-35l-1 -456l82 -27v-6h-242v6zM-24 600v35h311v-35h-311z" />
    <glyph glyph-name="Ibreve" unicode="&#x12c;" horiz-adv-x="308" 
d="M111 41v593l-80 35v6h246v-6l-80 -35v-593l80 -35v-6h-246v6zM270 842q0 -54 -33.5 -86.5t-82.5 -32.5q-48 0 -81.5 32.5t-33.5 86.5h7q1 -24 34.5 -38.5t73.5 -14.5q41 0 74 14.5t35 38.5h7z" />
    <glyph glyph-name="ibreve" unicode="&#x12d;" horiz-adv-x="257" 
d="M96 33v456l-82 29v6h161v-35l-1 -456l82 -27v-6h-242v6zM246 747q0 -52 -15.5 -90.5t-42 -59t-57.5 -20.5t-57.5 20.5t-41.5 59t-15 90.5h7q1 -50 33.5 -79t73.5 -29t73.5 29.5t33.5 78.5h8z" />
    <glyph glyph-name="Iogonek" unicode="&#x12e;" horiz-adv-x="308" 
d="M277 669l-80 -35v-593l80 -35v-6h-115q-20 -33 -32 -69.5t-12 -65.5q0 -33 15.5 -52.5t47.5 -19.5q15 0 30 8.5t34 23.5l4 -4q-35 -36 -62.5 -56.5t-39.5 -20.5q-29 0 -57.5 16.5t-28.5 57.5q0 31 17 65.5t55 94.5l14 22h-116v6l80 35v593l-80 35v6h246v-6z" />
    <glyph glyph-name="iogonek" unicode="&#x12f;" horiz-adv-x="257" 
d="M93.5 639q-15.5 15 -15.5 38q0 21 15.5 36t38.5 15q22 0 37 -15t15 -36q0 -23 -14.5 -38t-37.5 -15t-38.5 15zM256 0h-113q-20 -33 -32 -69.5t-12 -65.5q0 -33 15.5 -52.5t47.5 -19.5q15 0 30 8.5t34 23.5l4 -4q-35 -36 -62.5 -56.5t-39.5 -20.5q-29 0 -57.5 16.5
t-28.5 57.5q0 31 17 65.5t55 94.5l14 22h-114v6l82 27v456l-82 29v6h161v-35l-1 -456l82 -27v-6z" />
    <glyph glyph-name="Idotaccent" unicode="&#x130;" horiz-adv-x="308" 
d="M111 41v593l-80 35v6h246v-6l-80 -35v-593l80 -35v-6h-246v6zM116.5 790q-15.5 15 -15.5 38q0 21 15.5 36t38.5 15q22 0 37 -15t15 -36q0 -23 -14.5 -38t-37.5 -15t-38.5 15z" />
    <glyph glyph-name="dotlessi" unicode="&#x131;" horiz-adv-x="257" 
d="M96 33v456l-82 29v6h161v-35l-1 -456l82 -27v-6h-242v6z" />
    <glyph glyph-name="Jcircumflex" unicode="&#x134;" horiz-adv-x="406" 
d="M312 158q0 -21 -27.5 -63.5t-66 -75.5t-70.5 -33q-52 0 -86.5 22.5t-57.5 63.5l74 139l5 -2q-8 -21 -8 -51q0 -34 12 -67t32.5 -53.5t44.5 -20.5q21 0 34.5 11t22 49.5t6.5 115.5v441l-81 35v6h246v-6l-80 -35v-476zM143 713v6l124 143h4l120 -143v-6l-123 70h-3z" />
    <glyph glyph-name="jcircumflex" unicode="&#x135;" horiz-adv-x="234" 
d="M138.5 -74q-27.5 -45 -62.5 -78t-87 -74l-35 -28l-4 8q55 50 96.5 120.5t41.5 149.5v465l-82 29v6h160v-503q0 -50 -27.5 -95zM10 567l-4 6l115 191h4l111 -191l-3 -6l-111 104h-3z" />
    <glyph glyph-name="uni0136" unicode="&#x136;" horiz-adv-x="565" 
d="M283 402l267 -396v-6h-202v6l82 37l-207 297l-26 -27v-272l80 -35v-6h-246v6l80 35v593l-80 35v6h246v-6l-80 -35v-293l173 179q45 48 45 82q0 22 -15 38t-43 29v6h187v-6zM314 -115q15 -14 15 -37q0 -24 -18 -52t-63 -78h-6l34 81q-22 2 -36.5 16t-14.5 33q0 21 15 36
t37 15t37 -14z" />
    <glyph glyph-name="uni0137" unicode="&#x137;" horiz-adv-x="480" 
d="M263 326l215 -320v-6h-187v6l79 25l-166 240l-40 -37v-201l82 -27v-6h-242v6l82 27v678l-93 3v6l165 41h6v-504l149 143q38 35 38 60q0 33 -70 58v6h188v-6zM274 -115q15 -14 15 -37q0 -24 -18 -52t-63 -78h-6l34 81q-22 2 -36.5 16t-14.5 33q0 21 15 36t37 15t37 -14z
" />
    <glyph glyph-name="kgreenlandic" unicode="&#x138;" horiz-adv-x="491" 
d="M279 315l210 -309v-6h-187v6l80 25l-166 240l-42 -39v-199l82 -27v-6h-242v6l82 27v456l-82 29v6h161v-35l-1 -233l146 140q42 39 42 65q0 34 -70 57v6h189v-6l-256 -238z" />
    <glyph glyph-name="Lacute" unicode="&#x139;" horiz-adv-x="535" 
d="M505 229v-229h-470v6l78 37l-1 591l-80 35v6h246v-6l-81 -35v-616h159q39 0 57.5 12t32.5 45t43 123l10 31h6zM213 859h102v-6l-156 -146h-7z" />
    <glyph glyph-name="lacute" unicode="&#x13a;" horiz-adv-x="250" 
d="M164 33l82 -27v-6h-242v6l82 27v678l-93 3v6l165 41h6v-728zM202 976h89v-6l-172 -175h-8z" />
    <glyph glyph-name="uni013B" unicode="&#x13b;" horiz-adv-x="535" 
d="M505 229v-229h-470v6l78 37l-1 591l-80 35v6h246v-6l-81 -35v-616h159q39 0 57.5 12t32.5 45t43 123l10 31h6zM316 -115q15 -14 15 -37q0 -24 -18 -52t-63 -78h-6l34 81q-22 2 -36.5 16t-14.5 33q0 21 15 36t37 15t37 -14z" />
    <glyph glyph-name="uni013C" unicode="&#x13c;" horiz-adv-x="250" 
d="M164 33l82 -27v-6h-242v6l82 27v678l-93 3v6l165 41h6v-728zM163 -115q15 -14 15 -37q0 -24 -18 -52t-63 -78h-6l34 81q-22 2 -36.5 16t-14.5 33q0 21 15 36t37 15t37 -14z" />
    <glyph glyph-name="Lcaron" unicode="&#x13d;" horiz-adv-x="535" 
d="M505 229v-229h-470v6l78 37l-1 591l-80 35v6h246v-6l-81 -35v-616h159q39 0 57.5 12t32.5 45t43 123l10 31h6zM420 667.5q13 -12.5 13 -36.5q0 -22 -11 -52.5t-43 -103.5l-19 -43h-7l30 157q-19 2 -32 15t-13 31q0 19 14 32t34 13q21 0 34 -12.5z" />
    <glyph glyph-name="lcaron" unicode="&#x13e;" horiz-adv-x="250" 
d="M164 33l82 -27v-6h-242v6l82 27v678l-93 3v6l165 41h6v-728zM298 746.5q13 -12.5 13 -36.5q0 -22 -11 -52.5t-43 -103.5l-19 -43h-7l30 157q-19 2 -32 15t-13 31q0 19 14 32t34 13q21 0 34 -12.5z" />
    <glyph glyph-name="Ldot" unicode="&#x13f;" horiz-adv-x="548" 
d="M505 229v-229h-470v6l78 37l-1 591l-80 35v6h246v-6l-81 -35v-616h159q39 0 57.5 12t32.5 45t43 123l10 31h6zM377.5 322q-15.5 15 -15.5 38q0 21 15.5 36.5t38.5 15.5q22 0 37.5 -15.5t15.5 -36.5q0 -22 -15 -37.5t-38 -15.5t-38.5 15z" />
    <glyph glyph-name="ldot" unicode="&#x140;" horiz-adv-x="383" 
d="M164 33l82 -27v-6h-242v6l82 27v678l-93 3v6l165 41h6v-728zM276.5 311q-15.5 15 -15.5 38q0 21 15.5 36.5t38.5 15.5q22 0 37.5 -15.5t15.5 -36.5q0 -22 -15 -37.5t-38 -15.5t-38.5 15z" />
    <glyph glyph-name="Lslash" unicode="&#x141;" horiz-adv-x="535" 
d="M505 229v-229h-470v6l78 37v244l-80 -69l-13 14l93 80l-1 322l-80 35v6h246v-6l-81 -35v-249l85 73l13 -14l-98 -85v-341h159q39 0 57.5 12t32.5 45t43 123l10 31h6z" />
    <glyph glyph-name="lslash" unicode="&#x142;" horiz-adv-x="250" 
d="M262 481l-98 -85v-363l82 -27v-6h-242v6l82 27v296l-86 -74l-13 14l99 85v357l-93 3v6l165 41h6v-339l85 73z" />
    <glyph glyph-name="Nacute" unicode="&#x143;" horiz-adv-x="621" 
d="M372 675h163v-683h-36l-380 585h-5v-337q0 -78 12 -119t40.5 -64.5t89.5 -49.5v-7h-164v615l-42 54v6h107l351 -540v1h5v297q0 77 -12 118.5t-41 66.5t-88 50v7zM367 859h102v-6l-156 -146h-7z" />
    <glyph glyph-name="nacute" unicode="&#x144;" horiz-adv-x="536" 
d="M457 33l82 -27v-6h-242v6l82 27v329q0 56 -28.5 84t-70.5 28q-47 0 -96 -67v-374l82 -27v-6h-242v6l82 27v439l-109 -60l-3 5q15 14 41 44q32 36 53.5 54.5t38.5 18.5q12 0 21 -6.5t17 -29t15 -67.5q39 48 74.5 75t52.5 27q68 0 109 -40t41 -129v-331zM343 750h89v-6
l-172 -175h-8z" />
    <glyph glyph-name="uni0145" unicode="&#x145;" horiz-adv-x="621" 
d="M372 675h163v-683h-36l-380 585h-5v-337q0 -78 12 -119t40.5 -64.5t89.5 -49.5v-7h-164v615l-42 54v6h107l351 -540v1h5v297q0 77 -12 118.5t-41 66.5t-88 50v7zM342 -115q15 -14 15 -37q0 -24 -18 -52t-63 -78h-6l34 81q-22 2 -36.5 16t-14.5 33q0 21 15 36t37 15
t37 -14z" />
    <glyph glyph-name="uni0146" unicode="&#x146;" horiz-adv-x="536" 
d="M457 33l82 -27v-6h-242v6l82 27v329q0 56 -28.5 84t-70.5 28q-47 0 -96 -67v-374l82 -27v-6h-242v6l82 27v439l-109 -60l-3 5q15 14 41 44q32 36 53.5 54.5t38.5 18.5q12 0 21 -6.5t17 -29t15 -67.5q39 48 74.5 75t52.5 27q68 0 109 -40t41 -129v-331zM304 -115
q15 -14 15 -37q0 -24 -18 -52t-63 -78h-6l34 81q-22 2 -36.5 16t-14.5 33q0 21 15 36t37 15t37 -14z" />
    <glyph glyph-name="Ncaron" unicode="&#x147;" horiz-adv-x="621" 
d="M372 675h163v-683h-36l-380 585h-5v-337q0 -78 12 -119t40.5 -64.5t89.5 -49.5v-7h-164v615l-42 54v6h107l351 -540v1h5v297q0 77 -12 118.5t-41 66.5t-88 50v7zM308 710l-124 143v6l122 -70h3l123 70v-6l-120 -143h-4z" />
    <glyph glyph-name="ncaron" unicode="&#x148;" horiz-adv-x="536" 
d="M457 33l82 -27v-6h-242v6l82 27v329q0 56 -28.5 84t-70.5 28q-47 0 -96 -67v-374l82 -27v-6h-242v6l82 27v439l-109 -60l-3 5q15 14 41 44q32 36 53.5 54.5t38.5 18.5q12 0 21 -6.5t17 -29t15 -67.5q39 48 74.5 75t52.5 27q68 0 109 -40t41 -129v-331zM266 572l-115 191
l4 6l109 -103h3l111 103l3 -6l-111 -191h-4z" />
    <glyph glyph-name="Eng" unicode="&#x14a;" horiz-adv-x="631" 
d="M511.5 629q47.5 -50 47.5 -154v-359q0 -94 -30.5 -162.5t-69 -108.5t-88.5 -78l-26 -21l-4 8q132 122 132 364v338q0 86 -35.5 125.5t-97.5 39.5q-44 0 -74 -15t-69 -46v-519l81 -35v-6h-246v6l80 35l1 591l-78 37v6h162v-93q49 40 100.5 68.5t70.5 28.5q96 0 143.5 -50z
" />
    <glyph glyph-name="eng" unicode="&#x14b;" horiz-adv-x="526" 
d="M429.5 494.5q41.5 -40.5 41.5 -130.5l-2 -334q0 -57 -28.5 -106t-64.5 -82.5t-85 -71.5q-7 -6 -14.5 -11.5t-14.5 -11.5l-4 8q53 47 93.5 119t40.5 156l1 332q0 56 -28.5 84t-70.5 28q-29 0 -57 -25t-52 -61v-355l81 -27v-6h-242v6l82 27v439l-109 -60l-3 5q15 14 41 44
q32 36 53.5 54.5t38.5 18.5q13 0 22 -7.5t17.5 -33t15.5 -77.5q42 54 81.5 85t57.5 32q67 2 108.5 -38.5z" />
    <glyph glyph-name="Omacron" unicode="&#x14c;" horiz-adv-x="610" 
d="M162 37.5q-63 48.5 -95.5 128t-32.5 170.5q0 119 49.5 197.5t113 115t102.5 36.5q86 0 149 -48.5t95.5 -128t32.5 -170.5q0 -119 -49.5 -197.5t-113 -115t-102.5 -36.5q-86 0 -149 48.5zM458.5 95.5q44.5 55.5 44.5 170.5q0 14 -2 46q-7 89 -39 162.5t-84 116.5t-116 43
q-68 0 -113 -55.5t-45 -171.5q0 -26 1 -40q7 -90 39 -165t85 -118.5t117 -43.5q68 0 112.5 55.5zM150 753v38h310v-38h-310z" />
    <glyph glyph-name="omacron" unicode="&#x14d;" horiz-adv-x="453" 
d="M125 18q-48 29 -76.5 85.5t-28.5 136.5q0 103 38 169t86 95.5t78 29.5q58 0 106 -29t76.5 -85.5t28.5 -136.5q0 -104 -38 -170t-86 -95t-78 -29q-58 0 -106 29zM335.5 74q31.5 38 31.5 128q0 22 -1 34q-5 75 -29 132t-62 88t-86 31q-40 0 -72 -39t-32 -130q0 -20 1 -31
q5 -75 29 -132t62.5 -88t86.5 -31q40 0 71.5 38zM70 600v35h311v-35h-311z" />
    <glyph glyph-name="Obreve" unicode="&#x14e;" horiz-adv-x="610" 
d="M162 37.5q-63 48.5 -95.5 128t-32.5 170.5q0 119 49.5 197.5t113 115t102.5 36.5q86 0 149 -48.5t95.5 -128t32.5 -170.5q0 -119 -49.5 -197.5t-113 -115t-102.5 -36.5q-86 0 -149 48.5zM458.5 95.5q44.5 55.5 44.5 170.5q0 14 -2 46q-7 89 -39 162.5t-84 116.5t-116 43
q-68 0 -113 -55.5t-45 -171.5q0 -26 1 -40q7 -90 39 -165t85 -118.5t117 -43.5q68 0 112.5 55.5zM421 842q0 -54 -33.5 -86.5t-82.5 -32.5q-48 0 -81.5 32.5t-33.5 86.5h7q1 -24 34.5 -38.5t73.5 -14.5q41 0 74 14.5t35 38.5h7z" />
    <glyph glyph-name="obreve" unicode="&#x14f;" horiz-adv-x="453" 
d="M125 18q-48 29 -76.5 85.5t-28.5 136.5q0 103 38 169t86 95.5t78 29.5q58 0 106 -29t76.5 -85.5t28.5 -136.5q0 -104 -38 -170t-86 -95t-78 -29q-58 0 -106 29zM335.5 74q31.5 38 31.5 128q0 22 -1 34q-5 75 -29 132t-62 88t-86 31q-40 0 -72 -39t-32 -130q0 -20 1 -31
q5 -75 29 -132t62.5 -88t86.5 -31q40 0 71.5 38zM341 747q0 -52 -15.5 -90.5t-42 -59t-57.5 -20.5t-57.5 20.5t-41.5 59t-15 90.5h7q1 -50 33.5 -79t73.5 -29t73.5 29.5t33.5 78.5h8z" />
    <glyph glyph-name="Ohungarumlaut" unicode="&#x150;" horiz-adv-x="610" 
d="M162 37.5q-63 48.5 -95.5 128t-32.5 170.5q0 119 49.5 197.5t113 115t102.5 36.5q86 0 149 -48.5t95.5 -128t32.5 -170.5q0 -119 -49.5 -197.5t-113 -115t-102.5 -36.5q-86 0 -149 48.5zM458.5 95.5q44.5 55.5 44.5 170.5q0 14 -2 46q-7 89 -39 162.5t-84 116.5t-116 43
q-68 0 -113 -55.5t-45 -171.5q0 -26 1 -40q7 -90 39 -165t85 -118.5t117 -43.5q68 0 112.5 55.5zM236 705h-5l72 157h74v-6zM364 705h-5l72 157h74v-6z" />
    <glyph glyph-name="ohungarumlaut" unicode="&#x151;" horiz-adv-x="453" 
d="M125 18q-48 29 -76.5 85.5t-28.5 136.5q0 103 38 169t86 95.5t78 29.5q58 0 106 -29t76.5 -85.5t28.5 -136.5q0 -104 -38 -170t-86 -95t-78 -29q-58 0 -106 29zM335.5 74q31.5 38 31.5 128q0 22 -1 34q-5 75 -29 132t-62 88t-86 31q-40 0 -72 -39t-32 -130q0 -20 1 -31
q5 -75 29 -132t62.5 -88t86.5 -31q40 0 71.5 38zM234 750h67v-6l-130 -175h-5zM342 750h67v-6l-130 -175h-5z" />
    <glyph glyph-name="OE" unicode="&#x152;" horiz-adv-x="867" 
d="M805 221v-221h-418q-128 2 -207.5 50t-114 122t-34.5 161q0 98 40.5 175.5t121 122t194.5 44.5h405v-221h-6l-23 61q-26 74 -39 100.5t-31 34t-61 7.5h-160v-306h103q27 0 41.5 8.5t23.5 25t25 57.5l13 34h6v-268h-6l-14 35q-15 40 -24.5 56.5t-23.5 25t-41 8.5h-103
v-315h173q43 0 61 7.5t31 33.5t39 101l23 61h6zM387 19v635q-133 -2 -200 -88.5t-67 -232.5q0 -309 266 -313z" />
    <glyph glyph-name="oe" unicode="&#x153;" horiz-adv-x="774" 
d="M753 79q-107 -90 -148 -90q-70 0 -124.5 33.5t-82.5 96.5q-23 -45 -55 -74.5t-62.5 -42.5t-49.5 -13q-58 0 -106 29t-76.5 85.5t-28.5 136.5q0 103 38 169t86 95.5t78 29.5q63 0 113.5 -33.5t76.5 -96.5q24 45 59.5 74.5t69 43.5t52.5 14q150 0 153 -168q0 -9 -18 -23.5
t-40.5 -26.5t-31.5 -12h-218q2 -75 28.5 -133t73.5 -90.5t109 -32.5q28 0 48 8.5t51 27.5zM477 455.5q-37 -37.5 -39 -131.5h230q5 82 -26 125.5t-79 43.5q-49 0 -86 -37.5zM335.5 74q31.5 38 31.5 128q0 22 -1 34q-5 75 -29 132t-62 88t-86 31q-40 0 -72 -39t-32 -130
q0 -20 1 -31q5 -75 29 -132t62.5 -88t86.5 -31q40 0 71.5 38z" />
    <glyph glyph-name="Racute" unicode="&#x154;" horiz-adv-x="597" 
d="M368 335l208 -328v-7h-199v6l81 37l-177 284h-84v-286l81 -35v-6h-246v6l80 35l1 591l-78 37v6h273q115 0 176 -37.5t61 -112.5q0 -124 -179 -190h2zM197 345h93q78 0 120 43t42 120q0 149 -163 149h-92v-312zM372 859h102v-6l-156 -146h-7z" />
    <glyph glyph-name="racute" unicode="&#x155;" horiz-adv-x="415" 
d="M433 485l-14 -19q-17 -26 -32 -41t-30 -15q-11 0 -23 7t-30 21q-19 15 -30 21.5t-23 6.5q-15 0 -33 -21.5t-34 -52.5v-359l82 -27v-6h-242v6l82 27v439l-109 -60l-3 5q15 14 41 44q32 36 53.5 54.5t38.5 18.5q13 0 22 -7t17 -32t15 -75q26 39 58.5 77t40.5 38
q9 0 20.5 -6.5t32.5 -21.5q23 -17 37 -25t26 -8q8 0 16 3.5t12 6.5t6 4zM281 750h89v-6l-172 -175h-8z" />
    <glyph glyph-name="uni0156" unicode="&#x156;" horiz-adv-x="597" 
d="M368 335l208 -328v-7h-199v6l81 37l-177 284h-84v-286l81 -35v-6h-246v6l80 35l1 591l-78 37v6h273q115 0 176 -37.5t61 -112.5q0 -124 -179 -190h2zM197 345h93q78 0 120 43t42 120q0 149 -163 149h-92v-312zM351 -115q15 -14 15 -37q0 -24 -18 -52t-63 -78h-6l34 81
q-22 2 -36.5 16t-14.5 33q0 21 15 36t37 15t37 -14z" />
    <glyph glyph-name="uni0157" unicode="&#x157;" horiz-adv-x="415" 
d="M433 485l-14 -19q-17 -26 -32 -41t-30 -15q-11 0 -23 7t-30 21q-19 15 -30 21.5t-23 6.5q-15 0 -33 -21.5t-34 -52.5v-359l82 -27v-6h-242v6l82 27v439l-109 -60l-3 5q15 14 41 44q32 36 53.5 54.5t38.5 18.5q13 0 22 -7t17 -32t15 -75q26 39 58.5 77t40.5 38
q9 0 20.5 -6.5t32.5 -21.5q23 -17 37 -25t26 -8q8 0 16 3.5t12 6.5t6 4zM180 -115q15 -14 15 -37q0 -24 -18 -52t-63 -78h-6l34 81q-22 2 -36.5 16t-14.5 33q0 21 15 36t37 15t37 -14z" />
    <glyph glyph-name="Rcaron" unicode="&#x158;" horiz-adv-x="597" 
d="M368 335l208 -328v-7h-199v6l81 37l-177 284h-84v-286l81 -35v-6h-246v6l80 35l1 591l-78 37v6h273q115 0 176 -37.5t61 -112.5q0 -124 -179 -190h2zM197 345h93q78 0 120 43t42 120q0 149 -163 149h-92v-312zM314 710l-124 143v6l122 -70h3l123 70v-6l-120 -143h-4z" />
    <glyph glyph-name="rcaron" unicode="&#x159;" horiz-adv-x="415" 
d="M433 485l-14 -19q-17 -26 -32 -41t-30 -15q-11 0 -23 7t-30 21q-19 15 -30 21.5t-23 6.5q-15 0 -33 -21.5t-34 -52.5v-359l82 -27v-6h-242v6l82 27v439l-109 -60l-3 5q15 14 41 44q32 36 53.5 54.5t38.5 18.5q13 0 22 -7t17 -32t15 -75q26 39 58.5 77t40.5 38
q9 0 20.5 -6.5t32.5 -21.5q23 -17 37 -25t26 -8q8 0 16 3.5t12 6.5t6 4zM204 572l-115 191l4 6l109 -103h3l111 103l3 -6l-111 -191h-4z" />
    <glyph glyph-name="Sacute" unicode="&#x15a;" horiz-adv-x="554" 
d="M315 374l24 -12q57 -28 91 -49.5t56 -54.5t22 -80q0 -51 -26 -94.5t-76.5 -70t-122.5 -26.5q-37 0 -66 6t-69 18q-6 2 -30.5 9t-47.5 10l-26 262l8 1q33 -153 116 -210.5t169 -57.5q69 0 99.5 27.5t30.5 71.5q0 36 -22 64t-54 47.5t-87 45.5l-21 10l-46 25
q-56 27 -88.5 47.5t-55.5 55.5t-23 87q0 56 27.5 96t74 60t101.5 20q48 0 90 -15t71 -40l36 54h6v-257h-6q-37 105 -100.5 162.5t-149.5 57.5q-50 0 -81.5 -23.5t-31.5 -66.5q0 -35 21 -61.5t53.5 -46.5t90.5 -49zM334 859h102v-6l-156 -146h-7z" />
    <glyph glyph-name="sacute" unicode="&#x15b;" horiz-adv-x="429" 
d="M256 296q66 -35 101 -70.5t35 -92.5q0 -61 -42.5 -102.5t-125.5 -41.5q-24 0 -44.5 3.5t-37.5 7.5t-23 5q-39 11 -64 13l-27 226h8q20 -85 62.5 -135.5t89.5 -70.5t85 -20q36 0 58.5 19t22.5 53q0 36 -32 64.5t-102 64.5l-44 26q-60 32 -91.5 65t-31.5 84q0 64 46 104
t118 40q33 0 66 -9.5t56 -29.5l26 34h6l-1 -227h-7q-22 90 -71 147t-120 57q-37 0 -57 -19.5t-20 -49.5q0 -37 29 -62t87 -56zM285 750h89v-6l-172 -175h-8z" />
    <glyph glyph-name="Scircumflex" unicode="&#x15c;" horiz-adv-x="554" 
d="M315 374l24 -12q57 -28 91 -49.5t56 -54.5t22 -80q0 -51 -26 -94.5t-76.5 -70t-122.5 -26.5q-37 0 -66 6t-69 18q-6 2 -30.5 9t-47.5 10l-26 262l8 1q33 -153 116 -210.5t169 -57.5q69 0 99.5 27.5t30.5 71.5q0 36 -22 64t-54 47.5t-87 45.5l-21 10l-46 25
q-56 27 -88.5 47.5t-55.5 55.5t-23 87q0 56 27.5 96t74 60t101.5 20q48 0 90 -15t71 -40l36 54h6v-257h-6q-37 105 -100.5 162.5t-149.5 57.5q-50 0 -81.5 -23.5t-31.5 -66.5q0 -35 21 -61.5t53.5 -46.5t90.5 -49zM152 713v6l124 143h4l120 -143v-6l-123 70h-3z" />
    <glyph glyph-name="scircumflex" unicode="&#x15d;" horiz-adv-x="429" 
d="M256 296q66 -35 101 -70.5t35 -92.5q0 -61 -42.5 -102.5t-125.5 -41.5q-24 0 -44.5 3.5t-37.5 7.5t-23 5q-39 11 -64 13l-27 226h8q20 -85 62.5 -135.5t89.5 -70.5t85 -20q36 0 58.5 19t22.5 53q0 36 -32 64.5t-102 64.5l-44 26q-60 32 -91.5 65t-31.5 84q0 64 46 104
t118 40q33 0 66 -9.5t56 -29.5l26 34h6l-1 -227h-7q-22 90 -71 147t-120 57q-37 0 -57 -19.5t-20 -49.5q0 -37 29 -62t87 -56zM98 567l-4 6l115 191h4l111 -191l-3 -6l-111 104h-3z" />
    <glyph glyph-name="Scedilla" unicode="&#x15e;" horiz-adv-x="554" 
d="M282 -13l-26 -47q37 -8 62.5 -30.5t25.5 -55.5q0 -36 -33 -67.5t-94 -49.5l-1 5q74 25 74 77q0 27 -22 43.5t-59 18.5l-1 6l59 100q-31 1 -57 7t-60 17q-8 2 -32.5 9t-47.5 10l-26 262l8 1q33 -153 116 -210.5t169 -57.5q69 0 99.5 27.5t30.5 71.5q0 36 -22 64t-54 47.5
t-87 45.5l-21 10l-46 25q-56 27 -88.5 47.5t-55.5 55.5t-23 87q0 56 27.5 96t74 60t101.5 20q48 0 90 -15t71 -40l36 54h6v-257h-6q-37 105 -100.5 162.5t-149.5 57.5q-50 0 -81.5 -23.5t-31.5 -66.5q0 -35 21 -61.5t53.5 -46.5t90.5 -49l43 -23l24 -12q57 -28 91 -49.5
t56 -54.5t22 -80q0 -51 -26 -94.5t-76.5 -70t-122.5 -26.5h-1z" />
    <glyph glyph-name="scedilla" unicode="&#x15f;" horiz-adv-x="429" 
d="M216 -11l-27 -49q37 -8 62.5 -30.5t25.5 -55.5q0 -36 -33 -67.5t-94 -49.5l-1 5q74 25 74 77q0 27 -22 43.5t-59 18.5l-1 6l61 103q-35 2 -86 16q-43 10 -61 12l-27 226h8q20 -85 62.5 -135.5t89.5 -70.5t85 -20q36 0 58.5 19t22.5 53q0 36 -32 64.5t-102 64.5l-44 26
q-60 32 -91.5 65t-31.5 84q0 64 46 104t118 40q33 0 66 -9.5t56 -29.5l26 34h6l-1 -227h-7q-22 90 -71 147t-120 57q-37 0 -57 -19.5t-20 -49.5q0 -37 29 -62t87 -56l45 -27q66 -35 101 -70.5t35 -92.5q0 -61 -42.5 -102.5t-125.5 -41.5h-8z" />
    <glyph glyph-name="Scaron" unicode="&#x160;" horiz-adv-x="554" 
d="M315 374l24 -12q57 -28 91 -49.5t56 -54.5t22 -80q0 -51 -26 -94.5t-76.5 -70t-122.5 -26.5q-37 0 -66 6t-69 18q-6 2 -30.5 9t-47.5 10l-26 262l8 1q33 -153 116 -210.5t169 -57.5q69 0 99.5 27.5t30.5 71.5q0 36 -22 64t-54 47.5t-87 45.5l-21 10l-46 25
q-56 27 -88.5 47.5t-55.5 55.5t-23 87q0 56 27.5 96t74 60t101.5 20q48 0 90 -15t71 -40l36 54h6v-257h-6q-37 105 -100.5 162.5t-149.5 57.5q-50 0 -81.5 -23.5t-31.5 -66.5q0 -35 21 -61.5t53.5 -46.5t90.5 -49zM276 710l-124 143v6l122 -70h3l123 70v-6l-120 -143h-4z
" />
    <glyph glyph-name="scaron" unicode="&#x161;" horiz-adv-x="429" 
d="M256 296q66 -35 101 -70.5t35 -92.5q0 -61 -42.5 -102.5t-125.5 -41.5q-24 0 -44.5 3.5t-37.5 7.5t-23 5q-39 11 -64 13l-27 226h8q20 -85 62.5 -135.5t89.5 -70.5t85 -20q36 0 58.5 19t22.5 53q0 36 -32 64.5t-102 64.5l-44 26q-60 32 -91.5 65t-31.5 84q0 64 46 104
t118 40q33 0 66 -9.5t56 -29.5l26 34h6l-1 -227h-7q-22 90 -71 147t-120 57q-37 0 -57 -19.5t-20 -49.5q0 -37 29 -62t87 -56zM209 572l-115 191l4 6l109 -103h3l111 103l3 -6l-111 -191h-4z" />
    <glyph glyph-name="uni0162" unicode="&#x162;" horiz-adv-x="534" 
d="M510 454h-6l-19 54q-29 81 -41 107.5t-26 34t-48 7.5h-60v-616l80 -35v-6h-108l-33 -60q37 -8 62.5 -30.5t25.5 -55.5q0 -36 -33 -67.5t-94 -49.5l-1 5q74 25 74 77q0 27 -22 43.5t-59 18.5l-1 6l67 113h-124v6l81 35v616h-60q-35 0 -49 -7.5t-26 -34t-41 -108.5
q-9 -27 -18 -53h-6v221h485v-221z" />
    <glyph glyph-name="uni0163" unicode="&#x163;" horiz-adv-x="299" 
d="M154 -10l-27 -50q37 -8 62.5 -30.5t25.5 -55.5q0 -36 -33 -67.5t-94 -49.5l-1 5q74 25 74 77q0 27 -22 43.5t-59 18.5l-1 6l62 105q-30 8 -46 36t-16 74l-1 399l-79 17v6h83l71 119h5l-2 -119h133v-35q-18 0 -74 7l-59 7v-393q0 -65 59 -65q18 0 34.5 7.5t42.5 30.5l4 -5
q-35 -37 -73 -63t-55 -26q-9 0 -14 1z" />
    <glyph glyph-name="Tcaron" unicode="&#x164;" horiz-adv-x="534" 
d="M510 454h-6l-19 54q-29 81 -41 107.5t-26 34t-48 7.5h-60v-616l80 -35v-6h-246v6l81 35v616h-60q-35 0 -49 -7.5t-26 -34t-41 -108.5q-9 -27 -18 -53h-6v221h485v-221zM269 710l-124 143v6l122 -70h3l123 70v-6l-120 -143h-4z" />
    <glyph glyph-name="tcaron" unicode="&#x165;" horiz-adv-x="299" 
d="M296 78q-35 -37 -73 -63t-55 -26q-42 0 -65.5 29t-23.5 84l-1 399l-79 17v6h83l71 119h5l-2 -119h133v-35q-18 0 -74 7l-59 7v-393q0 -65 59 -65q18 0 34.5 7.5t42.5 30.5zM274 802.5q13 -12.5 13 -36.5q0 -22 -11 -52.5t-43 -103.5l-19 -43h-7l30 157q-19 2 -32 15
t-13 31q0 19 14 32t34 13q21 0 34 -12.5z" />
    <glyph glyph-name="Tbar" unicode="&#x166;" horiz-adv-x="534" 
d="M510 454h-6l-19 54q-29 81 -41 107.5t-26 34t-48 7.5h-60v-310h113v-18h-113v-288l80 -35v-6h-246v6l81 35v288h-111v18h111v310h-60q-35 0 -49 -7.5t-26 -34t-41 -108.5q-9 -27 -18 -53h-6v221h485v-221z" />
    <glyph glyph-name="tbar" unicode="&#x167;" horiz-adv-x="299" 
d="M296 78q-35 -37 -73 -63t-55 -26q-42 0 -65.5 29t-23.5 84l-1 212h-89v18h89v169l-79 17v6h83l71 119h5l-2 -119h133v-35q-18 0 -74 7l-59 7v-171h131v-18h-131v-204q0 -65 59 -65q18 0 34.5 7.5t42.5 30.5z" />
    <glyph glyph-name="Utilde" unicode="&#x168;" horiz-adv-x="644" 
d="M544 43l78 -37v-6h-162v84q-48 -39 -97.5 -67t-68.5 -28q-94 0 -147 51.5t-53 153.5l1 438l-78 37v6h162v-467q0 -84 40 -122.5t104 -38.5q42 0 71.5 14t65.5 43l1 528l-78 37v6h162zM491 850q-10 -49 -37 -81t-63 -32q-19 0 -39.5 6.5t-51.5 18.5q-26 11 -44 17t-34 6
q-21 0 -38 -9t-29 -38h-5q13 44 38.5 74t59.5 30q18 0 37 -6t48 -18t48 -18t36 -6q22 0 38.5 10t29.5 47z" />
    <glyph glyph-name="utilde" unicode="&#x169;" horiz-adv-x="530" 
d="M545 113l3 -5q-15 -14 -41 -44q-32 -36 -53.5 -54.5t-38.5 -18.5q-19 0 -31.5 20t-21.5 88q-41 -51 -79 -80.5t-55 -29.5q-67 0 -108 40t-41 129v331l-82 29v6h160v-364q0 -56 28 -83.5t70 -27.5q49 0 102 75v365l-82 29v6h161v-471zM422 703q-25 -53 -49 -81t-56 -28
q-19 0 -36.5 6t-44.5 19q-25 11 -39.5 16.5t-28.5 5.5q-22 0 -41 -10t-42 -45l-4 3q27 55 49 81.5t54 26.5q18 0 35.5 -6t43.5 -18q24 -11 40 -16.5t31 -5.5q22 0 41.5 9.5t42.5 45.5z" />
    <glyph glyph-name="Umacron" unicode="&#x16a;" horiz-adv-x="644" 
d="M544 43l78 -37v-6h-162v84q-48 -39 -97.5 -67t-68.5 -28q-94 0 -147 51.5t-53 153.5l1 438l-78 37v6h162v-467q0 -84 40 -122.5t104 -38.5q42 0 71.5 14t65.5 43l1 528l-78 37v6h162zM161 753v38h310v-38h-310z" />
    <glyph glyph-name="umacron" unicode="&#x16b;" horiz-adv-x="530" 
d="M545 113l3 -5q-15 -14 -41 -44q-32 -36 -53.5 -54.5t-38.5 -18.5q-19 0 -31.5 20t-21.5 88q-41 -51 -79 -80.5t-55 -29.5q-67 0 -108 40t-41 129v331l-82 29v6h160v-364q0 -56 28 -83.5t70 -27.5q49 0 102 75v365l-82 29v6h161v-471zM95 600v35h311v-35h-311z" />
    <glyph glyph-name="Ubreve" unicode="&#x16c;" horiz-adv-x="644" 
d="M544 43l78 -37v-6h-162v84q-48 -39 -97.5 -67t-68.5 -28q-94 0 -147 51.5t-53 153.5l1 438l-78 37v6h162v-467q0 -84 40 -122.5t104 -38.5q42 0 71.5 14t65.5 43l1 528l-78 37v6h162zM432 842q0 -54 -33.5 -86.5t-82.5 -32.5q-48 0 -81.5 32.5t-33.5 86.5h7
q1 -24 34.5 -38.5t73.5 -14.5q41 0 74 14.5t35 38.5h7z" />
    <glyph glyph-name="ubreve" unicode="&#x16d;" horiz-adv-x="530" 
d="M545 113l3 -5q-15 -14 -41 -44q-32 -36 -53.5 -54.5t-38.5 -18.5q-19 0 -31.5 20t-21.5 88q-41 -51 -79 -80.5t-55 -29.5q-67 0 -108 40t-41 129v331l-82 29v6h160v-364q0 -56 28 -83.5t70 -27.5q49 0 102 75v365l-82 29v6h161v-471zM366 747q0 -52 -15.5 -90.5t-42 -59
t-57.5 -20.5t-57.5 20.5t-41.5 59t-15 90.5h7q1 -50 33.5 -79t73.5 -29t73.5 29.5t33.5 78.5h8z" />
    <glyph glyph-name="Uring" unicode="&#x16e;" horiz-adv-x="644" 
d="M544 43l78 -37v-6h-162v84q-48 -39 -97.5 -67t-68.5 -28q-94 0 -147 51.5t-53 153.5l1 438l-78 37v6h162v-467q0 -84 40 -122.5t104 -38.5q42 0 71.5 14t65.5 43l1 528l-78 37v6h162zM246.5 729.5q-28.5 28.5 -28.5 69.5t28.5 70t70.5 29q41 0 69.5 -29t28.5 -70
q0 -40 -29 -69t-69 -29q-42 0 -70.5 28.5zM368.5 746q21.5 22 21.5 53t-21.5 53t-51.5 22q-31 0 -52.5 -22t-21.5 -53t21.5 -53t52.5 -22q30 0 51.5 22z" />
    <glyph glyph-name="uring" unicode="&#x16f;" horiz-adv-x="530" 
d="M545 113l3 -5q-15 -14 -41 -44q-32 -36 -53.5 -54.5t-38.5 -18.5q-19 0 -31.5 20t-21.5 88q-41 -51 -79 -80.5t-55 -29.5q-67 0 -108 40t-41 129v331l-82 29v6h160v-364q0 -56 28 -83.5t70 -27.5q49 0 102 75v365l-82 29v6h161v-471zM181.5 602q-28.5 29 -28.5 70
t28.5 69.5t70.5 28.5q40 0 69 -28.5t29 -69.5t-28.5 -70t-69.5 -29q-42 0 -70.5 29zM303.5 619q21.5 22 21.5 53t-21.5 53t-51.5 22q-31 0 -52.5 -22t-21.5 -53t21.5 -53t52.5 -22q30 0 51.5 22z" />
    <glyph glyph-name="Uhungarumlaut" unicode="&#x170;" horiz-adv-x="644" 
d="M544 43l78 -37v-6h-162v84q-48 -39 -97.5 -67t-68.5 -28q-94 0 -147 51.5t-53 153.5l1 438l-78 37v6h162v-467q0 -84 40 -122.5t104 -38.5q42 0 71.5 14t65.5 43l1 528l-78 37v6h162zM247 705h-5l72 157h74v-6zM375 705h-5l72 157h74v-6z" />
    <glyph glyph-name="uhungarumlaut" unicode="&#x171;" horiz-adv-x="530" 
d="M545 113l3 -5q-15 -14 -41 -44q-32 -36 -53.5 -54.5t-38.5 -18.5q-19 0 -31.5 20t-21.5 88q-41 -51 -79 -80.5t-55 -29.5q-67 0 -108 40t-41 129v331l-82 29v6h160v-364q0 -56 28 -83.5t70 -27.5q49 0 102 75v365l-82 29v6h161v-471zM260 750h67v-6l-130 -175h-5z
M368 750h67v-6l-130 -175h-5z" />
    <glyph glyph-name="Uogonek" unicode="&#x172;" horiz-adv-x="644" 
d="M470 0q-20 -33 -32 -69.5t-12 -65.5q0 -33 15.5 -52.5t47.5 -19.5q15 0 30 8.5t34 23.5l4 -4q-35 -36 -62.5 -56.5t-39.5 -20.5q-29 0 -57.5 16.5t-28.5 57.5q0 31 17.5 66.5t56.5 96.5l17 27v76q-48 -39 -97.5 -67t-68.5 -28q-94 0 -147 51.5t-53 153.5l1 438l-78 37v6
h162v-467q0 -84 40 -122.5t104 -38.5q42 0 71.5 14t65.5 43l1 528l-78 37v6h162l-1 -632l78 -37v-6h-152z" />
    <glyph glyph-name="uogonek" unicode="&#x173;" horiz-adv-x="530" 
d="M548 108q-8 -7 -45 -47q-19 -23 -38 -41q-35 -40 -55 -84.5t-20 -80.5q0 -28 14.5 -45t44.5 -17q26 0 64 32l5 -4q-36 -36 -63.5 -56.5t-39.5 -20.5q-29 0 -57 16.5t-28 57.5q0 33 23 73t73 102q-8 -2 -11 -2q-19 0 -31.5 20t-21.5 88q-41 -51 -79 -80.5t-55 -29.5
q-67 0 -108 40t-41 129v331l-82 29v6h160v-364q0 -56 28 -83.5t70 -27.5q49 0 102 75v365l-82 29v6h161v-471l109 60z" />
    <glyph glyph-name="Wcircumflex" unicode="&#x174;" horiz-adv-x="695" 
d="M512 675h170v-6l-201 -682h-6l-120 390h-3l-124 -390h-6l-212 682v6h177v-6l-80 -37l148 -486h6l63 229q12 39 12 63q0 28 -17.5 44.5t-61.5 35.5v6h223v-6l-77 -37l100 -335h6l92 336q11 41 11 67q0 46 -25 72.5t-75 47.5v6zM237 713v6l124 143h4l120 -143v-6l-123 70
h-3z" />
    <glyph glyph-name="wcircumflex" unicode="&#x175;" horiz-adv-x="669" 
d="M515 524h154v-6l-192 -544h-5l-134 397h-5l-135 -397h-5l-192 544v6h172v-6l-81 -29l130 -375h6l60 186q14 48 20.5 75.5t6.5 49.5q0 35 -19 57t-64 36v6h226v-6l-81 -29l127 -375h6l61 186q15 45 22 73t7 49q0 33 -19.5 54.5t-65.5 41.5v6zM228 567l-4 6l115 191h4
l111 -191l-3 -6l-111 104h-3z" />
    <glyph glyph-name="Ycircumflex" unicode="&#x176;" horiz-adv-x="509" 
d="M504 669l-207 -396v-232l81 -35v-6h-246v6l80 35v233l-208 395v6h192v-6l-81 -37l170 -330l2 -5l78 149q24 47 36 79.5t12 56.5q0 31 -19.5 52t-62.5 35v6h173v-6zM135 713v6l124 143h4l120 -143v-6l-123 70h-3z" />
    <glyph glyph-name="ycircumflex" unicode="&#x177;" horiz-adv-x="419" 
d="M259 524h159v-6l-280 -768h-92v6l154 231l-199 531v6h180v-6l-88 -28l142 -389h6l71 197q31 87 31 130q0 35 -19.5 54t-64.5 36v6zM108 567l-4 6l115 191h4l111 -191l-3 -6l-111 104h-3z" />
    <glyph glyph-name="Ydieresis" unicode="&#x178;" horiz-adv-x="509" 
d="M504 669l-207 -396v-232l81 -35v-6h-246v6l80 35v233l-208 395v6h192v-6l-81 -37l170 -330l2 -5l78 149q24 47 36 79.5t12 56.5q0 31 -19.5 52t-62.5 35v6h173v-6zM136 768q-12 12 -12 30t12 30t31 12q18 0 30 -12.5t12 -29.5q0 -18 -12 -30t-30 -12q-19 0 -31 12z
M321 768q-12 12 -12 30t12 30t31 12q18 0 30 -12.5t12 -29.5q0 -18 -12 -30t-30 -12q-19 0 -31 12z" />
    <glyph glyph-name="Zacute" unicode="&#x179;" horiz-adv-x="536" 
d="M490 221v-221h-451v6l350 651h-172q-44 0 -62 -7.5t-31.5 -33.5t-39.5 -101q-5 -15 -23 -61h-6v221h433v-6l-345 -651h185q43 0 61.5 7.5t31.5 34t39 100.5l24 61h6zM323 859h102v-6l-156 -146h-7z" />
    <glyph glyph-name="zacute" unicode="&#x17a;" horiz-adv-x="451" 
d="M411 518l-287 -499h107q54 0 80 14.5t39.5 47t35.5 112.5l13 46h6l1 -237l-3 -2h-368l2 1l-6 -1v6l285 500h-101q-53 0 -78.5 -12.5t-38.5 -38t-31 -87.5l-16 -54h-6l-1 207l3 3h364v-6zM295 750h89v-6l-172 -175h-8z" />
    <glyph glyph-name="Zdotaccent" unicode="&#x17b;" horiz-adv-x="536" 
d="M490 221v-221h-451v6l350 651h-172q-44 0 -62 -7.5t-31.5 -33.5t-39.5 -101q-5 -15 -23 -61h-6v221h433v-6l-345 -651h185q43 0 61.5 7.5t31.5 34t39 100.5l24 61h6zM227.5 790q-15.5 15 -15.5 38q0 21 15.5 36t38.5 15q22 0 37 -15t15 -36q0 -23 -14.5 -38t-37.5 -15
t-38.5 15z" />
    <glyph glyph-name="zdotaccent" unicode="&#x17c;" horiz-adv-x="451" 
d="M411 518l-287 -499h107q54 0 80 14.5t39.5 47t35.5 112.5l13 46h6l1 -237l-3 -2h-368l2 1l-6 -1v6l285 500h-101q-53 0 -78.5 -12.5t-38.5 -38t-31 -87.5l-16 -54h-6l-1 207l3 3h364v-6zM180.5 639q-15.5 15 -15.5 38q0 21 15.5 36t38.5 15q22 0 37 -15t15 -36
q0 -23 -14.5 -38t-37.5 -15t-38.5 15z" />
    <glyph glyph-name="Zcaron" unicode="&#x17d;" horiz-adv-x="536" 
d="M490 221v-221h-451v6l350 651h-172q-44 0 -62 -7.5t-31.5 -33.5t-39.5 -101q-5 -15 -23 -61h-6v221h433v-6l-345 -651h185q43 0 61.5 7.5t31.5 34t39 100.5l24 61h6zM265 710l-124 143v6l122 -70h3l123 70v-6l-120 -143h-4z" />
    <glyph glyph-name="zcaron" unicode="&#x17e;" horiz-adv-x="451" 
d="M411 518l-287 -499h107q54 0 80 14.5t39.5 47t35.5 112.5l13 46h6l1 -237l-3 -2h-368l2 1l-6 -1v6l285 500h-101q-53 0 -78.5 -12.5t-38.5 -38t-31 -87.5l-16 -54h-6l-1 207l3 3h364v-6zM218 572l-115 191l4 6l109 -103h3l111 103l3 -6l-111 -191h-4z" />
    <glyph glyph-name="uni018F" unicode="&#x18f;" horiz-adv-x="561" 
d="M444 593.5q83 -83.5 83 -240.5q0 -119 -56.5 -200.5t-127.5 -121.5t-111 -40q-94 0 -147.5 58t-54.5 162q0 10 20.5 26.5t45.5 30t34 13.5h332v14q0 90 -37 162.5t-107 114t-165 41.5q-36 0 -65.5 -9t-58.5 -26l-5 6q54 39 111.5 66t73.5 27q152 0 235 -83.5zM406 103.5
q48 58.5 55 159.5h-345q-1 -104 42 -161t120 -57q80 0 128 58.5z" />
    <glyph glyph-name="uni019D" unicode="&#x19d;" horiz-adv-x="651" 
d="M553 41l80 -35v-6h-246v6l80 35v422q0 165 -133 165q-44 0 -72 -14.5t-71 -46.5v-451q0 -94 -30 -162.5t-68.5 -108.5t-88.5 -78l-26 -21l-4 8q132 122 132 364l1 514l-77 37v6h161v-86q49 40 100.5 68.5t70.5 28.5q191 0 191 -205v-440z" />
    <glyph glyph-name="Gcaron" unicode="&#x1e6;" horiz-adv-x="603" 
d="M241 336h292l6 -5l-4 -345h-6l-47 89h-3q-34 -29 -87 -57t-74 -28q-80 0 -145.5 45t-103 123t-37.5 173q0 127 58.5 206.5t129 114t104.5 34.5q81 0 139 -31t79 -74l-69 -127h-6q2 9 2 26q0 46 -25 82.5t-66.5 57t-88.5 20.5q-37 0 -79 -18t-74.5 -70.5t-32.5 -147.5
t33 -176t92 -129t134 -48q30 0 50.5 5.5t42.5 17.5v225l-214 31v6zM324 710l-124 143v6l122 -70h3l123 70v-6l-120 -143h-4z" />
    <glyph glyph-name="gcaron" unicode="&#x1e7;" horiz-adv-x="497" 
d="M534 491q-36 0 -89.5 6.5t-96.5 15.5l-1 -3q42 -24 62 -60t20 -80q0 -58 -33 -102.5t-76 -69.5t-68 -25q-66 0 -111 27q-25 -24 -37 -39.5t-12 -34.5q0 -26 19.5 -43.5t63.5 -20.5l163 -12q65 -4 107.5 -24.5t42.5 -78.5q0 -31 -19.5 -78t-76.5 -86.5t-159 -39.5
q-90 0 -156.5 33.5t-72.5 90.5q-1 7 17.5 24.5t88.5 78.5q19 15 32 27q-54 7 -88 32.5t-34 66.5q0 6 38 41q53 53 70 72q-62 45 -62 133q0 58 33 102.5t76 69t68 24.5q5 0 45 -4q90 -10 129 -10h117v-33zM344.5 412.5q-18.5 40.5 -51.5 63t-74 22.5q-39 -1 -64.5 -27.5
t-25.5 -82.5q0 -50 18.5 -90.5t50.5 -63t70 -22.5q42 0 68.5 26t26.5 81q0 53 -18.5 93.5zM417 -38.5q-47 17.5 -126 24.5l-131 9q-78 -57 -78 -97q0 -27 28 -50t75.5 -36t104.5 -13q53 0 92.5 14t60.5 37.5t21 50.5q0 43 -47 60.5zM259 574l-115 191l4 6l109 -103h3
l111 103l3 -6l-111 -191h-4z" />
    <glyph glyph-name="uni01EA" unicode="&#x1ea;" horiz-adv-x="610" 
d="M526 140.5q-50 -78.5 -121 -119.5l2 -1q-35 -40 -55 -84.5t-20 -80.5q0 -28 14.5 -45t44.5 -17q26 0 64 32l5 -4q-36 -36 -63.5 -56.5t-39.5 -20.5q-29 0 -57 16.5t-28 57.5q0 35 26 77t82 113q-42 -19 -69 -19q-86 0 -149 48.5t-95.5 128t-32.5 170.5q0 119 49.5 197.5
t113 115t102.5 36.5q86 0 149 -48.5t95.5 -128t32.5 -170.5q0 -119 -50 -197.5zM458.5 95.5q44.5 55.5 44.5 170.5q0 14 -2 46q-7 89 -39 162.5t-84 116.5t-116 43q-68 0 -113 -55.5t-45 -171.5q0 -26 1 -40q7 -90 39 -165t85 -118.5t117 -43.5q68 0 112.5 55.5z" />
    <glyph glyph-name="uni01EB" unicode="&#x1eb;" horiz-adv-x="453" 
d="M363 -175l5 -4q-36 -36 -63.5 -56.5t-39.5 -20.5q-29 0 -57 16.5t-28 57.5q0 35 25 76t81 111q-33 -16 -55 -16q-58 0 -106 29t-76.5 85.5t-28.5 136.5q0 103 38 169t86 95.5t78 29.5q58 0 106 -29t76.5 -85.5t28.5 -136.5q0 -98 -34.5 -162.5t-85.5 -99.5l2 -1
q-35 -40 -55 -84.5t-20 -80.5q0 -28 14.5 -45t44.5 -17q26 0 64 32zM115 155q24 -57 62.5 -88t86.5 -31q39 0 71 38.5t32 128.5q0 21 -1 33q-5 75 -29 132t-62 88t-86 31q-40 0 -72 -39t-32 -130q0 -20 1 -31q5 -75 29 -132z" />
    <glyph glyph-name="AEacute" unicode="&#x1fc;" horiz-adv-x="832" 
d="M759 221l71 -221h-484v6l80 37l-65 194h-237q-30 -87 -30 -127q0 -36 19.5 -59t64.5 -45v-6h-168v6l223 603l-21 60v6h387l72 -221h-6q-14 18 -42 61q-50 74 -71.5 100.5t-42 34t-63.5 7.5h-133l101 -306h72q27 0 38.5 8t15 24t5.5 54l3 38h6l86 -267h-6l-25 35
q-27 39 -42 56t-32 25.5t-44 8.5h-72l104 -315h142q43 0 58.5 7.5t20 34t5.5 100.5l4 61h6zM244 577l-114 -322h225l-107 322h-4zM458 859h102v-6l-156 -146h-7z" />
    <glyph glyph-name="aeacute" unicode="&#x1fd;" horiz-adv-x="720" 
d="M698 75q-48 -40 -87.5 -63t-61.5 -23q-85 0 -140 35t-80 103h-3q-73 -138 -191 -138q-45 0 -70.5 22.5t-25.5 58.5q0 43 31 83t76.5 74t126.5 87l38 25q-2 81 -21.5 117.5t-68.5 36.5q-44 -1 -73.5 -35.5t-29.5 -96.5q0 -8 2 -28l-95 -43l-3 3q35 86 82 141t89 79.5
t66 24.5q55 0 85.5 -26.5t39.5 -67.5q24 30 54.5 51t57 32t41.5 11q150 0 153 -170q0 -9 -20 -23.5t-44.5 -26.5t-33.5 -12h-206v-3q1 -70 25 -128t71 -93t112 -35q28 0 50.5 7.5t50.5 23.5zM418 451.5q-29 -46.5 -32 -129.5h218q2 80 -26.5 128t-81.5 48q-49 0 -78 -46.5z
M253.5 68.5q35.5 27.5 68.5 82.5q-14 48 -12 109l1 48v7q-97 -61 -140 -111t-43 -101q0 -28 16.5 -45t43.5 -17q30 0 65.5 27.5zM434 750h89v-6l-172 -175h-8z" />
    <glyph glyph-name="Oslashacute" unicode="&#x1fe;" horiz-adv-x="610" 
d="M457 629q57 -47 88 -125t31 -166q0 -119 -49.5 -197.5t-113 -115t-102.5 -36.5q-80 0 -143 44l-48 -100h-22l54 112q-57 48 -87.5 125.5t-30.5 165.5q0 119 49.5 197.5t113 115t102.5 36.5q81 0 142 -44l49 102h22zM132.5 232q22.5 -63 57.5 -108l214 442q-60 68 -143 68
q-68 0 -112.5 -55.5t-44.5 -171.5q0 -26 1 -40q5 -72 27.5 -135zM458 95.5q45 55.5 45 170.5q0 14 -2 46q-5 70 -26.5 132t-56.5 106l-214 -443q64 -67 141 -67q68 0 113 55.5zM367 859h102v-6l-156 -146h-7z" />
    <glyph glyph-name="oslashacute" unicode="&#x1ff;" horiz-adv-x="453" 
d="M378 462q55 -68 55 -179q0 -104 -38 -170t-86 -95t-78 -29q-42 0 -79.5 15t-65.5 44l-38 -54h-21l48 68q-55 66 -55 178q0 103 38 169t86 95.5t78 29.5q41 0 78 -15t65 -43l37 52h22zM125 134l192 273q-24 38 -56.5 59t-70.5 21q-40 0 -72.5 -39t-32.5 -131q0 -19 1 -30
q6 -88 39 -153zM335 74q32 38 32 128q0 22 -1 34q-6 89 -39 154l-192 -273q24 -39 56.5 -60t71.5 -21q40 0 72 38zM311 750h89v-6l-172 -175h-8z" />
    <glyph glyph-name="uni0218" unicode="&#x218;" horiz-adv-x="554" 
d="M315 374l24 -12q57 -28 91 -49.5t56 -54.5t22 -80q0 -51 -26 -94.5t-76.5 -70t-122.5 -26.5q-37 0 -66 6t-69 18q-6 2 -30.5 9t-47.5 10l-26 262l8 1q33 -153 116 -210.5t169 -57.5q69 0 99.5 27.5t30.5 71.5q0 36 -22 64t-54 47.5t-87 45.5l-21 10l-46 25
q-56 27 -88.5 47.5t-55.5 55.5t-23 87q0 56 27.5 96t74 60t101.5 20q48 0 90 -15t71 -40l36 54h6v-257h-6q-37 105 -100.5 162.5t-149.5 57.5q-50 0 -81.5 -23.5t-31.5 -66.5q0 -35 21 -61.5t53.5 -46.5t90.5 -49zM313 -115q15 -14 15 -37q0 -24 -18 -52t-63 -78h-6l34 81
q-22 2 -36.5 16t-14.5 33q0 21 15 36t37 15t37 -14z" />
    <glyph glyph-name="uni0219" unicode="&#x219;" horiz-adv-x="429" 
d="M256 296q66 -35 101 -70.5t35 -92.5q0 -61 -42.5 -102.5t-125.5 -41.5q-24 0 -44.5 3.5t-37.5 7.5t-23 5q-39 11 -64 13l-27 226h8q20 -85 62.5 -135.5t89.5 -70.5t85 -20q36 0 58.5 19t22.5 53q0 36 -32 64.5t-102 64.5l-44 26q-60 32 -91.5 65t-31.5 84q0 64 46 104
t118 40q33 0 66 -9.5t56 -29.5l26 34h6l-1 -227h-7q-22 90 -71 147t-120 57q-37 0 -57 -19.5t-20 -49.5q0 -37 29 -62t87 -56zM246 -115q15 -14 15 -37q0 -24 -18 -52t-63 -78h-6l34 81q-22 2 -36.5 16t-14.5 33q0 21 15 36t37 15t37 -14z" />
    <glyph glyph-name="uni021A" unicode="&#x21a;" horiz-adv-x="534" 
d="M510 454h-6l-19 54q-29 81 -41 107.5t-26 34t-48 7.5h-60v-616l80 -35v-6h-246v6l81 35v616h-60q-35 0 -49 -7.5t-26 -34t-41 -108.5q-9 -27 -18 -53h-6v221h485v-221zM306 -115q15 -14 15 -37q0 -24 -18 -52t-63 -78h-6l34 81q-22 2 -36.5 16t-14.5 33q0 21 15 36t37 15
t37 -14z" />
    <glyph glyph-name="uni021B" unicode="&#x21b;" horiz-adv-x="299" 
d="M296 78q-35 -37 -73 -63t-55 -26q-42 0 -65.5 29t-23.5 84l-1 399l-79 17v6h83l71 119h5l-2 -119h133v-35q-18 0 -74 7l-59 7v-393q0 -65 59 -65q18 0 34.5 7.5t42.5 30.5zM184 -115q15 -14 15 -37q0 -24 -18 -52t-63 -78h-6l34 81q-22 2 -36.5 16t-14.5 33q0 21 15 36
t37 15t37 -14z" />
    <glyph glyph-name="uni0232" unicode="&#x232;" horiz-adv-x="509" 
d="M504 669l-207 -396v-232l81 -35v-6h-246v6l80 35v233l-208 395v6h192v-6l-81 -37l170 -330l2 -5l78 149q24 47 36 79.5t12 56.5q0 31 -19.5 52t-62.5 35v6h173v-6zM104 753v38h310v-38h-310z" />
    <glyph glyph-name="uni0233" unicode="&#x233;" horiz-adv-x="419" 
d="M259 524h159v-6l-280 -768h-92v6l154 231l-199 531v6h180v-6l-88 -28l142 -389h6l71 197q31 87 31 130q0 35 -19.5 54t-64.5 36v6zM64 600v35h311v-35h-311z" />
    <glyph glyph-name="uni0237" unicode="&#x237;" horiz-adv-x="234" 
d="M138.5 -74q-27.5 -45 -62.5 -78t-87 -74l-35 -28l-4 8q55 50 96.5 120.5t41.5 149.5v465l-82 29v6h160v-503q0 -50 -27.5 -95z" />
    <glyph glyph-name="uni0259" unicode="&#x259;" horiz-adv-x="421" 
d="M287.5 505.5q52.5 -29.5 83 -87.5t30.5 -140q0 -101 -42 -166t-94.5 -94.5t-83.5 -29.5q-150 0 -152 168q0 9 18 23.5t40 26.5t31 12h219q-2 75 -28.5 133t-74 90.5t-109.5 32.5q-27 0 -46.5 -8.5t-52.5 -27.5l-4 7q107 90 148 90q65 0 117.5 -29.5zM298 68.5
q37 37.5 39 131.5h-231q-5 -82 26 -125.5t79 -43.5q50 0 87 37.5z" />
    <glyph glyph-name="uni0272" unicode="&#x272;" horiz-adv-x="535" 
d="M457 33l82 -27v-6h-243v6l82 27h1v329q0 56 -28.5 84t-70.5 28q-51 0 -105 -81v-371q0 -53 -26.5 -99t-61 -78t-83.5 -69q-9 -7 -37 -29l-4 8q52 47 92.5 117.5t40.5 149.5v450l-109 -60l-3 5q13 12 41 44q34 37 54.5 55t37.5 18q13 0 22 -7t17.5 -32t14.5 -75
q42 53 80.5 83t55.5 30q68 0 109 -40t41 -129v-331z" />
    <glyph glyph-name="circumflex" unicode="&#x2c6;" horiz-adv-x="252" 
d="M14 567l-4 6l115 191h4l111 -191l-3 -6l-111 104h-3z" />
    <glyph glyph-name="caron" unicode="&#x2c7;" horiz-adv-x="252" 
d="M125 572l-115 191l4 6l109 -103h3l111 103l3 -6l-111 -191h-4z" />
    <glyph glyph-name="breve" unicode="&#x2d8;" horiz-adv-x="304" 
d="M267 747q0 -52 -15.5 -90.5t-42 -59t-57.5 -20.5t-57.5 20.5t-41.5 59t-15 90.5h7q1 -50 33.5 -79t73.5 -29t73.5 29.5t33.5 78.5h8z" />
    <glyph glyph-name="dotaccent" unicode="&#x2d9;" horiz-adv-x="197" 
d="M60.5 639q-15.5 15 -15.5 38q0 21 15.5 36t38.5 15q22 0 37 -15t15 -36q0 -23 -14.5 -38t-37.5 -15t-38.5 15z" />
    <glyph glyph-name="ring" unicode="&#x2da;" horiz-adv-x="271" 
d="M65.5 602q-28.5 29 -28.5 70t28.5 69.5t70.5 28.5q40 0 69 -28.5t29 -69.5t-28.5 -70t-69.5 -29q-42 0 -70.5 29zM187.5 619q21.5 22 21.5 53t-21.5 53t-51.5 22q-31 0 -52.5 -22t-21.5 -53t21.5 -53t52.5 -22q30 0 51.5 22z" />
    <glyph glyph-name="ogonek" unicode="&#x2db;" horiz-adv-x="215" 
d="M135 12q-23 -35 -37 -74t-14 -71q0 -33 15.5 -52.5t47.5 -19.5q15 0 30 8.5t34 23.5l4 -4q-35 -36 -62.5 -56.5t-39.5 -20.5q-29 0 -57.5 16.5t-28.5 57.5q0 30 17 64.5t53 91.5l25 41z" />
    <glyph glyph-name="tilde" unicode="&#x2dc;" horiz-adv-x="393" 
d="M367 703q-25 -53 -49 -81t-56 -28q-19 0 -36.5 6t-44.5 19q-25 11 -39.5 16.5t-28.5 5.5q-22 0 -41 -10t-42 -45l-4 3q27 55 49 81.5t54 26.5q18 0 35.5 -6t43.5 -18q24 -11 40 -16.5t31 -5.5q22 0 41.5 9.5t42.5 45.5z" />
    <glyph glyph-name="hungarumlaut" unicode="&#x2dd;" horiz-adv-x="279" 
d="M98 750h67v-6l-130 -175h-5zM206 750h67v-6l-130 -175h-5z" />
    <glyph glyph-name="gravecomb" unicode="&#x300;" horiz-adv-x="0" 
d="M-200 744v6h90l90 -181h-7z" />
    <glyph glyph-name="acutecomb" unicode="&#x301;" horiz-adv-x="0" 
d="M-90 750h89v-6l-172 -175h-8z" />
    <glyph glyph-name="uni0302" unicode="&#x302;" horiz-adv-x="0" 
d="M-238 567l-4 6l115 191h4l111 -191l-3 -6l-111 104h-3z" />
    <glyph glyph-name="tildecomb" unicode="&#x303;" horiz-adv-x="0" 
d="M-26 703q-25 -53 -49 -81t-56 -28q-19 0 -36.5 6t-44.5 19q-25 11 -39.5 16.5t-28.5 5.5q-22 0 -41 -10t-42 -45l-4 3q27 55 49 81.5t54 26.5q18 0 35.5 -6t43.5 -18q24 -11 40 -16.5t31 -5.5q22 0 41.5 9.5t42.5 45.5z" />
    <glyph glyph-name="uni0304" unicode="&#x304;" horiz-adv-x="0" 
d="M-369 600v35h311v-35h-311z" />
    <glyph glyph-name="uni0306" unicode="&#x306;" horiz-adv-x="0" 
d="M-37 747q0 -52 -15.5 -90.5t-42 -59t-57.5 -20.5t-57.5 20.5t-41.5 59t-15 90.5h7q1 -50 33.5 -79t73.5 -29t73.5 29.5t33.5 78.5h8z" />
    <glyph glyph-name="uni0307" unicode="&#x307;" horiz-adv-x="0" 
d="M-136.5 639q-15.5 15 -15.5 38q0 21 15.5 36t38.5 15q22 0 37 -15t15 -36q0 -23 -14.5 -38t-37.5 -15t-38.5 15z" />
    <glyph glyph-name="uni0308" unicode="&#x308;" horiz-adv-x="0" 
d="M-306 617q-12 12 -12 30t12 30t31 12q18 0 30 -12.5t12 -29.5q0 -18 -12 -30t-30 -12q-19 0 -31 12zM-121 617q-12 12 -12 30t12 30t31 12q18 0 30 -12.5t12 -29.5q0 -18 -12 -30t-30 -12q-19 0 -31 12z" />
    <glyph glyph-name="uni030A" unicode="&#x30a;" horiz-adv-x="0" 
d="M-205.5 602q-28.5 29 -28.5 70t28.5 69.5t70.5 28.5q40 0 69 -28.5t29 -69.5t-28.5 -70t-69.5 -29q-42 0 -70.5 29zM-83.5 619q21.5 22 21.5 53t-21.5 53t-51.5 22q-31 0 -52.5 -22t-21.5 -53t21.5 -53t52.5 -22q30 0 51.5 22z" />
    <glyph glyph-name="uni030B" unicode="&#x30b;" horiz-adv-x="0" 
d="M-181 750h67v-6l-130 -175h-5zM-73 750h67v-6l-130 -175h-5z" />
    <glyph glyph-name="uni030C" unicode="&#x30c;" horiz-adv-x="0" 
d="M-127 572l-115 191l4 6l109 -103h3l111 103l3 -6l-111 -191h-4z" />
    <glyph glyph-name="uni0312" unicode="&#x312;" horiz-adv-x="0" 
d="M-94 725q22 -2 36.5 -16t14.5 -34t-15.5 -35t-37.5 -15t-36.5 14t-14.5 37t18 52t63 78h6z" />
    <glyph glyph-name="dotbelowcomb" unicode="&#x323;" horiz-adv-x="0" 
d="M-136.5 -178q-15.5 15 -15.5 37t15.5 37t38.5 15q22 0 37 -15t15 -37q0 -23 -15 -37.5t-37 -14.5q-23 0 -38.5 15z" />
    <glyph glyph-name="uni0326" unicode="&#x326;" horiz-adv-x="0" 
d="M-48 -115q15 -14 15 -37q0 -24 -18 -52t-63 -78h-6l34 81q-22 2 -36.5 16t-14.5 33q0 21 15 36t37 15t37 -14z" />
    <glyph glyph-name="uni0327" unicode="&#x327;" horiz-adv-x="0" 
d="M-89 9h14l-38 -69q37 -8 62.5 -30.5t25.5 -55.5q0 -36 -33 -67.5t-94 -49.5l-1 5q74 25 74 77q0 27 -22 43.5t-59 18.5l-1 6z" />
    <glyph glyph-name="uni0328" unicode="&#x328;" horiz-adv-x="0" 
d="M-80 12q-23 -35 -37 -74t-14 -71q0 -33 15.5 -52.5t47.5 -19.5q15 0 30 8.5t34 23.5l4 -4q-35 -36 -62.5 -56.5t-39.5 -20.5q-29 0 -57.5 16.5t-28.5 57.5q0 30 17 64.5t53 91.5l25 41z" />
    <glyph glyph-name="uni0335" unicode="&#x335;" horiz-adv-x="0" 
d="M-365 267v18h309v-18h-309z" />
    <glyph glyph-name="uni0336" unicode="&#x336;" horiz-adv-x="0" 
d="M-623 432v18h567v-18h-567z" />
    <glyph glyph-name="uni0337" unicode="&#x337;" horiz-adv-x="0" 
d="M-267 294l262 226l13 -14l-262 -226z" />
    <glyph glyph-name="uni0338" unicode="&#x338;" horiz-adv-x="0" 
d="M-390 -60l392 810h22l-392 -810h-22z" />
    <glyph glyph-name="uni0394" unicode="&#x394;" horiz-adv-x="514" 
d="M302 695l11 -56l186 -633v-6h-484v6l195 655l86 34h6zM224 631l-168 -568h338l-166 568h-4z" />
    <glyph glyph-name="uni03A9" unicode="&#x3a9;" horiz-adv-x="674" 
d="M518 67q28 0 43 9.5t23.5 29t18.5 59.5h6v-165h-232v148q70 16 111 86.5t41 173.5q0 74 -24 132t-67.5 91t-99.5 33t-99.5 -33t-67.5 -91t-24 -132q0 -100 38.5 -168.5t105.5 -89.5v-150h-232v165h5q10 -40 19.5 -60t25 -29t42.5 -9h121v66q-101 22 -158.5 93.5
t-57.5 173.5q0 80 36 144.5t100 101t146 36.5t146 -36.5t100 -101t36 -144.5q0 -104 -60 -177t-163 -92v-64h121z" />
    <glyph glyph-name="uni03BC" unicode="&#x3bc;" horiz-adv-x="530" 
d="M545 113l3 -5q-15 -14 -41 -44q-32 -36 -53.5 -54.5t-38.5 -18.5q-19 0 -31.5 20t-21.5 88q-41 -51 -79 -80.5t-55 -29.5q-102 0 -135 83l-4 -1l69 -315v-7h-80v469l1 -7v278l-82 29v6h160v-364q0 -56 28 -83.5t70 -27.5q49 0 102 75v365l-82 29v6h161v-471z" />
    <glyph glyph-name="pi" unicode="&#x3c0;" horiz-adv-x="511" 
d="M499 113l3 -5q-15 -14 -41 -44q-32 -36 -53.5 -54.5t-38.5 -18.5q-18 0 -30.5 23t-24.5 94v349h-118q-1 -135 -11.5 -219.5t-30 -138.5t-52.5 -106l-80 61l1 4q63 46 107 160.5t52 238.5h-35q-72 1 -145 -83l-7 4q4 5 10 14.5t10 15.5q31 51 61.5 83t70.5 33h350v-67
h-107v-403z" />
    <glyph glyph-name="Wgrave" unicode="&#x1e80;" horiz-adv-x="695" 
d="M512 675h170v-6l-201 -682h-6l-120 390h-3l-124 -390h-6l-212 682v6h177v-6l-80 -37l148 -486h6l63 229q12 39 12 63q0 28 -17.5 44.5t-61.5 35.5v6h223v-6l-77 -37l100 -335h6l92 336q11 41 11 67q0 46 -25 72.5t-75 47.5v6zM209 853v6h95l61 -279h-7z" />
    <glyph glyph-name="wgrave" unicode="&#x1e81;" horiz-adv-x="669" 
d="M515 524h154v-6l-192 -544h-5l-134 397h-5l-135 -397h-5l-192 544v6h172v-6l-81 -29l130 -375h6l60 186q14 48 20.5 75.5t6.5 49.5q0 35 -19 57t-64 36v6h226v-6l-81 -29l127 -375h6l61 186q15 45 22 73t7 49q0 33 -19.5 54.5t-65.5 41.5v6zM168 744v6h90l90 -181h-7z
" />
    <glyph glyph-name="Wacute" unicode="&#x1e82;" horiz-adv-x="695" 
d="M512 675h170v-6l-201 -682h-6l-120 390h-3l-124 -390h-6l-212 682v6h177v-6l-80 -37l148 -486h6l63 229q12 39 12 63q0 28 -17.5 44.5t-61.5 35.5v6h223v-6l-77 -37l100 -335h6l92 336q11 41 11 67q0 46 -25 72.5t-75 47.5v6zM427 859h95v-6l-149 -273h-7z" />
    <glyph glyph-name="wacute" unicode="&#x1e83;" horiz-adv-x="669" 
d="M515 524h154v-6l-192 -544h-5l-134 397h-5l-135 -397h-5l-192 544v6h172v-6l-81 -29l130 -375h6l60 186q14 48 20.5 75.5t6.5 49.5q0 35 -19 57t-64 36v6h226v-6l-81 -29l127 -375h6l61 186q15 45 22 73t7 49q0 33 -19.5 54.5t-65.5 41.5v6zM415 750h89v-6l-172 -175h-8z
" />
    <glyph glyph-name="Wdieresis" unicode="&#x1e84;" horiz-adv-x="695" 
d="M512 675h170v-6l-201 -682h-6l-120 390h-3l-124 -390h-6l-212 682v6h177v-6l-80 -37l148 -486h6l63 229q12 39 12 63q0 28 -17.5 44.5t-61.5 35.5v6h223v-6l-77 -37l100 -335h6l92 336q11 41 11 67q0 46 -25 72.5t-75 47.5v6zM238 768q-12 12 -12 30t12 30t31 12
q18 0 30 -12.5t12 -29.5q0 -18 -12 -30t-30 -12q-19 0 -31 12zM423 768q-12 12 -12 30t12 30t31 12q18 0 30 -12.5t12 -29.5q0 -18 -12 -30t-30 -12q-19 0 -31 12z" />
    <glyph glyph-name="wdieresis" unicode="&#x1e85;" horiz-adv-x="669" 
d="M515 524h154v-6l-192 -544h-5l-134 397h-5l-135 -397h-5l-192 544v6h172v-6l-81 -29l130 -375h6l60 186q14 48 20.5 75.5t6.5 49.5q0 35 -19 57t-64 36v6h226v-6l-81 -29l127 -375h6l61 186q15 45 22 73t7 49q0 33 -19.5 54.5t-65.5 41.5v6zM216 617q-12 12 -12 30t12 30
t31 12q18 0 30 -12.5t12 -29.5q0 -18 -12 -30t-30 -12q-19 0 -31 12zM401 617q-12 12 -12 30t12 30t31 12q18 0 30 -12.5t12 -29.5q0 -18 -12 -30t-30 -12q-19 0 -31 12z" />
    <glyph glyph-name="uni1E9E" unicode="&#x1e9e;" horiz-adv-x="629" 
d="M455.5 405q16.5 -25 51.5 -62q46 -48 70 -87.5t24 -96.5q0 -43 -22.5 -82.5t-60 -63.5t-79.5 -24q-31 0 -56 5t-66 17q-25 9 -57 16l-24 268l7 1q16 -105 52 -168t78.5 -88.5t81.5 -25.5q37 0 60 24t23 65q0 47 -21.5 83.5t-62.5 81.5q-39 44 -58 75.5t-19 72.5
q0 30 11.5 54.5t38 52t78.5 71.5q-35 34 -74 54t-93 20q-75 0 -118 -50.5t-43 -160.5v-457h-162v6l78 37l-1 400q0 130 78.5 189t199.5 59q55 0 112.5 -13t106.5 -40v-3l-57 -47q-50 -43 -71.5 -69t-21.5 -59q0 -30 16.5 -55z" />
    <glyph glyph-name="uni1EA0" unicode="&#x1ea0;" horiz-adv-x="540" 
d="M307 675l220 -669v-6h-181v6l80 37l-65 194h-237q-30 -87 -30 -127q0 -36 19.5 -59t64.5 -45v-6h-168v6l223 603l-21 60v6h95zM244 577l-114 -322h225l-107 322h-4zM230.5 -178q-15.5 15 -15.5 37t15.5 37t38.5 15q22 0 37 -15t15 -37q0 -23 -15 -37.5t-37 -14.5
q-23 0 -38.5 15z" />
    <glyph glyph-name="uni1EA1" unicode="&#x1ea1;" horiz-adv-x="484" 
d="M496 115l3 -5q-21 -21 -40 -43q-34 -38 -55 -56.5t-38 -18.5q-13 0 -22 7.5t-17.5 33.5t-15.5 77q-43 -65 -81 -93t-90 -28q-49 0 -75 23t-26 62q0 55 52.5 106.5t145.5 112.5l74 45q1 72 -16.5 112.5t-70.5 40.5q-50 0 -78 -34t-28 -94q0 -8 2 -30l-95 -43l-3 2
q33 86 79.5 141.5t90 80t67.5 24.5q79 0 109 -46.5t26 -116.5l-7 -264v-56zM244.5 64q32.5 23 64.5 70l2 181q-97 -61 -141 -110t-44 -97q0 -31 16 -49t42 -18q28 0 60.5 23zM203.5 -178q-15.5 15 -15.5 37t15.5 37t38.5 15q22 0 37 -15t15 -37q0 -23 -15 -37.5t-37 -14.5
q-23 0 -38.5 15z" />
    <glyph glyph-name="uni1EB8" unicode="&#x1eb8;" horiz-adv-x="588" 
d="M526 221v-221h-495v6l78 37v589l-78 37v6h482v-221h-6l-23 61q-26 74 -39 100.5t-31 34t-61 7.5h-160v-306h103q27 0 41.5 8.5t23.5 25t25 57.5l13 34h6v-268h-6l-14 35q-15 40 -24.5 56.5t-23.5 25t-41 8.5h-103v-315h173q43 0 61 7.5t31 33.5t39 101l23 61h6z
M255.5 -178q-15.5 15 -15.5 37t15.5 37t38.5 15q22 0 37 -15t15 -37q0 -23 -15 -37.5t-37 -14.5q-23 0 -38.5 15z" />
    <glyph glyph-name="uni1EB9" unicode="&#x1eb9;" horiz-adv-x="421" 
d="M399 79q-107 -90 -148 -90q-65 0 -117.5 29.5t-83 87.5t-30.5 140q0 101 42 166t94.5 94.5t83.5 29.5q150 0 152 -168q0 -9 -18 -23.5t-40 -26.5t-31 -12h-219q2 -75 28.5 -133t74 -90.5t109.5 -32.5q27 0 46.5 8.5t52.5 27.5zM123 455.5q-37 -37.5 -39 -131.5h231
q5 82 -26 125.5t-79 43.5q-50 0 -87 -37.5zM169.5 -178q-15.5 15 -15.5 37t15.5 37t38.5 15q22 0 37 -15t15 -37q0 -23 -15 -37.5t-37 -14.5q-23 0 -38.5 15z" />
    <glyph glyph-name="uni1EBC" unicode="&#x1ebc;" horiz-adv-x="588" 
d="M526 221v-221h-495v6l78 37v589l-78 37v6h482v-221h-6l-23 61q-26 74 -39 100.5t-31 34t-61 7.5h-160v-306h103q27 0 41.5 8.5t23.5 25t25 57.5l13 34h6v-268h-6l-14 35q-15 40 -24.5 56.5t-23.5 25t-41 8.5h-103v-315h173q43 0 61 7.5t31 33.5t39 101l23 61h6zM468 850
q-10 -49 -37 -81t-63 -32q-19 0 -39.5 6.5t-51.5 18.5q-26 11 -44 17t-34 6q-21 0 -38 -9t-29 -38h-5q13 44 38.5 74t59.5 30q18 0 37 -6t48 -18t48 -18t36 -6q22 0 38.5 10t29.5 47z" />
    <glyph glyph-name="uni1EBD" unicode="&#x1ebd;" horiz-adv-x="421" 
d="M399 79q-107 -90 -148 -90q-65 0 -117.5 29.5t-83 87.5t-30.5 140q0 101 42 166t94.5 94.5t83.5 29.5q150 0 152 -168q0 -9 -18 -23.5t-40 -26.5t-31 -12h-219q2 -75 28.5 -133t74 -90.5t109.5 -32.5q27 0 46.5 8.5t52.5 27.5zM123 455.5q-37 -37.5 -39 -131.5h231
q5 82 -26 125.5t-79 43.5q-50 0 -87 -37.5zM406 703q-25 -53 -49 -81t-56 -28q-19 0 -36.5 6t-44.5 19q-25 11 -39.5 16.5t-28.5 5.5q-22 0 -41 -10t-42 -45l-4 3q27 55 49 81.5t54 26.5q18 0 35.5 -6t43.5 -18q24 -11 40 -16.5t31 -5.5q22 0 41.5 9.5t42.5 45.5z" />
    <glyph glyph-name="uni1ECA" unicode="&#x1eca;" horiz-adv-x="308" 
d="M111 41v593l-80 35v6h246v-6l-80 -35v-593l80 -35v-6h-246v6zM116.5 -178q-15.5 15 -15.5 37t15.5 37t38.5 15q22 0 37 -15t15 -37q0 -23 -15 -37.5t-37 -14.5q-23 0 -38.5 15z" />
    <glyph glyph-name="uni1ECB" unicode="&#x1ecb;" horiz-adv-x="257" 
d="M96 33v456l-82 29v6h161v-35l-1 -456l82 -27v-6h-242v6zM97.5 -178q-15.5 15 -15.5 37t15.5 37t38.5 15q22 0 37 -15t15 -37q0 -23 -15 -37.5t-37 -14.5q-23 0 -38.5 15zM93.5 639q-15.5 15 -15.5 38q0 21 15.5 36t38.5 15q22 0 37 -15t15 -36q0 -23 -14.5 -38t-37.5 -15
t-38.5 15z" />
    <glyph glyph-name="uni1ECC" unicode="&#x1ecc;" horiz-adv-x="610" 
d="M162 37.5q-63 48.5 -95.5 128t-32.5 170.5q0 119 49.5 197.5t113 115t102.5 36.5q86 0 149 -48.5t95.5 -128t32.5 -170.5q0 -119 -49.5 -197.5t-113 -115t-102.5 -36.5q-86 0 -149 48.5zM458.5 95.5q44.5 55.5 44.5 170.5q0 14 -2 46q-7 89 -39 162.5t-84 116.5t-116 43
q-68 0 -113 -55.5t-45 -171.5q0 -26 1 -40q7 -90 39 -165t85 -118.5t117 -43.5q68 0 112.5 55.5zM267.5 -178q-15.5 15 -15.5 37t15.5 37t38.5 15q22 0 37 -15t15 -37q0 -23 -15 -37.5t-37 -14.5q-23 0 -38.5 15z" />
    <glyph glyph-name="uni1ECD" unicode="&#x1ecd;" horiz-adv-x="453" 
d="M125 18q-48 29 -76.5 85.5t-28.5 136.5q0 103 38 169t86 95.5t78 29.5q58 0 106 -29t76.5 -85.5t28.5 -136.5q0 -104 -38 -170t-86 -95t-78 -29q-58 0 -106 29zM335.5 74q31.5 38 31.5 128q0 22 -1 34q-5 75 -29 132t-62 88t-86 31q-40 0 -72 -39t-32 -130q0 -20 1 -31
q5 -75 29 -132t62.5 -88t86.5 -31q40 0 71.5 38zM191.5 -178q-15.5 15 -15.5 37t15.5 37t38.5 15q22 0 37 -15t15 -37q0 -23 -15 -37.5t-37 -14.5q-23 0 -38.5 15z" />
    <glyph glyph-name="uni1EE4" unicode="&#x1ee4;" horiz-adv-x="644" 
d="M544 43l78 -37v-6h-162v84q-48 -39 -97.5 -67t-68.5 -28q-94 0 -147 51.5t-53 153.5l1 438l-78 37v6h162v-467q0 -84 40 -122.5t104 -38.5q42 0 71.5 14t65.5 43l1 528l-78 37v6h162zM278.5 -178q-15.5 15 -15.5 37t15.5 37t38.5 15q22 0 37 -15t15 -37q0 -23 -15 -37.5
t-37 -14.5q-23 0 -38.5 15z" />
    <glyph glyph-name="uni1EE5" unicode="&#x1ee5;" horiz-adv-x="530" 
d="M545 113l3 -5q-15 -14 -41 -44q-32 -36 -53.5 -54.5t-38.5 -18.5q-19 0 -31.5 20t-21.5 88q-41 -51 -79 -80.5t-55 -29.5q-67 0 -108 40t-41 129v331l-82 29v6h160v-364q0 -56 28 -83.5t70 -27.5q49 0 102 75v365l-82 29v6h161v-471zM232.5 -178q-15.5 15 -15.5 37
t15.5 37t38.5 15q22 0 37 -15t15 -37q0 -23 -15 -37.5t-37 -14.5q-23 0 -38.5 15z" />
    <glyph glyph-name="Ygrave" unicode="&#x1ef2;" horiz-adv-x="509" 
d="M504 669l-207 -396v-232l81 -35v-6h-246v6l80 35v233l-208 395v6h192v-6l-81 -37l170 -330l2 -5l78 149q24 47 36 79.5t12 56.5q0 31 -19.5 52t-62.5 35v6h173v-6zM104 853v6h102l61 -152h-7z" />
    <glyph glyph-name="ygrave" unicode="&#x1ef3;" horiz-adv-x="419" 
d="M259 524h159v-6l-280 -768h-92v6l154 231l-199 531v6h180v-6l-88 -28l142 -389h6l71 197q31 87 31 130q0 35 -19.5 54t-64.5 36v6zM48 744v6h90l90 -181h-7z" />
    <glyph glyph-name="uni1EF8" unicode="&#x1ef8;" horiz-adv-x="509" 
d="M504 669l-207 -396v-232l81 -35v-6h-246v6l80 35v233l-208 395v6h192v-6l-81 -37l170 -330l2 -5l78 149q24 47 36 79.5t12 56.5q0 31 -19.5 52t-62.5 35v6h173v-6zM434 850q-10 -49 -37 -81t-63 -32q-19 0 -39.5 6.5t-51.5 18.5q-26 11 -44 17t-34 6q-21 0 -38 -9
t-29 -38h-5q13 44 38.5 74t59.5 30q18 0 37 -6t48 -18t48 -18t36 -6q22 0 38.5 10t29.5 47z" />
    <glyph glyph-name="uni1EF9" unicode="&#x1ef9;" horiz-adv-x="419" 
d="M259 524h159v-6l-280 -768h-92v6l154 231l-199 531v6h180v-6l-88 -28l142 -389h6l71 197q31 87 31 130q0 35 -19.5 54t-64.5 36v6zM390 703q-25 -53 -49 -81t-56 -28q-19 0 -36.5 6t-44.5 19q-25 11 -39.5 16.5t-28.5 5.5q-22 0 -41 -10t-42 -45l-4 3q27 55 49 81.5
t54 26.5q18 0 35.5 -6t43.5 -18q24 -11 40 -16.5t31 -5.5q22 0 41.5 9.5t42.5 45.5z" />
    <glyph glyph-name="endash" unicode="&#x2013;" horiz-adv-x="603" 
d="M51 267v18h500v-18h-500z" />
    <glyph glyph-name="emdash" unicode="&#x2014;" horiz-adv-x="1103" 
d="M51 267v18h1000v-18h-1000z" />
    <glyph glyph-name="quoteleft" unicode="&#x2018;" horiz-adv-x="228" 
d="M112 506q22 -3 36.5 -17.5t14.5 -35.5t-15.5 -36t-38.5 -15t-38 14.5t-15 41.5q0 26 14 63t52 122q6 12 18 40h7z" />
    <glyph glyph-name="quoteright" unicode="&#x2019;" horiz-adv-x="228" 
d="M157 668.5q15 -14.5 15 -41.5q0 -26 -12.5 -59t-50.5 -122l-20 -45h-7l34 178q-21 2 -36 16.5t-15 35.5t15.5 36.5t38.5 15.5t38 -14.5z" />
    <glyph glyph-name="quotesinglbase" unicode="&#x201a;" horiz-adv-x="228" 
d="M157 87.5q15 -14.5 15 -41.5q0 -26 -12.5 -59t-50.5 -122l-20 -45h-7l34 178q-21 2 -36 16.5t-15 35.5t15.5 36.5t38.5 15.5t38 -14.5z" />
    <glyph glyph-name="quotedblleft" unicode="&#x201c;" horiz-adv-x="390" 
d="M112 506q22 -3 36.5 -17.5t14.5 -35.5t-15.5 -36t-38.5 -15t-38 14.5t-15 41.5q0 26 14 63t52 122q6 12 18 40h7zM274 506q22 -3 36.5 -17.5t14.5 -35.5t-15.5 -36t-38.5 -15t-38 14.5t-15 41.5q0 26 14 63t52 122q6 12 18 40h7z" />
    <glyph glyph-name="quotedblright" unicode="&#x201d;" horiz-adv-x="390" 
d="M157 668.5q15 -14.5 15 -41.5q0 -26 -12.5 -59t-50.5 -122l-20 -45h-7l34 178q-21 2 -36 16.5t-15 35.5t15.5 36.5t38.5 15.5t38 -14.5zM319 668.5q15 -14.5 15 -41.5q0 -26 -12.5 -59t-50.5 -122l-20 -45h-7l34 178q-21 2 -36 16.5t-15 35.5t15.5 36.5t38.5 15.5
t38 -14.5z" />
    <glyph glyph-name="quotedblbase" unicode="&#x201e;" horiz-adv-x="390" 
d="M157 87.5q15 -14.5 15 -41.5q0 -26 -12.5 -59t-50.5 -122l-20 -45h-7l34 178q-21 2 -36 16.5t-15 35.5t15.5 36.5t38.5 15.5t38 -14.5zM319 87.5q15 -14.5 15 -41.5q0 -26 -12.5 -59t-50.5 -122l-20 -45h-7l34 178q-21 2 -36 16.5t-15 35.5t15.5 36.5t38.5 15.5t38 -14.5
z" />
    <glyph glyph-name="dagger" unicode="&#x2020;" horiz-adv-x="403" 
d="M206 485l176 33v-76l-176 33l36 -179l-38 -421h-4l-37 421l33 179l-175 -33v76l175 -33l-37 191h83z" />
    <glyph glyph-name="daggerdbl" unicode="&#x2021;" horiz-adv-x="446" 
d="M228 489l175 33v-78l-175 34l35 -202l-35 -204l175 34v-79l-175 34l36 -187h-84l38 187l-175 -34v79l175 -34l-33 204l33 202l-175 -34v78l175 -33l-38 187h84z" />
    <glyph glyph-name="bullet" unicode="&#x2022;" horiz-adv-x="294" 
d="M79 200q-28 28 -28 68t28 68t68 28t68 -28t28 -68t-28 -68t-68 -28t-68 28z" />
    <glyph glyph-name="ellipsis" unicode="&#x2026;" horiz-adv-x="731" 
d="M71.5 12q-15.5 15 -15.5 38q0 21 15.5 36.5t38.5 15.5q22 0 37.5 -15.5t15.5 -36.5q0 -22 -15 -37.5t-38 -15.5t-38.5 15zM327.5 12q-15.5 15 -15.5 38q0 21 15.5 36.5t38.5 15.5q22 0 37.5 -15.5t15.5 -36.5q0 -22 -15 -37.5t-38 -15.5t-38.5 15zM583.5 12
q-15.5 15 -15.5 38q0 21 15.5 36.5t38.5 15.5q22 0 37.5 -15.5t15.5 -36.5q0 -22 -15 -37.5t-38 -15.5t-38.5 15z" />
    <glyph glyph-name="perthousand" unicode="&#x2030;" horiz-adv-x="1007" 
d="M60.5 376q-36.5 48 -36.5 123q0 63 25 103.5t56.5 58.5t49.5 18q68 0 103.5 -48.5t35.5 -125.5q0 -62 -25 -101.5t-56 -57.5t-49 -18q-67 0 -103.5 48zM229 383.5q16 26.5 16 74.5q0 25 -4 49q-11 67 -41 107.5t-72 37.5q-23 -2 -39.5 -28.5t-16.5 -74.5q0 -19 3 -42
q9 -65 39.5 -110t77.5 -42q21 2 37 28.5zM356 348l-7 5l152 322h67v-6zM332 327l7 -5l-150 -322h-69v6zM430.5 42q-36.5 48 -36.5 123q0 63 25 103.5t56.5 58.5t49.5 18q68 0 103.5 -48.5t35.5 -125.5q0 -62 -25 -101.5t-56 -57.5t-49 -18q-67 0 -103.5 48zM599 49.5
q16 26.5 16 74.5q0 25 -4 49q-11 67 -41 107.5t-72 37.5q-23 -2 -39.5 -28.5t-16.5 -74.5q0 -19 3 -42q9 -65 39.5 -110t77.5 -42q21 2 37 28.5zM748.5 42q-36.5 48 -36.5 123q0 63 25 103.5t56.5 58.5t49.5 18q68 0 103.5 -48.5t35.5 -125.5q0 -62 -25 -101.5t-56 -57.5
t-49 -18q-67 0 -103.5 48zM917 49.5q16 26.5 16 74.5q0 25 -4 49q-11 67 -41 107.5t-72 37.5q-23 -2 -39.5 -28.5t-16.5 -74.5q0 -19 3 -42q9 -65 39.5 -110t77.5 -42q21 2 37 28.5z" />
    <glyph glyph-name="guilsinglleft" unicode="&#x2039;" horiz-adv-x="269" 
d="M237 12l-6 -1l-199 245v3l199 225l6 -1l-128 -224v-3z" />
    <glyph glyph-name="guilsinglright" unicode="&#x203a;" horiz-adv-x="269" 
d="M237 256l-199 -245l-6 1l128 244v3l-128 224l6 1l199 -225v-3z" />
    <glyph glyph-name="fraction" unicode="&#x2044;" horiz-adv-x="51" 
d="M37 348l-7 5l152 322h67v-6zM13 327l7 -5l-150 -322h-69v6z" />
    <glyph glyph-name="uni2070" unicode="&#x2070;" horiz-adv-x="319" 
d="M60.5 451q-36.5 48 -36.5 123q0 63 25 103.5t56.5 58.5t49.5 18q68 0 103.5 -48.5t35.5 -125.5q0 -62 -25 -101.5t-56 -57.5t-49 -18q-67 0 -103.5 48zM229 458.5q16 26.5 16 74.5q0 25 -4 49q-11 67 -41 107.5t-72 37.5q-23 -2 -39.5 -28.5t-16.5 -74.5q0 -19 3 -42
q9 -65 39.5 -110t77.5 -42q21 2 37 28.5z" />
    <glyph glyph-name="uni2074" unicode="&#x2074;" horiz-adv-x="286" 
d="M278 501v-13h-77v-56h1l41 -17v-6h-143v6l42 17v56h-135v5l139 256h73v-6l-195 -242h119v82l52 56h6v-138h77z" />
    <glyph glyph-name="uni2075" unicode="&#x2075;" horiz-adv-x="282" 
d="M133 624q67 -18 93 -37t26 -55q0 -26 -20 -55t-70 -49.5t-135 -19.5v59l3 3q22 -11 51 -19.5t52 -8.5q42 0 63.5 15.5t21.5 43.5q0 25 -20.5 41t-69.5 30l-92 25l38 152h110q26 0 38.5 5t20.5 24h6l1 -76l-2 -2h-172l-14 -58z" />
    <glyph glyph-name="uni2076" unicode="&#x2076;" horiz-adv-x="287" 
d="M85.5 420q-29.5 16 -47.5 47t-18 73q0 54 29 99t73.5 75t90.5 44l3 -7q-48 -19 -83 -59.5t-47 -83.5l3 -2q13 17 35 27t37 10q45 0 77 -29t32 -82q0 -38 -19.5 -67.5t-48 -45t-54.5 -15.5q-33 0 -62.5 16zM203 438.5q16 16.5 16 53.5q0 53 -24 88t-60 35q-54 0 -54 -69
q0 -56 23.5 -90t59.5 -34q23 0 39 16.5z" />
    <glyph glyph-name="uni2077" unicode="&#x2077;" horiz-adv-x="270" 
d="M23 749h236v-6l-25 -46l-100 -288h-73v7l162 284h-153q-17 0 -25.5 -10.5t-16.5 -42.5h-7v100z" />
    <glyph glyph-name="uni2078" unicode="&#x2078;" horiz-adv-x="301" 
d="M255 554q22 -18 22 -48q0 -32 -23.5 -55t-54.5 -35.5t-51 -12.5q-49 0 -87.5 19.5t-38.5 58.5q0 34 28.5 58.5t60.5 30.5q-34 19 -52.5 38.5t-18.5 48.5q0 32 21.5 54t50 32.5t48.5 10.5q45 0 74.5 -20t29.5 -54q0 -27 -20.5 -49t-53.5 -38q43 -21 65 -39zM102 646.5
q17 -15.5 54 -35.5l22 -12q35 33 35 66q0 31 -19.5 50.5t-50.5 19.5q-25 0 -41.5 -13t-16.5 -36q0 -24 17 -39.5zM210 436.5q18 13.5 18 35.5t-18.5 38t-56.5 37l-29 16l-4 2q-21 -10 -32 -27t-11 -39q0 -38 24 -57t60 -19q31 0 49 13.5z" />
    <glyph glyph-name="uni2079" unicode="&#x2079;" horiz-adv-x="287" 
d="M201.5 742q29.5 -16 47.5 -47t18 -73q0 -54 -29 -98.5t-73 -74.5t-91 -45l-3 7q47 19 82 59.5t47 83.5l-2 2q-14 -17 -36 -27t-36 -10q-45 0 -77 29t-32 82q0 39 19.5 68t48 44.5t54.5 15.5q33 0 62.5 -16zM83 724q-16 -16 -16 -56q0 -51 24.5 -86t59.5 -35q54 0 54 68
q0 56 -23.5 90.5t-58.5 34.5q-24 0 -40 -16z" />
    <glyph glyph-name="uni2080" unicode="&#x2080;" horiz-adv-x="319" 
d="M60.5 -83q-36.5 48 -36.5 123q0 63 25 103.5t56.5 58.5t49.5 18q68 0 103.5 -48.5t35.5 -125.5q0 -62 -25 -101.5t-56 -57.5t-49 -18q-67 0 -103.5 48zM229 -75.5q16 26.5 16 74.5q0 25 -4 49q-11 67 -41 107.5t-72 37.5q-23 -2 -39.5 -28.5t-16.5 -74.5q0 -19 3 -42
q9 -65 39.5 -110t77.5 -42q21 2 37 28.5z" />
    <glyph glyph-name="uni2081" unicode="&#x2081;" horiz-adv-x="196" 
d="M131 -102l42 -17v-6h-143v6l42 17v283l-49 3v6l105 29h3v-321z" />
    <glyph glyph-name="uni2082" unicode="&#x2082;" horiz-adv-x="298" 
d="M264 -21v-101l-4 -3h-241l1 1v5l102 109q35 38 53.5 71t18.5 67q0 67 -61 67q-23 -1 -34.5 -17.5t-11.5 -44.5q0 -8 2 -24l-69 -28l-2 4q20 45 47 75.5t52 45.5t40 15q51 0 74.5 -21t23.5 -54q0 -34 -27.5 -71t-96.5 -101l-51 -48v-2h126q23 0 32.5 10.5t19.5 44.5h6z
" />
    <glyph glyph-name="uni2083" unicode="&#x2083;" horiz-adv-x="292" 
d="M269 210l-126 -121l1 -3q17 3 30 3q43 0 68 -20.5t25 -54.5q0 -30 -25 -63.5t-77 -55.5t-129 -19l1 62l3 3q25 -16 50 -23.5t44 -7.5q39 0 67.5 14.5t28.5 50.5q0 35 -27 52.5t-72 17.5q-24 0 -45 -4l-3 6l118 119h-112q-17 0 -26 -10.5t-17 -42.5h-6v100l2 2h227v-5z
" />
    <glyph glyph-name="uni2084" unicode="&#x2084;" horiz-adv-x="286" 
d="M278 -33v-13h-77v-56h1l41 -17v-6h-143v6l42 17v56h-135v5l139 256h73v-6l-195 -242h119v82l52 56h6v-138h77z" />
    <glyph glyph-name="uni2085" unicode="&#x2085;" horiz-adv-x="282" 
d="M133 90q67 -18 93 -37t26 -55q0 -26 -20 -55t-70 -49.5t-135 -19.5v59l3 3q22 -11 51 -19.5t52 -8.5q42 0 63.5 15.5t21.5 43.5q0 25 -20.5 41t-69.5 30l-92 25l38 152h110q26 0 38.5 5t20.5 24h6l1 -76l-2 -2h-172l-14 -58z" />
    <glyph glyph-name="uni2086" unicode="&#x2086;" horiz-adv-x="287" 
d="M85.5 -114q-29.5 16 -47.5 47t-18 73q0 54 29 99t73.5 75t90.5 44l3 -7q-48 -19 -83 -59.5t-47 -83.5l3 -2q13 17 35 27t37 10q45 0 77 -29t32 -82q0 -38 -19.5 -67.5t-48 -45t-54.5 -15.5q-33 0 -62.5 16zM203 -95.5q16 16.5 16 53.5q0 53 -24 88t-60 35q-54 0 -54 -69
q0 -56 23.5 -90t59.5 -34q23 0 39 16.5z" />
    <glyph glyph-name="uni2087" unicode="&#x2087;" horiz-adv-x="270" 
d="M23 215h236v-6l-25 -46l-100 -288h-73v7l162 284h-153q-17 0 -25.5 -10.5t-16.5 -42.5h-7v100z" />
    <glyph glyph-name="uni2088" unicode="&#x2088;" horiz-adv-x="301" 
d="M255 20q22 -18 22 -48q0 -32 -23.5 -55t-54.5 -35.5t-51 -12.5q-49 0 -87.5 19.5t-38.5 58.5q0 34 28.5 58.5t60.5 30.5q-34 19 -52.5 38.5t-18.5 48.5q0 32 21.5 54t50 32.5t48.5 10.5q45 0 74.5 -20t29.5 -54q0 -27 -20.5 -49t-53.5 -38q43 -21 65 -39zM102 112.5
q17 -15.5 54 -35.5l22 -12q35 33 35 66q0 31 -19.5 50.5t-50.5 19.5q-25 0 -41.5 -13t-16.5 -36q0 -24 17 -39.5zM210 -97.5q18 13.5 18 35.5t-18.5 38t-56.5 37l-29 16l-4 2q-21 -10 -32 -27t-11 -39q0 -38 24 -57t60 -19q31 0 49 13.5z" />
    <glyph glyph-name="uni2089" unicode="&#x2089;" horiz-adv-x="287" 
d="M201.5 208q29.5 -16 47.5 -47t18 -73q0 -54 -29 -98.5t-73 -74.5t-91 -45l-3 7q47 19 82 59.5t47 83.5l-2 2q-14 -17 -36 -27t-36 -10q-45 0 -77 29t-32 82q0 39 19.5 68t48 44.5t54.5 15.5q33 0 62.5 -16zM83 190q-16 -16 -16 -56q0 -51 24.5 -86t59.5 -35q54 0 54 68
q0 56 -23.5 90.5t-58.5 34.5q-24 0 -40 -16z" />
    <glyph glyph-name="Euro" unicode="&#x20ac;" horiz-adv-x="635" 
d="M542 218v-218h-104q-144 0 -222.5 77.5t-94.5 196.5h-86v18h84q-2 28 -2 41q0 26 3 51h-85v18h87q13 80 53 141.5t104.5 96.5t148.5 35h101v-218h-7l-15 48q-25 77 -35.5 103.5t-23 36t-38.5 9.5q-80 0 -133.5 -68.5t-65.5 -183.5h233v-18h-235q-2 -32 -2 -51
q0 -28 1 -41h236v-18h-235q10 -123 65.5 -188.5t146.5 -65.5q26 0 38.5 9t23 34.5t34.5 99.5l18 55h7z" />
    <glyph glyph-name="trademark" unicode="&#x2122;" horiz-adv-x="540" 
d="M186 657q-22 0 -34 -9t-19.5 -28t-20.5 -64q-12 -42 -17 -56h-3v170l2 2h349l2 -2v-170h-4l-15 51q-14 48 -21.5 67.5t-19.5 29t-35 9.5h-54v-276l55 -22v-4h-168v4l57 22v276h-54zM456 343l-15 -25v-318h-111v4l56 24v273h-3l-120 -222h-4l-137 205h-3v-160
q0 -39 11 -60.5t26 -31.5t51 -27v-5h-103l1 311l-26 32v4h68l129 -201h4l108 201h68v-4z" />
    <glyph glyph-name="uni2153" unicode="&#x2153;" horiz-adv-x="590" 
d="M131 357l42 -17v-6h-143v6l42 17v283l-49 3v6l105 29h3v-321zM284 348l-7 5l152 322h67v-6zM260 327l7 -5l-150 -322h-69v6zM567 335l-126 -121l1 -3q17 3 30 3q43 0 68 -20.5t25 -54.5q0 -30 -25 -63.5t-77 -55.5t-129 -19l1 62l3 3q25 -16 50 -23.5t44 -7.5
q39 0 67.5 14.5t28.5 50.5q0 35 -27 52.5t-72 17.5q-24 0 -45 -4l-3 6l118 119h-112q-17 0 -26 -10.5t-17 -42.5h-6v100l2 2h227v-5z" />
    <glyph glyph-name="uni2154" unicode="&#x2154;" horiz-adv-x="641" 
d="M264 438v-101l-4 -3h-241l1 1v5l102 109q35 38 53.5 71t18.5 67q0 67 -61 67q-23 -1 -34.5 -17.5t-11.5 -44.5q0 -8 2 -24l-69 -28l-2 4q20 45 47 75.5t52 45.5t40 15q51 0 74.5 -21t23.5 -54q0 -34 -27.5 -71t-96.5 -101l-51 -48v-2h126q23 0 32.5 10.5t19.5 44.5h6z
M335 348l-7 5l152 322h67v-6zM311 327l7 -5l-150 -322h-69v6zM618 335l-126 -121l1 -3q17 3 30 3q43 0 68 -20.5t25 -54.5q0 -30 -25 -63.5t-77 -55.5t-129 -19l1 62l3 3q25 -16 50 -23.5t44 -7.5q39 0 67.5 14.5t28.5 50.5q0 35 -27 52.5t-72 17.5q-24 0 -45 -4l-3 6
l118 119h-112q-17 0 -26 -10.5t-17 -42.5h-6v100l2 2h227v-5z" />
    <glyph glyph-name="oneeighth" unicode="&#x215b;" horiz-adv-x="599" 
d="M131 357l42 -17v-6h-143v6l42 17v283l-49 3v6l105 29h3v-321zM284 348l-7 5l152 322h67v-6zM260 327l7 -5l-150 -322h-69v6zM553 145q22 -18 22 -48q0 -32 -23.5 -55t-54.5 -35.5t-51 -12.5q-49 0 -87.5 19.5t-38.5 58.5q0 34 28.5 58.5t60.5 30.5q-34 19 -52.5 38.5
t-18.5 48.5q0 32 21.5 54t50 32.5t48.5 10.5q45 0 74.5 -20t29.5 -54q0 -27 -20.5 -49t-53.5 -38q43 -21 65 -39zM400 237.5q17 -15.5 54 -35.5l22 -12q35 33 35 66q0 31 -19.5 50.5t-50.5 19.5q-25 0 -41.5 -13t-16.5 -36q0 -24 17 -39.5zM508 27.5q18 13.5 18 35.5
t-18.5 38t-56.5 37l-29 16l-4 2q-21 -10 -32 -27t-11 -39q0 -38 24 -57t60 -19q31 0 49 13.5z" />
    <glyph glyph-name="threeeighths" unicode="&#x215c;" horiz-adv-x="644" 
d="M269 669l-126 -121l1 -3q17 3 30 3q43 0 68 -20.5t25 -54.5q0 -30 -25 -63.5t-77 -55.5t-129 -19l1 62l3 3q25 -16 50 -23.5t44 -7.5q39 0 67.5 14.5t28.5 50.5q0 35 -27 52.5t-72 17.5q-24 0 -45 -4l-3 6l118 119h-112q-17 0 -26 -10.5t-17 -42.5h-6v100l2 2h227v-5z
M329 348l-7 5l152 322h67v-6zM305 327l7 -5l-150 -322h-69v6zM598 145q22 -18 22 -48q0 -32 -23.5 -55t-54.5 -35.5t-51 -12.5q-49 0 -87.5 19.5t-38.5 58.5q0 34 28.5 58.5t60.5 30.5q-34 19 -52.5 38.5t-18.5 48.5q0 32 21.5 54t50 32.5t48.5 10.5q45 0 74.5 -20t29.5 -54
q0 -27 -20.5 -49t-53.5 -38q43 -21 65 -39zM445 237.5q17 -15.5 54 -35.5l22 -12q35 33 35 66q0 31 -19.5 50.5t-50.5 19.5q-25 0 -41.5 -13t-16.5 -36q0 -24 17 -39.5zM553 27.5q18 13.5 18 35.5t-18.5 38t-56.5 37l-29 16l-4 2q-21 -10 -32 -27t-11 -39q0 -38 24 -57
t60 -19q31 0 49 13.5z" />
    <glyph glyph-name="fiveeighths" unicode="&#x215d;" horiz-adv-x="634" 
d="M133 549q67 -18 93 -37t26 -55q0 -26 -20 -55t-70 -49.5t-135 -19.5v59l3 3q22 -11 51 -19.5t52 -8.5q42 0 63.5 15.5t21.5 43.5q0 25 -20.5 41t-69.5 30l-92 25l38 152h110q26 0 38.5 5t20.5 24h6l1 -76l-2 -2h-172l-14 -58zM319 348l-7 5l152 322h67v-6zM295 327l7 -5
l-150 -322h-69v6zM588 145q22 -18 22 -48q0 -32 -23.5 -55t-54.5 -35.5t-51 -12.5q-49 0 -87.5 19.5t-38.5 58.5q0 34 28.5 58.5t60.5 30.5q-34 19 -52.5 38.5t-18.5 48.5q0 32 21.5 54t50 32.5t48.5 10.5q45 0 74.5 -20t29.5 -54q0 -27 -20.5 -49t-53.5 -38q43 -21 65 -39z
M435 237.5q17 -15.5 54 -35.5l22 -12q35 33 35 66q0 31 -19.5 50.5t-50.5 19.5q-25 0 -41.5 -13t-16.5 -36q0 -24 17 -39.5zM543 27.5q18 13.5 18 35.5t-18.5 38t-56.5 37l-29 16l-4 2q-21 -10 -32 -27t-11 -39q0 -38 24 -57t60 -19q31 0 49 13.5z" />
    <glyph glyph-name="seveneighths" unicode="&#x215e;" horiz-adv-x="622" 
d="M23 674h236v-6l-25 -46l-100 -288h-73v7l162 284h-153q-17 0 -25.5 -10.5t-16.5 -42.5h-7v100zM307 348l-7 5l152 322h67v-6zM283 327l7 -5l-150 -322h-69v6zM576 145q22 -18 22 -48q0 -32 -23.5 -55t-54.5 -35.5t-51 -12.5q-49 0 -87.5 19.5t-38.5 58.5q0 34 28.5 58.5
t60.5 30.5q-34 19 -52.5 38.5t-18.5 48.5q0 32 21.5 54t50 32.5t48.5 10.5q45 0 74.5 -20t29.5 -54q0 -27 -20.5 -49t-53.5 -38q43 -21 65 -39zM423 237.5q17 -15.5 54 -35.5l22 -12q35 33 35 66q0 31 -19.5 50.5t-50.5 19.5q-25 0 -41.5 -13t-16.5 -36q0 -24 17 -39.5z
M531 27.5q18 13.5 18 35.5t-18.5 38t-56.5 37l-29 16l-4 2q-21 -10 -32 -27t-11 -39q0 -38 24 -57t60 -19q31 0 49 13.5z" />
    <glyph glyph-name="arrowleft" unicode="&#x2190;" horiz-adv-x="738" 
d="M148 285l561 15v-50l-560 15l220 -186l-2 -5l-343 201v3l343 201l2 -6z" />
    <glyph glyph-name="arrowup" unicode="&#x2191;" horiz-adv-x="447" 
d="M225 685l201 -344l-5 -1l-186 220l15 -560h-50l14 560l-188 -220l-5 1l201 344h3z" />
    <glyph glyph-name="arrowright" unicode="&#x2192;" horiz-adv-x="738" 
d="M369 473l1 6l344 -201v-3l-344 -201l-1 5l220 186l-560 -15v50l561 -15z" />
    <glyph glyph-name="arrowdown" unicode="&#x2193;" horiz-adv-x="448" 
d="M233 114l188 221l5 -1l-201 -344h-3l-201 344l5 1l186 -219l-14 559h50z" />
    <glyph glyph-name="minus" unicode="&#x2212;" horiz-adv-x="437" 
d="M33 267v18h371v-18h-371z" />
    <glyph glyph-name="notequal" unicode="&#x2260;" horiz-adv-x="437" 
d="M404 365v-18h-136l-79 -162h215v-18h-224l-39 -81h-21l39 81h-126v18h135l79 162h-214v18h223l39 80h21l-39 -80h127z" />
    <glyph glyph-name="lessequal" unicode="&#x2264;" horiz-adv-x="515" 
d="M457 145v-20l-410 181v20l410 176v-20l-384 -165v-3zM50 75v18h407v-18h-407z" />
    <glyph glyph-name="greaterequal" unicode="&#x2265;" horiz-adv-x="515" 
d="M468 306l-410 -181v20l384 169v3l-384 165v20l410 -176v-20zM58 93h407v-18h-407v18z" />
    <glyph glyph-name="uni2460" unicode="&#x2460;" 
d="M264.5 -96.5q-104.5 59.5 -164.5 163t-60 230.5q0 129 60 233.5t164.5 164.5t233.5 60q131 0 236.5 -59.5t165.5 -164.5t60 -234q0 -128 -60 -231.5t-165.5 -162.5t-236.5 -59q-129 0 -233.5 59.5zM720 -74.5q99 55.5 155 153t56 218.5q0 122 -56.5 220.5t-155 155
t-221.5 56.5q-121 0 -219.5 -56.5t-154.5 -155t-56 -220.5q0 -120 56 -217.5t154.5 -153.5t219.5 -56q123 0 222 55.5zM539 568v-499l64 -27v-11h-198v11l64 27v447l-71 2v11l132 39h9z" />
    <glyph glyph-name="uni2461" unicode="&#x2461;" 
d="M734.5 695.5q105.5 -59.5 165.5 -164.5t60 -234q0 -128 -60 -231.5t-165.5 -162.5t-236.5 -59q-129 0 -233.5 59.5t-164.5 163t-60 230.5q0 129 60 233.5t164.5 164.5t233.5 60q131 0 236.5 -59.5zM720 -74.5q99 55.5 155 153t56 218.5q0 122 -56.5 220.5t-155 155
t-221.5 56.5q-121 0 -219.5 -56.5t-154.5 -155t-56 -220.5q0 -120 56 -217.5t154.5 -153.5t219.5 -56q123 0 222 55.5zM587 91q21 0 31.5 7t17.5 23.5t19 59.5h12v-147l-7 -6h-326l1 11l153 186q47 56 69.5 103.5t22.5 93.5q0 50 -23.5 76.5t-66.5 26.5q-79 -2 -74 -126
l-78 -37l-6 5q24 63 57.5 109.5t67.5 70.5t59 24q73 0 104 -36t31 -83q0 -52 -33.5 -107.5t-103.5 -128.5l-106 -125h179z" />
    <glyph glyph-name="uni2462" unicode="&#x2462;" 
d="M734.5 695.5q105.5 -59.5 165.5 -164.5t60 -234q0 -128 -60 -231.5t-165.5 -162.5t-236.5 -59q-129 0 -233.5 59.5t-164.5 163t-60 230.5q0 129 60 233.5t164.5 164.5t233.5 60q131 0 236.5 -59.5zM720 -74.5q99 55.5 155 153t56 218.5q0 122 -56.5 220.5t-155 155
t-221.5 56.5q-121 0 -219.5 -56.5t-154.5 -155t-56 -220.5q0 -120 56 -217.5t154.5 -153.5t219.5 -56q123 0 222 55.5zM349 563l4 5h303v-11l-173 -189q21 4 44 4q57 0 90 -30t33 -84q0 -48 -34.5 -99.5t-104 -87.5t-168.5 -37v71l7 5q50 -17 98 -17q61 0 105 26t44 92
q0 55 -28.5 83t-75.5 28q-35 0 -74 -15l-8 12l164 186h-163q-14 0 -22.5 -6.5t-15 -24t-14.5 -53.5h-11v142z" />
    <glyph glyph-name="uni2463" unicode="&#x2463;" 
d="M264.5 -96.5q-104.5 59.5 -164.5 163t-60 230.5q0 129 60 233.5t164.5 164.5t233.5 60q131 0 236.5 -59.5t165.5 -164.5t60 -234q0 -128 -60 -231.5t-165.5 -162.5t-236.5 -59q-129 0 -233.5 59.5zM720 -74.5q99 55.5 155 153t56 218.5q0 122 -56.5 220.5t-155 155
t-221.5 56.5q-121 0 -219.5 -56.5t-154.5 -155t-56 -220.5q0 -120 56 -217.5t154.5 -153.5t219.5 -56q123 0 222 55.5zM575 212l98 -33l11 -20l-97 -3l-11 -78l59 -27l4 -16l-166 -2l-31 10l59 22l5 84l-167 7l-23 7l179 354l74 49l27 -9l-201 -331l93 -47l19 119l36 67
l31 19z" />
    <glyph glyph-name="uni2464" unicode="&#x2464;" 
d="M264.5 -96.5q-104.5 59.5 -164.5 163t-60 230.5q0 129 60 233.5t164.5 164.5t233.5 60q131 0 236.5 -59.5t165.5 -164.5t60 -234q0 -128 -60 -231.5t-165.5 -162.5t-236.5 -59q-129 0 -233.5 59.5zM720 -74.5q99 55.5 155 153t56 218.5q0 122 -56.5 220.5t-155 155
t-221.5 56.5q-121 0 -219.5 -56.5t-154.5 -155t-56 -220.5q0 -120 56 -217.5t154.5 -153.5t219.5 -56q123 0 222 55.5zM349 83l7 5q73 -17 110 -17q64 0 97.5 26t33.5 75q0 42 -27.5 67t-94.5 51l-113 40l50 217h148q35 0 50 7t25 34h12l1 -100l-5 -5h-221l-23 -98l88 -30
q87 -30 123 -60t36 -85q0 -41 -28 -85.5t-94.5 -77.5t-174.5 -36v72z" />
    <glyph glyph-name="uni2465" unicode="&#x2465;" 
d="M734.5 695.5q105.5 -59.5 165.5 -164.5t60 -234q0 -128 -60 -231.5t-165.5 -162.5t-236.5 -59q-129 0 -233.5 59.5t-164.5 163t-60 230.5q0 129 60 233.5t164.5 164.5t233.5 60q131 0 236.5 -59.5zM720 -74.5q99 55.5 155 153t56 218.5q0 122 -56.5 220.5t-155 155
t-221.5 56.5q-121 0 -219.5 -56.5t-154.5 -155t-56 -220.5q0 -120 56 -217.5t154.5 -153.5t219.5 -56q123 0 222 55.5zM587 377q36 -19 58.5 -58t22.5 -97q0 -63 -28.5 -108t-67 -68.5t-66.5 -23.5q-49 0 -89 26.5t-63 74t-23 108.5q0 88 42 158.5t100 116.5t113 72l9 -11
q-58 -28 -108 -91.5t-68 -126.5q19 21 46 34t44 13q42 0 78 -19zM589 91.5q22 33.5 19 97.5q-1 46 -18 83t-44 58.5t-59 21.5q-85 0 -85 -116q0 -50 16 -91t43.5 -64t61.5 -23q44 0 66 33.5z" />
    <glyph glyph-name="uni2466" unicode="&#x2466;" 
d="M264.5 -96.5q-104.5 59.5 -164.5 163t-60 230.5q0 129 60 233.5t164.5 164.5t233.5 60q131 0 236.5 -59.5t165.5 -164.5t60 -234q0 -128 -60 -231.5t-165.5 -162.5t-236.5 -59q-129 0 -233.5 59.5zM720 -74.5q99 55.5 155 153t56 218.5q0 122 -56.5 220.5t-155 155
t-221.5 56.5q-121 0 -219.5 -56.5t-154.5 -155t-56 -220.5q0 -120 56 -217.5t154.5 -153.5t219.5 -56q123 0 222 55.5zM341 561l4 5h316v-8l-27 -58l-153 -467h-81v10l209 460h-205q-14 0 -22.5 -6.5t-14.5 -24t-14 -53.5h-12v142z" />
    <glyph glyph-name="uni2467" unicode="&#x2467;" 
d="M734.5 695.5q105.5 -59.5 165.5 -164.5t60 -234q0 -128 -60 -231.5t-165.5 -162.5t-236.5 -59q-129 0 -233.5 59.5t-164.5 163t-60 230.5q0 129 60 233.5t164.5 164.5t233.5 60q131 0 236.5 -59.5zM720 -74.5q99 55.5 155 153t56 218.5q0 122 -56.5 220.5t-155 155
t-221.5 56.5q-121 0 -219.5 -56.5t-154.5 -155t-56 -220.5q0 -120 56 -217.5t154.5 -153.5t219.5 -56q123 0 222 55.5zM640.5 258q30.5 -28 30.5 -73q0 -46 -31.5 -82.5t-74 -57t-69.5 -20.5q-71 0 -118.5 33t-47.5 90q0 52 34.5 91t74.5 57q-40 23 -62.5 52t-22.5 72
q0 48 28 83t65.5 53.5t61.5 18.5q63 0 103 -33t40 -88q0 -45 -26.5 -79t-69.5 -62q54 -27 84.5 -55zM430 389.5q26 -24.5 77 -49.5l27 -15q56 50 56 106q0 46 -27.5 74t-72.5 28q-39 0 -62.5 -21t-23.5 -58q0 -40 26 -64.5zM587.5 91.5q28.5 22.5 28.5 58.5q0 35 -28 59
t-81 51l-32 17l-14 7q-66 -36 -66 -106q0 -51 33 -80t86 -29q45 0 73.5 22.5z" />
    <glyph glyph-name="uni2468" unicode="&#x2468;" 
d="M734.5 695.5q105.5 -59.5 165.5 -164.5t60 -234q0 -128 -60 -231.5t-165.5 -162.5t-236.5 -59q-129 0 -233.5 59.5t-164.5 163t-60 230.5q0 129 60 233.5t164.5 164.5t233.5 60q131 0 236.5 -59.5zM720 -74.5q99 55.5 155 153t56 218.5q0 122 -56.5 220.5t-155 155
t-221.5 56.5q-121 0 -219.5 -56.5t-154.5 -155t-56 -220.5q0 -120 56 -217.5t154.5 -153.5t219.5 -56q123 0 222 55.5zM582 551.5q40 -26.5 63 -74.5t23 -109q0 -88 -42 -159t-100 -117t-113 -71l-9 12q58 29 108.5 92.5t68.5 125.5q-20 -22 -46.5 -35t-44.5 -13
q-67 0 -113 44t-46 130q0 63 28.5 108.5t67 69t66.5 23.5q49 0 89 -26.5zM575.5 276.5q21.5 29.5 21.5 87.5q0 50 -16 90.5t-43.5 63.5t-61.5 23q-85 0 -85 -116q0 -50 16 -91t43.5 -64t61.5 -23q42 0 63.5 29.5z" />
    <glyph glyph-name="uni2469" unicode="&#x2469;" 
d="M264.5 -96.5q-104.5 59.5 -164.5 163t-60 230.5q0 129 60 233.5t164.5 164.5t233.5 60q131 0 236.5 -59.5t165.5 -164.5t60 -234q0 -128 -60 -231.5t-165.5 -162.5t-236.5 -59q-129 0 -233.5 59.5zM720 -74.5q99 55.5 155 153t56 218.5q0 122 -56.5 220.5t-155 155
t-221.5 56.5q-121 0 -219.5 -56.5t-154.5 -155t-56 -220.5q0 -120 56 -217.5t154.5 -153.5t219.5 -56q123 0 222 55.5zM476.5 96q-49.5 70 -49.5 195q0 95 32.5 158.5t74 94t67.5 30.5q89 0 138.5 -71t49.5 -201q0 -91 -33 -153t-75 -92.5t-67 -30.5q-88 0 -137.5 70z
M372 572v-500l63 -26v-12h-197v12l63 26v448l-70 1v12l132 39h9zM703.5 117.5q29.5 45.5 29.5 137.5q0 24 -1 36q-4 64 -24 118t-53.5 86t-75.5 32q-25 0 -47.5 -19.5t-37 -62t-14.5 -107.5q0 -68 19 -129.5t54 -99t78 -37.5t72.5 45.5z" />
    <glyph glyph-name="uni246A" unicode="&#x246a;" 
d="M264.5 -96.5q-104.5 59.5 -164.5 163t-60 230.5q0 129 60 233.5t164.5 164.5t233.5 60q131 0 236.5 -59.5t165.5 -164.5t60 -234q0 -128 -60 -231.5t-165.5 -162.5t-236.5 -59q-129 0 -233.5 59.5zM720 -74.5q99 55.5 155 153t56 218.5q0 122 -56.5 220.5t-155 155
t-221.5 56.5q-121 0 -219.5 -56.5t-154.5 -155t-56 -220.5q0 -120 56 -217.5t154.5 -153.5t219.5 -56q123 0 222 55.5zM413 568v-499l64 -27v-11h-198v11l64 27v447l-71 2v11l133 39h8zM665 568v-499l63 -27v-11h-198v11l64 27v447l-71 2v11l133 39h9z" />
    <glyph glyph-name="uni246B" unicode="&#x246b;" 
d="M734.5 695.5q105.5 -59.5 165.5 -164.5t60 -234q0 -128 -60 -231.5t-165.5 -162.5t-236.5 -59q-129 0 -233.5 59.5t-164.5 163t-60 230.5q0 129 60 233.5t164.5 164.5t233.5 60q131 0 236.5 -59.5zM720 -74.5q99 55.5 155 153t56 218.5q0 122 -56.5 220.5t-155 155
t-221.5 56.5q-121 0 -219.5 -56.5t-154.5 -155t-56 -220.5q0 -120 56 -217.5t154.5 -153.5t219.5 -56q123 0 222 55.5zM713 91q21 0 31.5 7t17.5 23.5t19 59.5h11v-147l-7 -6h-325l1 11l153 186q47 57 69.5 104t22.5 93q0 50 -23.5 76.5t-66.5 26.5q-39 -1 -58 -33t-16 -93
l-78 -37l-6 5q24 63 57.5 109.5t67.5 70.5t59 24q73 0 104 -36t31 -83q0 -51 -34 -107t-103 -129l-106 -125h179zM346 566v-500l63 -26v-12h-198v12l64 26v448l-71 1v12l133 39h9z" />
    <glyph glyph-name="uni246C" unicode="&#x246c;" 
d="M734.5 695.5q105.5 -59.5 165.5 -164.5t60 -234q0 -128 -60 -231.5t-165.5 -162.5t-236.5 -59q-129 0 -233.5 59.5t-164.5 163t-60 230.5q0 129 60 233.5t164.5 164.5t233.5 60q131 0 236.5 -59.5zM720 -74.5q99 55.5 155 153t56 218.5q0 122 -56.5 220.5t-155 155
t-221.5 56.5q-121 0 -219.5 -56.5t-154.5 -155t-56 -220.5q0 -120 56 -217.5t154.5 -153.5t219.5 -56q123 0 222 55.5zM356 569v-499l63 -27v-11h-197v11l63 27v447l-70 2v11l132 39h9zM478 559l4 6h303v-11l-174 -189q21 4 45 4q57 0 90 -30.5t33 -84.5q0 -48 -34.5 -99.5
t-104 -87t-168.5 -36.5l1 71l6 5q51 -17 98 -17q62 0 105.5 26t43.5 92q0 55 -28 83t-75 28q-36 0 -75 -15l-7 12l164 185h-164q-14 0 -22.5 -6t-14.5 -23.5t-14 -53.5h-12v141z" />
    <glyph glyph-name="uni246D" unicode="&#x246d;" 
d="M264.5 -96.5q-104.5 59.5 -164.5 163t-60 230.5q0 129 60 233.5t164.5 164.5t233.5 60q131 0 236.5 -59.5t165.5 -164.5t60 -234q0 -128 -60 -231.5t-165.5 -162.5t-236.5 -59q-129 0 -233.5 59.5zM720 -74.5q99 55.5 155 153t56 218.5q0 122 -56.5 220.5t-155 155
t-221.5 56.5q-121 0 -219.5 -56.5t-154.5 -155t-56 -220.5q0 -120 56 -217.5t154.5 -153.5t219.5 -56q123 0 222 55.5zM359 568v-499l63 -27v-11h-197v11l63 27v447l-70 2v11l132 39h9zM672 209l98 -33l11 -19l-97 -3l-11 -79l59 -27l4 -16l-166 -1l-31 10l59 22l5 84
l-167 7l-23 7l179 353l74 50l27 -9l-201 -331l93 -48l19 120l36 67l31 19z" />
    <glyph glyph-name="uni246E" unicode="&#x246e;" 
d="M264.5 -96.5q-104.5 59.5 -164.5 163t-60 230.5q0 129 60 233.5t164.5 164.5t233.5 60q131 0 236.5 -59.5t165.5 -164.5t60 -234q0 -128 -60 -231.5t-165.5 -162.5t-236.5 -59q-129 0 -233.5 59.5zM720 -74.5q99 55.5 155 153t56 218.5q0 122 -56.5 220.5t-155 155
t-221.5 56.5q-121 0 -219.5 -56.5t-154.5 -155t-56 -220.5q0 -120 56 -217.5t154.5 -153.5t219.5 -56q123 0 222 55.5zM478 83l7 5q73 -17 111 -17q64 0 97.5 26t33.5 75q0 40 -26.5 66t-95.5 52l-113 40l49 217h148q36 0 50.5 7t25.5 34h12v-100l-5 -5h-221l-22 -98l88 -30
q87 -30 123 -60t36 -85q0 -41 -28 -85.5t-94.5 -77.5t-175.5 -36v72zM361 551v-499l64 -27v-11h-198v11l64 27v448l-71 1v11l133 39h8z" />
    <glyph glyph-name="uni246F" unicode="&#x246f;" 
d="M734.5 695.5q105.5 -59.5 165.5 -164.5t60 -234q0 -128 -60 -231.5t-165.5 -162.5t-236.5 -59q-129 0 -233.5 59.5t-164.5 163t-60 230.5q0 129 60 233.5t164.5 164.5t233.5 60q131 0 236.5 -59.5zM720 -74.5q99 55.5 155 153t56 218.5q0 122 -56.5 220.5t-155 155
t-221.5 56.5q-121 0 -219.5 -56.5t-154.5 -155t-56 -220.5q0 -120 56 -217.5t154.5 -153.5t219.5 -56q123 0 222 55.5zM685 377q36 -19 58.5 -58t22.5 -97q0 -63 -28.5 -108t-67 -68.5t-66.5 -23.5q-49 0 -89 26.5t-63 74t-23 108.5q0 88 42 158.5t100 116.5t113 72l9 -11
q-58 -28 -108 -91.5t-68 -126.5q19 21 46 34t44 13q42 0 78 -19zM375 567v-500l63 -26v-12h-197v12l63 26v448l-70 1v12l132 39h9zM684.5 87.5q21.5 29.5 21.5 86.5q0 49 -16 90t-44 64.5t-61 23.5q-85 0 -85 -116q0 -50 16 -91t43.5 -64t61.5 -23q42 0 63.5 29.5z" />
    <glyph glyph-name="uni2470" unicode="&#x2470;" 
d="M264.5 -96.5q-104.5 59.5 -164.5 163t-60 230.5q0 129 60 233.5t164.5 164.5t233.5 60q131 0 236.5 -59.5t165.5 -164.5t60 -234q0 -128 -60 -231.5t-165.5 -162.5t-236.5 -59q-129 0 -233.5 59.5zM720 -74.5q99 55.5 155 153t56 218.5q0 122 -56.5 220.5t-155 155
t-221.5 56.5q-121 0 -219.5 -56.5t-154.5 -155t-56 -220.5q0 -120 56 -217.5t154.5 -153.5t219.5 -56q123 0 222 55.5zM381 568v-499l64 -27v-11h-198v11l64 27v447l-71 2v11l132 39h9zM441 558l4 6h316v-8l-27 -59l-153 -466h-81v10l209 459h-205q-14 0 -22.5 -6
t-14.5 -23.5t-14 -53.5h-12v141z" />
    <glyph glyph-name="uni2471" unicode="&#x2471;" 
d="M734.5 695.5q105.5 -59.5 165.5 -164.5t60 -234q0 -128 -60 -231.5t-165.5 -162.5t-236.5 -59q-129 0 -233.5 59.5t-164.5 163t-60 230.5q0 129 60 233.5t164.5 164.5t233.5 60q131 0 236.5 -59.5zM720 -74.5q99 55.5 155 153t56 218.5q0 122 -56.5 220.5t-155 155
t-221.5 56.5q-121 0 -219.5 -56.5t-154.5 -155t-56 -220.5q0 -120 56 -217.5t154.5 -153.5t219.5 -56q123 0 222 55.5zM737.5 258q30.5 -28 30.5 -73q0 -46 -31.5 -82.5t-74 -57t-69.5 -20.5q-71 0 -118.5 33t-47.5 90q0 52 34.5 91t74.5 57q-40 23 -62.5 52t-22.5 72
q0 48 28 83t65.5 53.5t61.5 18.5q62 0 102.5 -33t40.5 -88q0 -45 -26.5 -79t-69.5 -62q54 -27 84.5 -55zM373 572v-500l64 -26v-12h-198v12l64 26v448l-71 1v12l132 39h9zM527 389.5q26 -24.5 77 -49.5l27 -15q55 49 55 106q0 46 -27 74t-72 28q-39 0 -62.5 -21t-23.5 -58
q0 -40 26 -64.5zM684.5 91.5q28.5 22.5 28.5 58.5q0 35 -28 59t-81 51l-32 17l-14 7q-66 -37 -66 -106q0 -51 33 -80t86 -29q45 0 73.5 22.5z" />
    <glyph glyph-name="uni2472" unicode="&#x2472;" 
d="M734.5 695.5q105.5 -59.5 165.5 -164.5t60 -234q0 -128 -60 -231.5t-165.5 -162.5t-236.5 -59q-129 0 -233.5 59.5t-164.5 163t-60 230.5q0 129 60 233.5t164.5 164.5t233.5 60q131 0 236.5 -59.5zM720 -74.5q99 55.5 155 153t56 218.5q0 122 -56.5 220.5t-155 155
t-221.5 56.5q-121 0 -219.5 -56.5t-154.5 -155t-56 -220.5q0 -120 56 -217.5t154.5 -153.5t219.5 -56q123 0 222 55.5zM691 550.5q40 -26.5 63 -74t23 -108.5q0 -88 -42 -159t-100.5 -117t-113.5 -72l-8 12q58 28 108 92t69 127q-20 -22 -47 -35.5t-44 -13.5
q-66 0 -112.5 44.5t-46.5 130.5q0 63 28.5 108t67 68.5t66.5 23.5q49 0 89 -26.5zM384 575v-500l63 -26v-11h-197v11l63 26v448l-70 2v11l132 39h9zM684 276q22 30 22 88q0 50 -16 90.5t-43.5 63.5t-61.5 23q-45 0 -66.5 -33t-18.5 -98q1 -46 17.5 -83.5t43.5 -59t60 -21.5
q41 0 63 30z" />
    <glyph glyph-name="uni2473" unicode="&#x2473;" 
d="M734.5 695.5q105.5 -59.5 165.5 -164.5t60 -234q0 -128 -60 -231.5t-165.5 -162.5t-236.5 -59q-129 0 -233.5 59.5t-164.5 163t-60 230.5q0 129 60 233.5t164.5 164.5t233.5 60q131 0 236.5 -59.5zM720 -74.5q99 55.5 155 153t56 218.5q0 122 -56.5 220.5t-155 155
t-221.5 56.5q-121 0 -219.5 -56.5t-154.5 -155t-56 -220.5q0 -143 78 -252l151 184q46 56 68.5 102.5t22.5 91.5q0 51 -22 78.5t-65 27.5q-82 0 -76 -126l-78 -37l-7 5q24 63 58 109.5t68 70.5t59 24q73 0 104 -36t31 -83q0 -51 -34 -107t-103 -128l-108 -126h181q21 0 31 7
t17 23.5t19 59.5h12v-146l-7 -7h-313q60 -76 148.5 -119t194.5 -43q123 0 222 55.5zM830.5 501.5q49.5 -71.5 49.5 -201.5q0 -91 -33 -153t-75.5 -92.5t-67.5 -30.5q-88 0 -137.5 70.5t-49.5 194.5q0 95 32.5 159t74.5 94.5t68 30.5q89 0 138.5 -71.5zM794.5 116.5
q29.5 46.5 29.5 141.5q0 22 -1 34q-4 63 -24.5 116.5t-54 85t-75.5 31.5q-25 0 -47 -20t-36.5 -63t-14.5 -109t19.5 -127t54 -98.5t77.5 -37.5t72.5 46.5z" />
    <glyph glyph-name="uni24EA" unicode="&#x24ea;" 
d="M264.5 -96.5q-104.5 59.5 -164.5 163t-60 230.5q0 129 60 233.5t164.5 164.5t233.5 60q131 0 236.5 -59.5t165.5 -164.5t60 -234q0 -128 -60 -231.5t-165.5 -162.5t-236.5 -59q-129 0 -233.5 59.5zM720 -74.5q99 55.5 155 153t56 218.5q0 122 -56.5 220.5t-155 155
t-221.5 56.5q-121 0 -219.5 -56.5t-154.5 -155t-56 -220.5q0 -120 56 -217.5t154.5 -153.5t219.5 -56q123 0 222 55.5zM368.5 96q-49.5 70 -49.5 195q0 95 32.5 158.5t74 94t67.5 30.5q89 0 138.5 -71t49.5 -201q0 -91 -32.5 -153t-75 -92.5t-67.5 -30.5q-88 0 -137.5 70z
M596.5 118.5q29.5 46.5 29.5 141.5q0 22 -1 34q-4 63 -24.5 116t-54 85t-75.5 32q-25 0 -47.5 -19.5t-37 -62t-14.5 -107.5q0 -68 19.5 -129t54 -99t77.5 -38q44 0 73.5 46.5z" />
    <glyph glyph-name="uni24EB" unicode="&#x24eb;" 
d="M264.5 -96.5q-104.5 59.5 -164.5 163t-60 230.5q0 129 60 233.5t164.5 164.5t233.5 60q130 0 235.5 -60t166 -164.5t60.5 -233.5q0 -128 -60.5 -231.5t-166 -162.5t-235.5 -59q-129 0 -233.5 59.5zM279 42v-11h198v11l-64 27v499h-8l-133 -39v-11l71 -2v-447zM530 42v-11
h198v11l-63 27v499h-9l-133 -39v-11l71 -2v-447z" />
    <glyph glyph-name="uni24EC" unicode="&#x24ec;" 
d="M264.5 -96.5q-104.5 59.5 -164.5 163t-60 230.5q0 129 60 233.5t164.5 164.5t233.5 60q130 0 235.5 -60t166 -164.5t60.5 -233.5q0 -128 -60.5 -231.5t-166 -162.5t-235.5 -59q-129 0 -233.5 59.5zM462 28h326l7 6v147h-12q-12 -43 -19 -59.5t-17 -23.5t-31 -7h-180
l106 125q72 76 104.5 132t32.5 104q0 47 -31 83t-104 36q-25 0 -59 -24t-67.5 -70.5t-57.5 -109.5l6 -5l79 37q-6 124 74 126q43 0 66 -26.5t23 -76.5q0 -46 -23 -93.5t-69 -103.5l-153 -186zM213 40v-12h198v12l-64 26v500h-8l-133 -39v-12l71 -1v-448z" />
    <glyph glyph-name="uni24ED" unicode="&#x24ed;" 
d="M264.5 -96.5q-104.5 59.5 -164.5 163t-60 230.5q0 129 60 233.5t164.5 164.5t233.5 60q130 0 235.5 -60t166 -164.5t60.5 -233.5q0 -128 -60.5 -231.5t-166 -162.5t-235.5 -59q-129 0 -233.5 59.5zM222 43v-11h197v11l-63 27v499h-9l-132 -39v-11l70 -2v-447zM472 31
q99 1 168.5 36.5t104 87t34.5 99.5q0 54 -33 84.5t-90 30.5q-23 0 -44 -4l173 189v11h-303l-4 -6v-141h12q8 36 14 53.5t14.5 23.5t22.5 6h164l-164 -185l7 -12q39 15 75 15q47 0 75 -28t28 -83q0 -66 -43.5 -92t-105.5 -26q-48 0 -98 17l-6 -5z" />
    <glyph glyph-name="uni24EE" unicode="&#x24ee;" 
d="M264.5 -96.5q-104.5 59.5 -164.5 163t-60 230.5q0 129 60 233.5t164.5 164.5t233.5 60q130 0 235.5 -60t166 -164.5t60.5 -233.5q0 -128 -60.5 -231.5t-166 -162.5t-235.5 -59q-129 0 -233.5 59.5zM225 42v-11h197v11l-63 27v499h-9l-132 -39v-11l70 -2v-447zM539 42v-11
h197v11l-63 27v85h108v22h-108l-1 206h-11l-57 -71l-1 -135h-155l245 378v10h-80l-200 -401v-9h190l-1 -85z" />
    <glyph glyph-name="uni24EF" unicode="&#x24ef;" 
d="M264.5 -96.5q-104.5 59.5 -164.5 163t-60 230.5q0 129 60 233.5t164.5 164.5t233.5 60q130 0 235.5 -60t166 -164.5t60.5 -233.5q0 -128 -60.5 -231.5t-166 -162.5t-235.5 -59q-129 0 -233.5 59.5zM478 11q109 3 175.5 36t94.5 77.5t28 85.5q0 55 -36 85t-123 60l-88 30
l22 98h221l5 5v100h-12q-11 -27 -25.5 -34t-50.5 -7h-148l-49 -217l113 -40q69 -26 95.5 -52t26.5 -66q0 -49 -33.5 -75t-97.5 -26q-38 0 -111 17l-7 -5v-72zM227 25v-11h198v11l-64 27v499h-8l-133 -39v-11l71 -1v-448z" />
    <glyph glyph-name="uni24F0" unicode="&#x24f0;" 
d="M264.5 -96.5q-104.5 59.5 -164.5 163t-60 230.5q0 129 60 233.5t164.5 164.5t233.5 60q130 0 235.5 -60t166 -164.5t60.5 -233.5q0 -128 -60.5 -231.5t-166 -162.5t-235.5 -59q-129 0 -233.5 59.5zM670.5 45.5q38.5 23.5 67 68.5t28.5 108q0 58 -22.5 97t-58.5 58t-78 19
q-18 0 -45 -13t-46 -34q19 63 69 126.5t108 91.5l-9 11q-55 -26 -113 -72t-100 -116.5t-42 -158.5q0 -61 23 -108.5t63 -74t89 -26.5q28 0 66.5 23.5zM241 41v-12h197v12l-63 26v500h-9l-132 -39v-12l70 -1v-448zM585 352q33 0 61 -23.5t44 -64.5t16 -90q0 -57 -21.5 -86.5
t-63.5 -29.5q-34 0 -61.5 23t-43.5 64t-16 91q0 116 85 116z" />
    <glyph glyph-name="uni24F1" unicode="&#x24f1;" 
d="M264.5 -96.5q-104.5 59.5 -164.5 163t-60 230.5q0 129 60 233.5t164.5 164.5t233.5 60q130 0 235.5 -60t166 -164.5t60.5 -233.5q0 -128 -60.5 -231.5t-166 -162.5t-235.5 -59q-129 0 -233.5 59.5zM247 42v-11h198v11l-64 27v499h-9l-132 -39v-11l71 -2v-447zM500 31h81
l153 466l27 59v8h-316l-4 -6v-141h12q8 36 14 53.5t14.5 23.5t22.5 6h205l-209 -459v-10z" />
    <glyph glyph-name="uni24F2" unicode="&#x24f2;" 
d="M264.5 -96.5q-104.5 59.5 -164.5 163t-60 230.5q0 129 60 233.5t164.5 164.5t233.5 60q130 0 235.5 -60t166 -164.5t60.5 -233.5q0 -128 -60.5 -231.5t-166 -162.5t-235.5 -59q-129 0 -233.5 59.5zM662.5 45.5q42.5 20.5 74 57t31.5 82.5q0 45 -30.5 73t-85.5 56
q44 27 70.5 61t26.5 79q0 55 -40.5 88t-102.5 33q-24 0 -61.5 -18.5t-65.5 -53.5t-28 -83q0 -42 22.5 -71.5t61.5 -52.5q-40 -18 -74 -57t-34 -91q0 -57 47.5 -90t118.5 -33q27 0 69.5 20.5zM239 46v-12h198v12l-64 26v500h-9l-132 -39v-12l71 -1v-448zM604 340
q-51 25 -77 49.5t-26 64.5q0 37 23.5 58t62.5 21q45 0 72 -28t27 -74q0 -55 -57 -105zM558 282l46 -22q53 -27 81 -51t28 -59q0 -36 -28.5 -58.5t-73.5 -22.5q-53 0 -86 29t-33 80q0 66 66 104z" />
    <glyph glyph-name="uni24F3" unicode="&#x24f3;" 
d="M264.5 -96.5q-104.5 59.5 -164.5 163t-60 230.5q0 129 60 233.5t164.5 164.5t233.5 60q130 0 235.5 -60t166 -164.5t60.5 -233.5q0 -128 -60.5 -231.5t-166 -162.5t-235.5 -59q-129 0 -233.5 59.5zM511 20q55 26 113.5 72t100.5 117t42 159q0 61 -23 108.5t-63 74
t-89 26.5q-28 0 -66.5 -23.5t-67 -68.5t-28.5 -108q0 -86 46.5 -130.5t112.5 -44.5q17 0 44.5 13t46.5 35q-19 -62 -69.5 -126t-107.5 -92zM240 49v-11h197v11l-63 26v500h-9l-132 -39v-11l70 -2v-448zM508.5 508q21.5 33 66.5 33q34 0 61.5 -23t43.5 -63.5t16 -90.5
q0 -58 -22 -88t-63 -30q-33 0 -60 21.5t-43.5 59t-17.5 83.5q-3 65 18.5 98z" />
    <glyph glyph-name="uni24F4" unicode="&#x24f4;" 
d="M264.5 -96.5q-104.5 59.5 -164.5 163t-60 230.5q0 129 60 233.5t164.5 164.5t233.5 60q130 0 235.5 -60t166 -164.5t60.5 -233.5q0 -128 -60.5 -231.5t-166 -162.5t-235.5 -59q-129 0 -233.5 59.5zM132 32h326l7 7v146h-12q-12 -43 -19 -59.5t-17 -23.5t-31 -7h-179
l106 126q72 76 104.5 131.5t32.5 103.5q0 47 -31 83t-104 36q-25 0 -59 -24t-68 -70.5t-58 -109.5l7 -5l78 37q-6 126 76 126q43 0 65 -27.5t22 -78.5q0 -45 -22.5 -91.5t-68.5 -102.5l-153 -186zM761.5 54.5q42.5 30.5 75.5 92.5t33 153q0 130 -49.5 201.5t-138.5 71.5
q-26 0 -68 -30.5t-74.5 -94.5t-32.5 -159q0 -124 49.5 -194.5t137.5 -70.5q25 0 67.5 30.5zM575.5 442q14.5 43 36.5 63t47 20q43 0 76.5 -32t53.5 -86t24 -117q1 -12 1 -35q0 -92 -30 -138.5t-72 -46.5q-43 0 -77.5 37.5t-54 98t-19.5 127.5q0 66 14.5 109z" />
    <glyph glyph-name="uni24FF" unicode="&#x24ff;" 
d="M264.5 -96.5q-104.5 59.5 -164.5 163t-60 230.5q0 129 60 233.5t164.5 164.5t233.5 60q130 0 235.5 -60t166 -164.5t60.5 -233.5q0 -128 -60.5 -231.5t-166 -162.5t-235.5 -59q-129 0 -233.5 59.5zM573.5 56.5q42.5 30.5 75 92.5t32.5 153q0 130 -49.5 201t-138.5 71
q-26 0 -67.5 -30.5t-74 -94t-32.5 -158.5q0 -125 49.5 -195t137.5 -70q25 0 67.5 30.5zM387.5 443q14.5 43 36.5 63.5t47 20.5q42 0 75.5 -31.5t54 -85t24.5 -116.5q1 -12 1 -34q0 -96 -29.5 -142t-73.5 -46q-43 0 -77.5 37t-53.5 98t-19 128q0 65 14.5 108z" />
    <glyph glyph-name="uni273A" unicode="&#x273a;" horiz-adv-x="778" 
d="M745 372v-65h-3q-68 4 -216 17q-36 4 -112 10q3 -1 89 -41q165 -78 208 -99l3 -2q-28 -48 -32 -56l-3 2q-55 35 -175 121q-90 63 -96 67q6 -9 34 -47q14 -20 67 -95.5t88 -129.5l1 -2l-56 -33l-1 3q-41 82 -94 199l-48 101q0 -5 7 -72q17 -188 21 -259v-3h-65v3
q4 68 17 216q4 36 10 112q-17 -37 -33 -73q-88 -187 -107 -225l-2 -3l-55 33l2 2q33 52 125 182q47 66 62 90l-55 -39q-165 -117 -217 -151l-2 -1l-33 56l3 1q46 24 200 96q75 34 100 47q-5 0 -72 -7q-188 -17 -259 -21h-3v65h3q68 -4 216 -17q36 -4 112 -10l-97 45
q-139 63 -201 94l-3 2l33 56l2 -2q75 -48 181 -124q23 -16 51 -35.5t40 -27.5q-24 34 -38 53q-112 158 -151 218l-1 3l55 32l1 -3q24 -46 96 -200q31 -68 47 -99q0 5 -7 72q-17 189 -21 258v3h65v-3q-5 -72 -17 -215q-4 -36 -10 -112l43 92q11 24 42 92t54 113l2 3l56 -33
l-2 -2q-27 -42 -121 -176q-37 -52 -66 -95l49 35q155 110 223 154l2 1q18 -30 32 -56l-2 -1q-67 -34 -195 -93q-77 -35 -105 -49l108 9q142 14 223 19h3z" />
    <glyph glyph-name="uni2776" unicode="&#x2776;" 
d="M264.5 -96.5q-104.5 59.5 -164.5 163t-60 230.5q0 129 60 233.5t164.5 164.5t233.5 60q130 0 235.5 -60t166 -164.5t60.5 -233.5q0 -128 -60.5 -231.5t-166 -162.5t-235.5 -59q-129 0 -233.5 59.5zM405 42v-11h198v11l-64 27v499h-9l-132 -39v-11l71 -2v-447z" />
    <glyph glyph-name="uni2777" unicode="&#x2777;" 
d="M264.5 -96.5q-104.5 59.5 -164.5 163t-60 230.5q0 129 60 233.5t164.5 164.5t233.5 60q130 0 235.5 -60t166 -164.5t60.5 -233.5q0 -128 -60.5 -231.5t-166 -162.5t-235.5 -59q-129 0 -233.5 59.5zM334 28h326l7 6v147h-12q-12 -43 -19 -59.5t-17.5 -23.5t-31.5 -7h-179
l106 125q72 76 104.5 132t32.5 104q0 47 -31 83t-104 36q-25 0 -59 -24t-67.5 -70.5t-57.5 -109.5l6 -5l78 37q-5 124 74 126q43 0 66.5 -26.5t23.5 -76.5q0 -46 -23 -93.5t-69 -103.5l-153 -186z" />
    <glyph glyph-name="uni2778" unicode="&#x2778;" 
d="M264.5 -96.5q-104.5 59.5 -164.5 163t-60 230.5q0 129 60 233.5t164.5 164.5t233.5 60q130 0 235.5 -60t166 -164.5t60.5 -233.5q0 -128 -60.5 -231.5t-166 -162.5t-235.5 -59q-129 0 -233.5 59.5zM343 34q99 1 168.5 37t104 87.5t34.5 99.5q0 54 -33 84t-90 30
q-24 0 -44 -4l173 189v11h-303l-4 -5v-142h11q8 36 14.5 53.5t15 24t22.5 6.5h163l-164 -186l8 -12q39 15 74 15q47 0 75.5 -28t28.5 -83q0 -66 -44 -92t-105 -26q-48 0 -98 17l-7 -5v-71z" />
    <glyph glyph-name="uni2779" unicode="&#x2779;" 
d="M264.5 -96.5q-104.5 59.5 -164.5 163t-60 230.5q0 129 60 233.5t164.5 164.5t233.5 60q130 0 235.5 -60t166 -164.5t60.5 -233.5q0 -128 -60.5 -231.5t-166 -162.5t-235.5 -59q-129 0 -233.5 59.5zM442 45v-12h197v12l-63 26v85h108v23h-108l-1 205h-11l-57 -71l-1 -134
h-155l245 377v10h-80l-200 -401v-9h190l-1 -85z" />
    <glyph glyph-name="uni277A" unicode="&#x277a;" 
d="M264.5 -96.5q-104.5 59.5 -164.5 163t-60 230.5q0 129 60 233.5t164.5 164.5t233.5 60q130 0 235.5 -60t166 -164.5t60.5 -233.5q0 -128 -60.5 -231.5t-166 -162.5t-235.5 -59q-129 0 -233.5 59.5zM349 11q108 3 174.5 36t94.5 77.5t28 85.5q0 38 -16 62.5t-49 42.5
t-94 40l-88 30l23 98h221l5 5l-1 100h-12q-10 -27 -25 -34t-50 -7h-148l-50 -217l113 -40q69 -26 95.5 -52t26.5 -66q0 -49 -33.5 -75t-97.5 -26q-37 0 -110 17l-7 -5v-72z" />
    <glyph glyph-name="uni277B" unicode="&#x277b;" 
d="M264.5 -96.5q-104.5 59.5 -164.5 163t-60 230.5q0 129 60 233.5t164.5 164.5t233.5 60q130 0 235.5 -60t166 -164.5t60.5 -233.5q0 -128 -60.5 -231.5t-166 -162.5t-235.5 -59q-129 0 -233.5 59.5zM572.5 45.5q38.5 23.5 67 68.5t28.5 108q0 58 -22.5 97t-58.5 58t-78 19
q-18 0 -45 -13t-46 -34q19 63 69 126.5t108 91.5l-9 11q-55 -26 -113 -72t-100 -116.5t-42 -158.5q0 -61 23 -108.5t63 -74t89 -26.5q28 0 66.5 23.5zM487 352q32 0 59 -21.5t44 -58.5t18 -83q3 -64 -19 -97.5t-66 -33.5q-34 0 -61.5 23t-43.5 64t-16 91q0 116 85 116z" />
    <glyph glyph-name="uni277C" unicode="&#x277c;" 
d="M264.5 -96.5q-104.5 59.5 -164.5 163t-60 230.5q0 129 60 233.5t164.5 164.5t233.5 60q130 0 235.5 -60t166 -164.5t60.5 -233.5q0 -128 -60.5 -231.5t-166 -162.5t-235.5 -59q-129 0 -233.5 59.5zM398 33h82l152 467l28 58v8h-316l-4 -5v-142h11q8 36 14.5 53.5t15 24
t22.5 6.5h205l-210 -460v-10z" />
    <glyph glyph-name="uni277D" unicode="&#x277d;" 
d="M264.5 -96.5q-104.5 59.5 -164.5 163t-60 230.5q0 129 60 233.5t164.5 164.5t233.5 60q130 0 235.5 -60t166 -164.5t60.5 -233.5q0 -128 -60.5 -231.5t-166 -162.5t-235.5 -59q-129 0 -233.5 59.5zM565.5 45.5q42.5 20.5 74 57t31.5 82.5q0 45 -30.5 73t-85.5 56
q44 27 70.5 61t26.5 79q0 55 -40 88t-103 33q-24 0 -61.5 -18.5t-65.5 -53.5t-28 -83q0 -42 22.5 -71.5t61.5 -52.5q-40 -18 -74 -57t-34 -91q0 -57 47.5 -90t118.5 -33q27 0 69.5 20.5zM507 340q-51 25 -77 49.5t-26 64.5q0 37 23.5 58t62.5 21q45 0 72.5 -28t27.5 -74
q0 -54 -58 -105zM462 282l45 -22q53 -27 81 -51t28 -59q0 -36 -28.5 -58.5t-73.5 -22.5q-53 0 -86 29t-33 80q0 66 67 104z" />
    <glyph glyph-name="uni277E" unicode="&#x277e;" 
d="M264.5 -96.5q-104.5 59.5 -164.5 163t-60 230.5q0 129 60 233.5t164.5 164.5t233.5 60q130 0 235.5 -60t166 -164.5t60.5 -233.5q0 -128 -60.5 -231.5t-166 -162.5t-235.5 -59q-129 0 -233.5 59.5zM413 21q55 25 113 71t100 117t42 159q0 61 -23 109t-63 74.5t-89 26.5
q-28 0 -66.5 -23.5t-67 -69t-28.5 -108.5q0 -86 46 -130t113 -44q17 0 44.5 13.5t46.5 34.5q-19 -62 -69.5 -126t-107.5 -92zM476 541q34 0 61.5 -23t43.5 -63.5t16 -90.5q0 -58 -21.5 -87.5t-63.5 -29.5q-34 0 -61.5 23t-43.5 64t-16 91q0 116 85 116z" />
    <glyph glyph-name="uni277F" unicode="&#x277f;" 
d="M264.5 -96.5q-104.5 59.5 -164.5 163t-60 230.5q0 129 60 233.5t164.5 164.5t233.5 60q130 0 235.5 -60t166 -164.5t60.5 -233.5q0 -128 -60.5 -231.5t-166 -162.5t-235.5 -59q-129 0 -233.5 59.5zM671.5 56.5q42.5 30.5 75 92.5t32.5 153q0 130 -49.5 201t-138.5 71
q-26 0 -67.5 -30.5t-74 -94t-32.5 -158.5q0 -125 49.5 -195t137.5 -70q25 0 67.5 30.5zM228 46v-12h197v12l-63 26v500h-9l-132 -39v-12l70 -1v-448zM485.5 443q14.5 43 36.5 63.5t47 20.5q42 0 75.5 -31.5t53.5 -85t24 -116.5q1 -13 1 -37q0 -94 -29.5 -139.5t-72.5 -45.5
t-77.5 37t-53.5 98t-19 128q0 65 14.5 108z" />
    <glyph glyph-name="uni004A0301" horiz-adv-x="406" 
d="M312 158q0 -21 -27.5 -63.5t-66 -75.5t-70.5 -33q-52 0 -86.5 22.5t-57.5 63.5l74 139l5 -2q-8 -21 -8 -51q0 -34 12 -67t32.5 -53.5t44.5 -20.5q21 0 34.5 11t22 49.5t6.5 115.5v441l-81 35v6h246v-6l-80 -35v-476zM325 859h102v-6l-156 -146h-7z" />
    <glyph glyph-name="J.ss01" horiz-adv-x="290" 
d="M-26 -246q132 122 132 364v516l-80 35v6h246v-6l-80 -35v-518q0 -94 -30 -162t-68.5 -108t-89.5 -79l-26 -21z" />
    <glyph glyph-name="i.loclTRK" horiz-adv-x="257" 
d="M96 33v456l-82 29v6h161v-35l-1 -456l82 -27v-6h-242v6zM93.5 639q-15.5 15 -15.5 38q0 21 15.5 36t38.5 15q22 0 37 -15t15 -36q0 -23 -14.5 -38t-37.5 -15t-38.5 15z" />
    <glyph glyph-name="uni006A0301" horiz-adv-x="234" 
d="M138.5 -74q-27.5 -45 -62.5 -78t-87 -74l-35 -28l-4 8q55 50 96.5 120.5t41.5 149.5v465l-82 29v6h160v-503q0 -50 -27.5 -95zM198 750h89v-6l-172 -175h-8z" />
    <glyph glyph-name="b.part" horiz-adv-x="602" 
d="M156 22q-41 32 -52 84l48 87q0 -78 34.5 -122.5t93.5 -44.5q47 0 81.5 43.5t34.5 161.5q0 69 -19.5 125t-55 88t-81.5 32q-35 0 -60 -15.5t-46 -38.5l-1 21q41 38 81.5 64.5t52.5 26.5q89 -2 145.5 -69t56.5 -191q0 -95 -39 -159t-88 -94.5t-78 -30.5q-67 0 -108 32z" />
    <glyph glyph-name="d.part" horiz-adv-x="401" 
d="M84.5 57q-53.5 62 -53.5 175q0 101 40 167.5t90.5 97.5t78.5 31q61 0 92 -11.5t47 -23.5t22 -16l-55 -33q-43 50 -107 50q-56 0 -96 -45.5t-40 -161.5q0 -69 16.5 -122t47.5 -83t72 -30q37 0 65.5 22.5t44.5 52.5l7 -26q-37 -40 -79.5 -74.5t-53.5 -34.5q-85 3 -138.5 65
z" />
    <glyph glyph-name="A_A.dlig" horiz-adv-x="852" 
d="M619 675l219 -668v-7h-180v6l79 37l-64 194h-222l76 -230v-7h-181v6l80 37l-65 194h-237q-29 -84 -29 -127q0 -36 19 -59t64 -45v-6h-168v6l223 603l-21 60v6h95l124 -377l113 311l-20 60v6h95zM244 577l-114 -322h225l-107 322h-4zM444 259l1 -4h222l-107 322h-4z" />
    <glyph glyph-name="E_E.dlig" horiz-adv-x="588" 
d="M526 221v-221h-495v6l78 37v589l-78 37v6h482v-221h-6l-23 61q-26 74 -39 100.5t-31 34t-61 7.5h-160v-181h103q27 0 41.5 8t23 23.5t24.5 54.5l14 33h6v-256h-6l-13 33q-16 39 -25 55t-23.5 24t-41.5 8h-103v-255h103q27 0 41 8t23.5 24t24.5 54l14 34h6v-256h-6l-14 34
q-15 38 -24.5 54t-23.5 24t-41 8h-103v-170h173q43 0 61 7.5t31 33.5t39 101l23 61h6z" />
    <glyph glyph-name="F_F.dlig" horiz-adv-x="549" 
d="M517 454h-6l-23 61q-26 75 -39 101t-31 33.5t-61 7.5h-160v-181h103q26 0 40.5 8t24 23.5t25.5 53.5l14 34h5v-256h-5l-14 34q-16 38 -25.5 54t-23.5 24t-41 8h-103v-255h103q26 0 40.5 8t24 23.5t24.5 53.5l15 35h5v-256h-5l-15 35q-15 38 -24.5 53.5t-24 23.5t-40.5 8
h-103v-147l81 -35v-6h-246v6l80 35l1 591l-78 37v6h482v-221z" />
    <glyph glyph-name="F_T.dlig" horiz-adv-x="857" 
d="M833 454h-6l-24 68q-27 75 -38 99t-24.5 30t-47.5 6h-60v-616l81 -35v-6h-246v6l80 35v616h-351v-317h124q27 0 41 8.5t23.5 25.5t25.5 57l14 36h6v-273h-6q-4 9 -7.5 18.5t-7.5 18.5q-16 40 -25 57t-23.5 25.5t-40.5 8.5h-124v-281l81 -35v-6h-246v6l80 35l1 591l-78 37
v6h798v-221z" />
    <glyph glyph-name="F_Y.dlig" horiz-adv-x="934" 
d="M930 669l-207 -396v-232l80 -35v-6h-246v6l81 35v233l-202 383h-239v-317h124q27 0 41 8.5t23.5 25.5t25.5 57l14 36h6v-273h-6q-4 9 -7.5 18.5t-7.5 18.5q-16 40 -25 57t-23.5 25.5t-40.5 8.5h-124v-281l81 -35v-6h-246v6l80 35l1 591l-78 37v6h587v-6l-81 -37l169 -329
l3 -5l77 148q24 47 36 79.5t12 56.5q0 29 -19.5 50t-61.5 37v6h173v-6z" />
    <glyph glyph-name="M_E.dlig" horiz-adv-x="1026" 
d="M964 221v-221h-430v598h-5l-188 -446h-7l-206 423h-5v-337q0 -81 11.5 -122t39 -63t87.5 -46v-7h-160v614l-40 55v6h110l194 -401h6l166 401h414v-221h-6q-18 46 -23 61q-26 74 -39 100.5t-31.5 34t-61.5 7.5h-171v-306h115q27 0 41 8.5t23.5 26t25.5 58.5l13 32h6v-268
h-6l-13 33q-16 41 -25.5 58t-24 25.5t-40.5 8.5h-115v-315h185q43 0 61 7.5t31 34t39 100.5l23 61h6z" />
    <glyph glyph-name="N_N.dlig" horiz-adv-x="1023" 
d="M775 675h162v-683h-37l-365 563v-563h-36l-379 588h-5v-375q0 -59 17.5 -96t46 -58.5t75.5 -43.5v-7h-163l2 615l-43 54v6h111l348 -537l-1 3h5v331q0 58 -18 95t-47 58.5t-74 42.5v7h189l346 -534h6v330q0 58 -18 95.5t-47 59t-75 42.5v7z" />
    <glyph glyph-name="P_P.dlig" horiz-adv-x="839" 
d="M538 275v-234l80 -35v-6h-246v6l81 35v234h-175h-12h-69v-234l81 -35v-6h-246v6l80 35l1 591l-78 37v6h540q115 0 181.5 -45.5t66.5 -137.5q0 -56 -29 -105.5t-91 -80.5t-155 -31h-10zM252 293q103 0 152.5 44.5t49.5 139.5q0 86 -48 133t-140 47h-69v-364h55zM512 293
q224 0 224 184q0 85 -54 132.5t-156 47.5h-106q58 -19 90 -60.5t32 -104.5q0 -65 -38 -119t-115 -80h123z" />
    <glyph glyph-name="T_H.dlig" horiz-adv-x="820" 
d="M789 669l-80 -35v-593l80 -35v-6h-246v6l81 35v286h-288v-286l80 -35v-6h-246v6l81 35v616h-86q-35 0 -49.5 -8t-26.5 -35t-41 -109l-17 -51h-6v221h388v-6l-78 -37v-287h289v289l-81 35v6h246v-6z" />
    <glyph glyph-name="T_H_E.dlig" horiz-adv-x="1076" 
d="M1015 221v-221h-495v6l78 37v284h-270v-286l80 -35v-6h-246v6l80 35v616h-77q-34 0 -48 -7t-26 -34t-41 -109l-19 -53h-6v221h379v-6l-77 -37v-287h271v287l-78 37v6h482v-221h-6q-18 46 -23 61q-26 75 -39.5 101t-31.5 33.5t-61 7.5h-159v-306h102q27 0 41.5 8t23.5 25
t25 57l14 35h6v-268h-6l-15 36q-15 39 -24.5 56t-23.5 25t-41 8h-102v-315h172q43 0 61.5 7.5t31.5 34t39 100.5q5 15 23 61h6z" />
    <glyph glyph-name="T_T.dlig" horiz-adv-x="800" 
d="M776 454h-6l-17 50q-29 84 -41.5 111t-26.5 34.5t-48 7.5h-60v-616l80 -35v-6h-246v6l80 35v616h-181v-616l81 -35v-6h-246v6l80 35v616h-60q-35 0 -48.5 -7t-26 -34t-41.5 -111l-18 -51h-6v221h751v-221z" />
    <glyph glyph-name="T_Y.dlig" horiz-adv-x="909" 
d="M905 669l-207 -396v-232l80 -35v-6h-246v6l80 35v233l-201 383h-101v-616l81 -35v-6h-246v6l80 35v616h-60q-35 0 -48.5 -7t-26 -34t-41.5 -111l-18 -51h-6v221h571v-6l-80 -37l169 -329l3 -5l77 148q48 93 48 137q0 30 -19.5 51t-61.5 35v6h173v-6z" />
    <glyph glyph-name="T_h.dlig" horiz-adv-x="946" 
d="M867 33l82 -27v-6h-243v6l82 27v329q0 56 -28.5 84t-70.5 28q-47 0 -97 -70l-1 -371l82 -27v-6h-242v6l82 27v624h-203v-616l81 -35v-6h-246v6l80 35v616h-60q-35 0 -48.5 -7t-26 -34t-41.5 -111l-18 -51h-6v221h380q79 0 117.5 17t62.5 66h7v-325q38 47 73 73.5t51 26.5
q68 0 109 -40t41 -129z" />
    <glyph glyph-name="U_E.dlig" horiz-adv-x="943" 
d="M882 221v-221h-423v88q-50 -41 -99 -70t-67 -29q-95 0 -147 51t-52 154l1 438l-78 37v6h162v-472q0 -81 41 -118.5t110 -37.5q33 0 61.5 13.5t67.5 42.5l1 529l-78 37v6h486v-221h-6l-23 61q-26 75 -39 101t-31 33.5t-61 7.5h-164v-306h107q27 0 41.5 8t23.5 25t25 57
l14 35h5v-268h-5l-15 36q-15 39 -24.5 56t-23.5 25t-41 8h-107v-315h177q43 0 61 7.5t31.5 33.5t39.5 101q5 15 23 61h6z" />
    <glyph glyph-name="W_W_W.dlig" horiz-adv-x="1838" 
d="M1654 675h170v-6l-200 -682h-7l-119 390h-4l-124 -390h-6l-159 515l-152 -515h-6l-120 390h-4l-124 -390h-6l-160 516l-152 -516h-6l-120 390h-3l-124 -390h-6l-212 682v6h177v-6l-80 -37l149 -486h6l62 228q12 41 12 64q0 28 -17.5 44.5t-61.5 35.5v6h223v-6l-77 -37
l100 -335h6l93 336q10 36 10 66q0 46 -25 73t-75 48v6h246v-6l-79 -37l149 -486h5l63 228q12 39 12 63q0 28 -18 45t-62 36v6h223v-6l-77 -37l101 -335h5l93 336q10 36 10 66q0 46 -25 73t-75 48v6h246v-6l-79 -37l148 -486h6l63 228q12 39 12 63q0 28 -18 45t-62 36v6h223
v-6l-77 -37l100 -335h6l93 336q10 36 10 66q0 46 -25 73t-75 48v6z" />
    <glyph glyph-name="X_T.dlig" horiz-adv-x="974" 
d="M950 454h-6l-21 59q-24 69 -36 95.5t-28.5 37.5t-48.5 11h-91v-616l80 -35v-6h-246v6l81 35v616h-508l213 -343l32 43q59 74 59 107q0 21 -18 35t-56 28v6h173v-6l-178 -231l180 -290v-6h-196v5l82 34l-124 197l-44 -60q-33 -44 -46.5 -66t-13.5 -39q0 -42 76 -65v-6
h-171v6l188 247l-261 416v6h929v-221z" />
    <glyph glyph-name="Z_Z.dlig" horiz-adv-x="539" 
d="M495 471l-352 -453h167q44 0 62 7t31.5 32.5t38.5 96.5l24 61h6v-215h-426v6l159 204h-166v6l338 441h-154q-44 0 -62 -7t-31.5 -32.5t-38.5 -96.5l-24 -61h-6v215h411v-6l-147 -192h170v-6zM311 459l-176 -231h84l180 231h-88z" />
    <glyph glyph-name="f_b.dlig" horiz-adv-x="793" 
d="M717 465.5q56 -66.5 56 -191.5q0 -95 -39 -159t-88 -94.5t-78 -30.5q-53 0 -90 21t-56 57h-4l-36 -84h-6l2 507q-104 5 -203 13v-471l107 -27v-6h-268v6l83 27l-1 468l-82 17v6h82l-2 46q-3 74 32.5 118t82 61.5t78.5 17.5q90 0 137 -47l27 42h5v-302q37 32 70.5 53
t44.5 21q90 -2 146 -68.5zM378 523v112q-12 43 -47 69t-79 26q-48 0 -79.5 -27.5t-31.5 -69.5q0 -25 8 -47.5t15.5 -39t10.5 -22.5zM666.5 69.5q34.5 43.5 34.5 161.5q0 69 -19.5 125t-55.5 88t-82 32q-47 0 -88 -37v-246q0 -78 35 -122.5t94 -44.5q47 0 81.5 43.5z" />
    <glyph glyph-name="f_h.dlig" horiz-adv-x="828" 
d="M749 33l82 -27v-6h-243v6l82 27h1v329q0 56 -28.5 84t-70.5 28q-53 0 -107 -83v-358l81 -27v-6h-242v6l82 27v458q-113 5 -211 13v-471l107 -27v-6h-268v6l83 27l-1 468l-82 17v6h82l-2 46q-3 74 32.5 118t82 61.5t78.5 17.5q97 0 145 -48l27 43h6v-339q41 51 79 80.5
t55 29.5q68 0 108.5 -40t40.5 -129zM386 523v112q-12 43 -49.5 69t-84.5 26q-48 0 -79.5 -27.5t-31.5 -69.5q0 -25 8 -47.5t15.5 -39t10.5 -22.5z" />
    <glyph glyph-name="f_j.dlig" horiz-adv-x="529" 
d="M150 585.5q8 -22.5 15.5 -39t10.5 -22.5h274v-503q0 -50 -28 -95.5t-64.5 -79.5t-86.5 -73q-28 -21 -33 -26l-4 7q55 51 96 121t41 149v468q-123 6 -195 12l-1 -471l108 -27v-6h-268v6l83 27l-1 468l-86 17v6h86l-2 46q-3 74 32.5 118t82 61.5t78.5 17.5q70 0 114 -22.5
t66 -58.5l-63 -94l-5 3q1 38 -19.5 69t-54.5 48.5t-73 17.5q-48 0 -79.5 -27.5t-31.5 -69.5q0 -25 8 -47.5z" />
    <glyph glyph-name="f_k.dlig" horiz-adv-x="776" 
d="M564 315l210 -309v-6h-187v6l80 25l-166 240l-36 -33v-205l82 -27v-6h-242v6l81 27v458q-113 5 -211 13v-471l107 -27v-6h-268v6l83 27l-1 468l-82 17v6h82l-2 46q-3 74 32.5 118t82 61.5t78.5 17.5q97 0 145 -48l27 43h6v-501l140 135q39 38 39 64q0 34 -67 58v6h188v-6
l-255 -239zM386 523v112q-12 43 -49.5 69t-84.5 26q-48 0 -79.5 -27.5t-31.5 -69.5q0 -25 8 -47.5t15.5 -39t10.5 -22.5z" />
    <glyph glyph-name="f_t.dlig" horiz-adv-x="594" 
d="M591 78q-35 -37 -73 -63t-55 -26q-42 0 -65.5 29t-23.5 84l-1 393q-162 6 -198 9v-471l107 -27v-6h-268v6l82 27v468l-82 17v6h82l-2 46q-4 72 24 116.5t66.5 62.5t65.5 18q106 0 160 -79l-52 -94l-5 2q0 37 -20 67.5t-52 47.5t-65 17q-39 0 -60 -23t-21 -65
q0 -47 40 -116h201l72 119h5l-2 -120h133v-34l-133 3v-382q0 -65 59 -65q18 0 34.5 7.5t42.5 30.5z" />
    <glyph glyph-name="f_u.dlig" horiz-adv-x="817" 
d="M831 113l3 -5q-15 -14 -41 -44q-32 -36 -53.5 -54.5t-38.5 -18.5q-19 0 -31.5 20t-21.5 88q-41 -51 -78.5 -80.5t-54.5 -29.5q-68 0 -109 40t-41 129v334q-120 6 -190 12v-471l100 -27v-6h-261v6l82 27v469l-82 16v6h82l-2 46q-4 72 24 116.5t66.5 62.5t65.5 18
q106 0 160 -79l-52 -94l-5 2q0 37 -20 67.5t-52 47.5t-65 17q-39 0 -60 -23t-21 -65q0 -47 40 -116h269v-364q0 -56 28 -83.5t70 -27.5q48 0 101 75v365l-81 29v6h160v-471z" />
    <glyph glyph-name="g_f.dlig" horiz-adv-x="791" 
d="M869 688l-53 -94l-5 2q0 37 -20 67.5t-52 47.5t-64 17q-39 0 -60.5 -23.5t-21.5 -64.5q0 -47 40 -116h151v-33q-56 0 -151 4v-462l100 -27v-6h-244v6l65 27l1 465q-172 8 -207 14l-1 -3q42 -23 62 -59t20 -80q0 -58 -33 -102.5t-76 -69.5t-68 -25q-66 0 -111 27
q-25 -25 -36.5 -40t-11.5 -34q0 -26 19 -43.5t63 -20.5l163 -12q65 -4 107.5 -24.5t42.5 -78.5q0 -31 -19.5 -78t-76.5 -86.5t-159 -39.5q-90 0 -156.5 33.5t-72.5 90.5q-1 7 17.5 24.5t88.5 78.5q19 15 32 27q-53 6 -87.5 32t-34.5 67q0 6 38 41q53 53 70 72
q-62 45 -62 133q0 58 33 102.5t76 69t68 24.5q1 0 37 -4q90 -10 137 -10h138l-3 46q-4 72 24 116.5t66.5 62.5t65.5 18q105 0 161 -79zM344.5 412.5q-18.5 40.5 -51.5 63t-74 22.5q-39 -1 -64.5 -27.5t-25.5 -82.5q0 -50 18.5 -90.5t50.5 -63t70 -22.5q42 0 68.5 26t26.5 81
q0 53 -18.5 93.5zM416 -38.5q-47 17.5 -126 24.5l-129 9q-79 -58 -79 -94q0 -29 27.5 -52.5t75 -36.5t104.5 -13q53 0 92.5 14t60.5 37.5t21 50.5q0 43 -47 60.5z" />
    <glyph glyph-name="g_f_i.dlig" horiz-adv-x="997" 
d="M996 6v-6h-243v6l82 27v459l-202 5v-464l100 -27v-6h-244v6l65 27h1v467q-169 5 -207 12l-1 -3q42 -23 62 -59t20 -80q0 -58 -33 -102.5t-76 -69.5t-68 -25q-66 0 -111 27q-25 -25 -36.5 -40t-11.5 -34q0 -26 19 -43.5t63 -20.5l163 -12q65 -4 107.5 -24.5t42.5 -78.5
q0 -31 -19.5 -78t-76.5 -86.5t-159 -39.5q-90 0 -156.5 33.5t-72.5 90.5q-1 7 17.5 24.5t88.5 78.5q19 15 32 27q-53 6 -87.5 32t-34.5 67q0 6 38 41q53 53 70 72q-62 45 -62 133q0 58 33 102.5t76 69t68 24.5q3 0 43 -4q90 -10 131 -10h138l-3 46q-3 74 32.5 118t82 61.5
t78.5 17.5q130 0 180 -81l-62 -94l-6 3q1 38 -19.5 69t-54.5 48.5t-73 17.5q-48 0 -79.5 -27.5t-31.5 -69.5q0 -25 8 -47.5t15.5 -39t10.5 -22.5h281v-491zM344.5 412.5q-18.5 40.5 -51.5 63t-74 22.5q-39 -1 -64.5 -27.5t-25.5 -82.5q0 -50 18.5 -90.5t50.5 -63t70 -22.5
q42 0 68.5 26t26.5 81q0 53 -18.5 93.5zM416 -38.5q-47 17.5 -126 24.5l-129 9q-79 -58 -79 -94q0 -29 27.5 -52.5t75 -36.5t104.5 -13q53 0 92.5 14t60.5 37.5t21 50.5q0 43 -47 60.5z" />
    <glyph glyph-name="g_i.dlig" horiz-adv-x="728" 
d="M558.5 639q-14.5 14 -14.5 36q0 21 15 35.5t37 14.5t36 -14.5t14 -35.5q0 -22 -14 -36t-36 -14q-23 0 -37.5 14zM485 6l82 27v461q-64 3 -128 7.5t-91 10.5l-1 -3q42 -23 62 -59t20 -80q0 -58 -33 -102.5t-76 -69.5t-68 -25q-66 0 -111 27q-25 -25 -36.5 -40t-11.5 -34
q0 -26 19 -43.5t63 -20.5l163 -12q65 -4 107.5 -24.5t42.5 -78.5q0 -31 -19.5 -78t-76.5 -86.5t-159 -39.5q-90 0 -156.5 33.5t-72.5 90.5q-1 7 17.5 24.5t88.5 78.5q19 15 32 27q-53 6 -87.5 32t-34.5 67q0 6 38 41q53 53 70 72q-62 45 -62 133q0 58 33 102.5t76 69
t68 24.5q1 0 37 -4q90 -10 137 -10h229v-491l81 -27v-6h-242v6zM344.5 412.5q-18.5 40.5 -51.5 63t-74 22.5q-39 -1 -64.5 -27.5t-25.5 -82.5q0 -50 18.5 -90.5t50.5 -63t70 -22.5q42 0 68.5 26t26.5 81q0 53 -18.5 93.5zM416 -38.5q-47 17.5 -126 24.5l-129 9
q-79 -58 -79 -94q0 -29 27.5 -52.5t75 -36.5t104.5 -13q53 0 92.5 14t60.5 37.5t21 50.5q0 43 -47 60.5z" />
    <glyph glyph-name="g_j.dlig" horiz-adv-x="729" 
d="M578.5 639q-15.5 15 -15.5 38q0 21 15.5 36t38.5 15q22 0 37.5 -15t15.5 -36q0 -23 -15 -38t-38 -15t-38.5 15zM662 524v-503q0 -70 -49 -127.5t-127 -117.5q-9 -8 -18.5 -15.5t-17.5 -14.5l-5 8q55 50 96.5 120.5t41.5 149.5v467q-47 1 -122.5 7.5t-112.5 14.5l-1 -3
q42 -24 62 -60t20 -80q0 -58 -33 -102.5t-76 -69.5t-68 -25q-66 0 -111 27q-25 -24 -37 -39.5t-12 -34.5q0 -26 19.5 -43.5t63.5 -20.5l163 -12q65 -4 107.5 -24.5t42.5 -78.5q0 -31 -19.5 -78t-76.5 -86.5t-159 -39.5q-90 0 -156.5 33.5t-72.5 90.5q-1 7 17.5 24.5
t88.5 78.5q19 15 32 27q-54 7 -88 32.5t-34 66.5q0 6 38 41q53 53 70 72q-62 45 -62 133q0 58 33 102.5t76 69t68 24.5q1 0 39 -4q90 -10 135 -10h245zM344.5 412.5q-18.5 40.5 -51.5 63t-74 22.5q-39 -1 -64.5 -27.5t-25.5 -82.5q0 -50 18.5 -90.5t50.5 -63t70 -22.5
q42 0 68.5 26t26.5 81q0 53 -18.5 93.5zM417 -38.5q-47 17.5 -126 24.5l-131 9q-78 -57 -78 -97q0 -27 28 -50t75.5 -36t104.5 -13q53 0 92.5 14t60.5 37.5t21 50.5q0 43 -47 60.5z" />
    <glyph glyph-name="g_t.dlig" horiz-adv-x="754" 
d="M751 78q-34 -37 -72.5 -63t-55.5 -26q-43 0 -66 28.5t-23 84.5l-1 396q-152 8 -185 14l-1 -3q42 -23 62 -59t20 -80q0 -58 -33 -102.5t-76 -69.5t-68 -25q-66 0 -111 27q-25 -25 -36.5 -40t-11.5 -34q0 -26 19 -43.5t63 -20.5l163 -12q65 -4 107.5 -24.5t42.5 -78.5
q0 -31 -19.5 -78t-76.5 -86.5t-159 -39.5q-90 0 -156.5 33.5t-72.5 90.5q-1 7 17.5 24.5t88.5 78.5q19 15 32 27q-53 6 -87.5 32t-34.5 67q0 6 38 41q53 53 70 72q-62 45 -62 133q0 58 33 102.5t76 69t68 24.5q1 0 37 -4q90 -10 137 -10h120l71 119h4l-1 -119h130v-33
q-50 0 -130 4l-1 -385q0 -65 60 -65q17 0 33.5 7.5t43.5 30.5zM344.5 412.5q-18.5 40.5 -51.5 63t-74 22.5q-39 -1 -64.5 -27.5t-25.5 -82.5q0 -50 18.5 -90.5t50.5 -63t70 -22.5q42 0 68.5 26t26.5 81q0 53 -18.5 93.5zM416 -38.5q-47 17.5 -126 24.5l-129 9
q-79 -58 -79 -94q0 -29 27.5 -52.5t75 -36.5t104.5 -13q53 0 92.5 14t60.5 37.5t21 50.5q0 43 -47 60.5z" />
    <glyph glyph-name="g_u.dlig" horiz-adv-x="979" 
d="M993 113l4 -5q-19 -18 -43 -45q-32 -36 -53 -54t-38 -18q-18 0 -30.5 20.5t-21.5 87.5q-41 -51 -79 -80.5t-55 -29.5q-68 0 -109 40t-41 129v333q-36 1 -87 7.5t-92 14.5l-1 -3q42 -24 62 -60t20 -80q0 -58 -33 -102.5t-76 -69.5t-68 -25q-66 0 -111 27
q-25 -24 -37 -39.5t-12 -34.5q0 -26 19.5 -43.5t63.5 -20.5l163 -12q65 -4 107.5 -24.5t42.5 -78.5q0 -31 -19.5 -78t-76.5 -86.5t-159 -39.5q-90 0 -156.5 33.5t-72.5 90.5q-1 7 17.5 24.5t88.5 78.5q19 15 32 27q-54 7 -88 32.5t-34 66.5q0 6 38 41q53 53 70 72
q-62 45 -62 133q0 58 33 102.5t76 69t68 24.5q1 0 37 -4q90 -10 137 -10h189v-364q0 -56 28 -83.5t70 -27.5q49 0 102 76v364l-82 29v6h160v-471zM344.5 412.5q-18.5 40.5 -51.5 63t-74 22.5q-39 -1 -64.5 -27.5t-25.5 -82.5q0 -50 18.5 -90.5t50.5 -63t70 -22.5
q42 0 68.5 26t26.5 81q0 53 -18.5 93.5zM417 -38.5q-47 17.5 -126 24.5l-131 9q-78 -57 -78 -97q0 -27 28 -50t75.5 -36t104.5 -13q53 0 92.5 14t60.5 37.5t21 50.5q0 43 -47 60.5z" />
    <glyph glyph-name="t_f.dlig" horiz-adv-x="603" 
d="M680 688l-52 -94l-5 2q0 37 -20 67.5t-52 47.5t-65 17q-39 0 -60.5 -23.5t-21.5 -64.5q0 -51 41 -116h152v-35q-48 0 -152 4l-1 -460l101 -27v-6h-261v6l82 27v462q-170 6 -210 9v-394q0 -65 59 -65q18 0 34.5 7.5t42.5 30.5l4 -5q-35 -37 -73 -63t-55 -26
q-42 0 -65.5 29t-23.5 84l-1 399l-79 17v6h83l71 119h5l-2 -119h210l-3 46q-4 72 24.5 116t66.5 62.5t65 18.5q107 0 161 -79z" />
    <glyph glyph-name="t_i.dlig" horiz-adv-x="526" 
d="M358.5 639q-15.5 15 -15.5 38q0 21 15.5 36t38.5 15q22 0 37 -15t15 -36q0 -23 -14.5 -38t-37.5 -15t-38.5 15zM443 33l82 -27v-6h-243v6l82 27v456q-40 1 -137 10q-23 1 -71 5v-394q0 -65 59 -65q18 0 34.5 7.5t42.5 30.5l4 -5q-35 -37 -73 -63t-55 -26q-42 0 -65.5 29
t-23.5 84l-1 399l-79 17v6h83l71 119h5l-2 -119h287v-491z" />
    <glyph glyph-name="t_dotlessi.dlig" horiz-adv-x="528" 
d="M445 33l82 -27v-6h-242v6l82 27v456q-18 1 -133 9l-78 6v-394q0 -65 59 -65q18 0 34.5 7.5t42.5 30.5l4 -5q-35 -37 -73 -63t-55 -26q-42 0 -65.5 29t-23.5 84l-1 399l-79 17v6h83l71 119h5l-2 -119h290z" />
    <glyph glyph-name="t_t.dlig" horiz-adv-x="579" 
d="M576 78q-35 -37 -73 -63t-55 -26q-42 0 -65.5 29t-23.5 84l-1 393q-123 3 -202 9v-394q0 -65 59 -65q18 0 34.5 7.5t42.5 30.5l4 -5q-35 -37 -73 -63t-55 -26q-42 0 -65.5 29t-23.5 84l-1 399h-2l-77 17v6h83l71 119h5l-2 -119l205 -1l72 120h5l-2 -120h133v-34l-133 3
v-382q0 -65 59 -65q18 0 34.5 7.5t42.5 30.5z" />
    <glyph glyph-name="t_u.dlig" horiz-adv-x="800" 
d="M814 113l3 -5q-15 -14 -41 -44q-32 -36 -53.5 -54.5t-38.5 -18.5q-19 0 -31.5 20t-21.5 88q-41 -51 -78.5 -80.5t-54.5 -29.5q-68 0 -109 40t-41 129v331q-33 1 -152 12l-40 3v-394q0 -65 59 -65q18 0 34.5 7.5t42.5 30.5l4 -5q-35 -37 -73 -63t-55 -26q-42 0 -65.5 29
t-23.5 84l-1 399l-79 17v6h83l71 119h5l-2 -119h271v-364q0 -56 28 -83.5t70 -27.5q49 0 102 76v364l-82 29v6h160v-471z" />
    <glyph glyph-name="t_z.dlig" horiz-adv-x="643" 
d="M598 393l1 -219l-3 -3l-340 1l-1 -1l-5 1h-22l6 3l-10 2l253 293l35 20q-282 9 -356 14v-394q0 -65 59 -65q18 0 34.5 7.5t42.5 30.5l4 -5q-35 -37 -73 -63t-55 -26q-42 0 -65.5 29t-23.5 84l-1 399h-2l-77 17v6h83l71 119h5l-2 -119h417l30 -5l-246 -281l-72 -47h172
q38 0 59 15t32 42t27 85q14 52 17 60h6z" />
    <glyph glyph-name="w_w_w.dlig" horiz-adv-x="1817" 
d="M1663 524h153v-6l-191 -544h-6l-133 397h-5l-135 -397h-6l-145 410l-144 -410h-5l-134 397h-5l-135 -397h-5l-145 410l-145 -410h-5l-134 397h-5l-135 -397h-5l-192 544v6h172v-6l-81 -29l130 -375h6l60 186q14 45 20.5 74.5t6.5 50.5q0 36 -19.5 57.5t-63.5 35.5v6h226
v-6l-81 -29l127 -375h6l61 186q29 85 29 123q0 34 -19.5 54t-65.5 41v6h232v-6l-81 -29l129 -375h6l60 186q27 86 27 126q0 35 -19 56.5t-63 35.5v6h226v-6l-81 -29l126 -375h6l62 186q28 83 28 124q0 34 -19 54t-65 40v6h231v-6l-81 -29l130 -375h6l60 186q14 45 20.5 74.5
t6.5 50.5q0 36 -19.5 57.5t-63.5 35.5v6h226v-6l-81 -29l127 -375h6l62 186q28 86 28 123q0 34 -19 54t-65 41v6z" />
    <glyph glyph-name="g_i.dlig.dotless" horiz-adv-x="728" 
d="M485 6l82 27v461q-64 3 -128 7.5t-91 10.5l-1 -3q42 -23 62 -59t20 -80q0 -58 -33 -102.5t-76 -69.5t-68 -25q-66 0 -111 27q-25 -25 -36.5 -40t-11.5 -34q0 -26 19 -43.5t63 -20.5l163 -12q65 -4 107.5 -24.5t42.5 -78.5q0 -31 -19.5 -78t-76.5 -86.5t-159 -39.5
q-90 0 -156.5 33.5t-72.5 90.5q-1 7 17.5 24.5t88.5 78.5q19 15 32 27q-53 6 -87.5 32t-34.5 67q0 6 38 41q53 53 70 72q-62 45 -62 133q0 58 33 102.5t76 69t68 24.5q3 0 41 -4q93 -10 133 -10h229v-491l81 -27v-6h-242v6zM344.5 412.5q-18.5 40.5 -51.5 63t-74 22.5
q-39 -1 -64.5 -27.5t-25.5 -82.5q0 -50 18.5 -90.5t50.5 -63t70 -22.5q42 0 68.5 26t26.5 81q0 53 -18.5 93.5zM416 -38.5q-47 17.5 -126 24.5l-129 9q-79 -58 -79 -94q0 -29 27.5 -52.5t75 -36.5t104.5 -13q53 0 92.5 14t60.5 37.5t21 50.5q0 43 -47 60.5z" />
    <glyph glyph-name="Z_Z.dlig.ss01" horiz-adv-x="770" 
d="M725 669l-346 -651h183q43 0 61.5 7.5t31.5 34t39 100.5l23 61h6v-221h-684v6l350 651h-169q-44 0 -62 -7.5t-31.5 -33.5t-39.5 -101q-5 -15 -23 -61h-6v221h667v-6zM482 657l-339 -639h138l344 639h-143z" />
    <glyph glyph-name="a.sc" horiz-adv-x="484" 
d="M278 545l202 -540v-5h-171v5l72 31l-58 154h-219q-23 -61 -23 -91q0 -31 18.5 -53t59.5 -41v-5h-158v5l204 481l-20 54v5h93zM316 208l-96 253h-5l-102 -249l-2 -4h205z" />
    <glyph glyph-name="aacute.sc" horiz-adv-x="484" 
d="M278 545l202 -540v-5h-171v5l72 31l-58 154h-219q-23 -61 -23 -91q0 -31 18.5 -53t59.5 -41v-5h-158v5l204 481l-20 54v5h93zM316 208l-96 253h-5l-102 -249l-2 -4h205zM309 771h89v-6l-172 -175h-8z" />
    </font>
</defs>
</svg>
